GeoramaExtraCondensed-Light.ufo
<glyph name="exclam" format="2">
  <advance width="131.2"/>
  <unicode hex="0021"/>
  <outline>
    <contour>
      <point x="42.2" y="263.0" type="line"/>
      <point x="88.6" y="263.0" type="line"/>
      <point x="91.8" y="740.0" type="line"/>
      <point x="39.6" y="740.0" type="line"/>
    </contour>
    <contour>
      <point x="35.8" y="35.0" type="curve" smooth="yes"/>
      <point x="35.8" y="6.6000000000000005"/>
      <point x="42.2" y="-2.0"/>
      <point x="65.6" y="-2.0" type="curve" smooth="yes"/>
      <point x="89.8" y="-2.0"/>
      <point x="95.4" y="6.6000000000000005"/>
      <point x="95.4" y="35.0" type="curve" smooth="yes"/>
      <point x="95.4" y="63.6"/>
      <point x="89.8" y="72.2"/>
      <point x="65.6" y="72.2" type="curve" smooth="yes"/>
      <point x="41.4" y="72.2"/>
      <point x="35.8" y="63.6"/>
    </contour>
  </outline>
</glyph>
<glyph name="numbersign" format="2">
  <advance width="284.0"/>
  <unicode hex="0023"/>
  <outline>
    <contour>
      <point x="32.8" y="464.2" type="line"/>
      <point x="81.0" y="464.2" type="line"/>
      <point x="54.6" y="234.2" type="line"/>
      <point x="10.8" y="234.2" type="line"/>
      <point x="10.8" y="186.4" type="line"/>
      <point x="51.4" y="186.4" type="line"/>
      <point x="30.8" y="0.0" type="line"/>
      <point x="71.8" y="0.0" type="line"/>
      <point x="92.4" y="186.4" type="line"/>
      <point x="159.0" y="186.4" type="line"/>
      <point x="138.4" y="0.0" type="line"/>
      <point x="179.4" y="0.0" type="line"/>
      <point x="200.0" y="186.4" type="line"/>
      <point x="251.2" y="186.4" type="line"/>
      <point x="251.2" y="234.2" type="line"/>
      <point x="203.2" y="234.2" type="line"/>
      <point x="229.6" y="464.2" type="line"/>
      <point x="273.2" y="464.2" type="line"/>
      <point x="273.2" y="512.4" type="line"/>
      <point x="233.6" y="512.4" type="line"/>
      <point x="254.4" y="700.0" type="line"/>
      <point x="213.4" y="700.0" type="line"/>
      <point x="192.6" y="512.4" type="line"/>
      <point x="126.0" y="512.4" type="line"/>
      <point x="146.8" y="700.0" type="line"/>
      <point x="105.8" y="700.0" type="line"/>
      <point x="85.0" y="512.4" type="line"/>
      <point x="32.8" y="512.4" type="line"/>
    </contour>
    <contour>
      <point x="122.0" y="464.2" type="line"/>
      <point x="188.6" y="464.2" type="line"/>
      <point x="162.2" y="234.2" type="line"/>
      <point x="95.6" y="234.2" type="line"/>
    </contour>
  </outline>
</glyph>
<glyph name="dollar" format="2">
  <advance width="284.0"/>
  <unicode hex="0024"/>
  <outline>
    <contour>
      <point x="119.2" y="-10.0" type="curve" smooth="yes"/>
      <point x="189.6" y="-10.0"/>
      <point x="245.8" y="42.8"/>
      <point x="245.8" y="140.4" type="curve" smooth="yes"/>
      <point x="245.8" y="240.2"/>
      <point x="203.4" y="304.4"/>
      <point x="163.4" y="367.0" type="curve" smooth="yes"/>
      <point x="127.8" y="425.8"/>
      <point x="93.4" y="484.4"/>
      <point x="93.4" y="562.0" type="curve" smooth="yes"/>
      <point x="93.4" y="623.0"/>
      <point x="117.4" y="660.8"/>
      <point x="158.4" y="660.8" type="curve" smooth="yes"/>
      <point x="181.4" y="660.8"/>
      <point x="199.0" y="655.4"/>
      <point x="215.6" y="647.0" type="curve"/>
      <point x="228.8" y="691.6" type="line"/>
      <point x="210.0" y="702.8"/>
      <point x="181.0" y="710.0"/>
      <point x="151.4" y="710.0" type="curve" smooth="yes"/>
      <point x="85.0" y="710.0"/>
      <point x="42.8" y="652.0"/>
      <point x="42.8" y="562.0" type="curve" smooth="yes"/>
      <point x="42.8" y="465.0"/>
      <point x="83.0" y="396.6"/>
      <point x="122.0" y="332.8" type="curve" smooth="yes"/>
      <point x="159.6" y="271.0"/>
      <point x="196.0" y="213.2"/>
      <point x="196.0" y="136.6" type="curve" smooth="yes"/>
      <point x="196.0" y="78.6"/>
      <point x="166.2" y="38.8"/>
      <point x="121.6" y="38.8" type="curve" smooth="yes"/>
      <point x="96.8" y="38.8"/>
      <point x="74.4" y="44.0"/>
      <point x="50.4" y="55.4" type="curve"/>
      <point x="38.2" y="9.8" type="line"/>
      <point x="59.6" y="-2.1999999999999997"/>
      <point x="90.0" y="-10.0"/>
    </contour>
    <contour>
      <point x="121.0" y="-105.0" type="line"/>
      <point x="169.2" y="-105.0" type="line"/>
      <point x="169.2" y="5.6000000000000005" type="line"/>
      <point x="121.0" y="-0.7999999999999998" type="line"/>
    </contour>
    <contour>
      <point x="121.0" y="697.0" type="line"/>
      <point x="169.2" y="701.8" type="line"/>
      <point x="169.2" y="804.6" type="line"/>
      <point x="121.0" y="804.6" type="line"/>
    </contour>
  </outline>
</glyph>
<glyph name="ampersand" format="2">
  <advance width="375.2"/>
  <unicode hex="0026"/>
  <outline>
    <contour>
      <point x="318.8" y="-12.8" type="line"/>
      <point x="369.6" y="-4.2" type="line"/>
      <point x="141.8" y="409.2" type="line" smooth="yes"/>
      <point x="112.6" y="463.2"/>
      <point x="103.2" y="507.4"/>
      <point x="103.2" y="549.0" type="curve" smooth="yes"/>
      <point x="103.2" y="623.4"/>
      <point x="126.8" y="659.6"/>
      <point x="167.0" y="659.6" type="curve" smooth="yes"/>
      <point x="207.6" y="659.6"/>
      <point x="226.0" y="620.4"/>
      <point x="226.0" y="555.2" type="curve" smooth="yes"/>
      <point x="226.0" y="508.6"/>
      <point x="220.0" y="469.8"/>
      <point x="196.6" y="441.0" type="curve"/>
      <point x="220.6" y="413.0" type="line"/>
      <point x="256.2" y="450.6"/>
      <point x="271.2" y="501.4"/>
      <point x="271.2" y="564.8" type="curve" smooth="yes"/>
      <point x="271.2" y="658.0"/>
      <point x="234.8" y="710.0"/>
      <point x="166.6" y="710.0" type="curve" smooth="yes"/>
      <point x="92.8" y="710.0"/>
      <point x="52.8" y="656.2"/>
      <point x="52.8" y="550.6" type="curve" smooth="yes"/>
      <point x="52.8" y="498.2"/>
      <point x="68.6" y="440.2"/>
      <point x="103.2" y="377.0" type="curve" smooth="yes"/>
    </contour>
    <contour>
      <point x="159.0" y="-10.0" type="curve" smooth="yes"/>
      <point x="216.8" y="-10.0"/>
      <point x="254.2" y="21.2"/>
      <point x="279.6" y="81.6" type="curve"/>
      <point x="257.2" y="121.6" type="line"/>
      <point x="236.4" y="66.0"/>
      <point x="213.8" y="36.8"/>
      <point x="163.4" y="36.8" type="curve" smooth="yes"/>
      <point x="104.6" y="36.8"/>
      <point x="68.4" y="98.6"/>
      <point x="68.4" y="180.4" type="curve" smooth="yes"/>
      <point x="68.4" y="260.6"/>
      <point x="86.8" y="306.4"/>
      <point x="131.4" y="359.8" type="curve"/>
      <point x="110.8" y="397.6" type="line"/>
      <point x="46.6" y="339.8"/>
      <point x="20.4" y="273.6"/>
      <point x="20.4" y="176.4" type="curve" smooth="yes"/>
      <point x="20.4" y="67.6"/>
      <point x="72.2" y="-10.0"/>
    </contour>
    <contour>
      <point x="299.6" y="107.6" type="line"/>
      <point x="320.6" y="164.4"/>
      <point x="334.4" y="235.8"/>
      <point x="334.4" y="313.0" type="curve" smooth="yes"/>
      <point x="334.4" y="336.2"/>
      <point x="333.4" y="354.0"/>
      <point x="330.4" y="372.4" type="curve"/>
      <point x="289.0" y="370.2" type="line"/>
      <point x="291.6" y="353.8"/>
      <point x="292.6" y="339.0"/>
      <point x="292.6" y="318.6" type="curve" smooth="yes"/>
      <point x="292.6" y="253.4"/>
      <point x="285.0" y="196.0"/>
      <point x="273.4" y="156.2" type="curve"/>
    </contour>
  </outline>
</glyph>
<glyph name="quotesingle" format="2">
  <advance width="129.0"/>
  <unicode hex="0027"/>
  <outline>
    <contour>
      <point x="44.4" y="427.0" type="line"/>
      <point x="84.0" y="427.0" type="line"/>
      <point x="89.8" y="700.0" type="line"/>
      <point x="39.2" y="700.0" type="line"/>
    </contour>
  </outline>
</glyph>
<glyph name="parenleft" format="2">
  <advance width="184.6"/>
  <unicode hex="0028"/>
  <outline>
    <contour>
      <point x="42.8" y="265.0" type="curve" smooth="yes"/>
      <point x="42.8" y="-13.6"/>
      <point x="92.4" y="-195.4"/>
      <point x="179.0" y="-220.8" type="curve"/>
      <point x="179.0" y="-169.2" type="line"/>
      <point x="122.8" y="-135.6"/>
      <point x="88.4" y="4.800000000000001"/>
      <point x="88.4" y="265.0" type="curve" smooth="yes"/>
      <point x="88.4" y="525.2"/>
      <point x="122.8" y="665.6"/>
      <point x="179.0" y="699.2" type="curve"/>
      <point x="179.0" y="750.8" type="line"/>
      <point x="92.4" y="725.4"/>
      <point x="42.8" y="543.6"/>
    </contour>
  </outline>
</glyph>
<glyph name="parenright" format="2">
  <advance width="184.6"/>
  <unicode hex="0029"/>
  <outline>
    <contour>
      <point x="5.6" y="-169.2" type="curve"/>
      <point x="5.6" y="-220.8" type="line"/>
      <point x="92.2" y="-195.4"/>
      <point x="141.8" y="-13.6"/>
      <point x="141.8" y="265.0" type="curve" smooth="yes"/>
      <point x="141.8" y="543.6"/>
      <point x="92.2" y="725.4"/>
      <point x="5.6" y="750.8" type="curve"/>
      <point x="5.6" y="699.2" type="line"/>
      <point x="61.8" y="665.6"/>
      <point x="96.2" y="525.2"/>
      <point x="96.2" y="265.0" type="curve" smooth="yes"/>
      <point x="96.2" y="4.800000000000001"/>
      <point x="61.8" y="-135.6"/>
    </contour>
  </outline>
</glyph>
<glyph name="asterisk" format="2">
  <advance width="213.6"/>
  <unicode hex="002A"/>
  <outline>
    <contour>
      <point x="56.2" y="404.0" type="line"/>
      <point x="106.8" y="486.6" type="line"/>
      <point x="157.4" y="404.0" type="line"/>
      <point x="182.6" y="421.2" type="line"/>
      <point x="134.2" y="509.6" type="line"/>
      <point x="212.4" y="551.8" type="line"/>
      <point x="201.8" y="580.0" type="line"/>
      <point x="124.4" y="544.0" type="line"/>
      <point x="122.2" y="651.2" type="line"/>
      <point x="91.4" y="651.2" type="line"/>
      <point x="89.2" y="544.0" type="line"/>
      <point x="11.8" y="580.0" type="line"/>
      <point x="1.2000000000000002" y="551.8" type="line"/>
      <point x="79.4" y="509.6" type="line"/>
      <point x="31.0" y="421.2" type="line"/>
    </contour>
  </outline>
</glyph>
<glyph name="plus" format="2">
  <advance width="380.0"/>
  <unicode hex="002B"/>
  <outline>
    <contour>
      <point x="166.0" y="90.2" type="line"/>
      <point x="214.0" y="90.2" type="line"/>
      <point x="214.0" y="273.4" type="line"/>
      <point x="340.4" y="273.4" type="line"/>
      <point x="340.4" y="321.4" type="line"/>
      <point x="214.0" y="321.4" type="line"/>
      <point x="214.0" y="504.6" type="line"/>
      <point x="166.0" y="504.6" type="line"/>
      <point x="166.0" y="321.4" type="line"/>
      <point x="39.6" y="321.4" type="line"/>
      <point x="39.6" y="273.4" type="line"/>
      <point x="166.0" y="273.4" type="line"/>
    </contour>
  </outline>
</glyph>
<glyph name="comma" format="2">
  <advance width="112.0"/>
  <unicode hex="002C"/>
  <outline>
    <contour>
      <point x="28.6" y="49.4" type="line"/>
      <point x="35.4" y="25.200000000000003"/>
      <point x="38.6" y="0.0"/>
      <point x="38.6" y="-16.2" type="curve" smooth="yes"/>
      <point x="38.6" y="-75.2"/>
      <point x="21.4" y="-141.2"/>
      <point x="-18.8" y="-178.6" type="curve"/>
      <point x="16.200000000000003" y="-198.6" type="line"/>
      <point x="69.8" y="-151.8"/>
      <point x="87.4" y="-74.6"/>
      <point x="87.4" y="-15.2" type="curve" smooth="yes"/>
      <point x="87.4" y="9.0"/>
      <point x="83.8" y="32.6"/>
      <point x="77.2" y="55.2" type="curve"/>
    </contour>
  </outline>
</glyph>
<glyph name="hyphen" format="2">
  <advance width="207.4"/>
  <unicode hex="002D"/>
  <outline>
    <contour>
      <point x="17.8" y="250.8" type="line"/>
      <point x="189.6" y="250.8" type="line"/>
      <point x="189.6" y="301.6" type="line"/>
      <point x="17.8" y="301.6" type="line"/>
    </contour>
  </outline>
</glyph>
<glyph name="period" format="2">
  <advance width="112.0"/>
  <unicode hex="002E"/>
  <outline>
    <contour>
      <point x="26.2" y="35.6" type="curve" smooth="yes"/>
      <point x="26.2" y="7.2"/>
      <point x="32.6" y="-1.4000000000000001"/>
      <point x="56.0" y="-1.4000000000000001" type="curve" smooth="yes"/>
      <point x="80.2" y="-1.4000000000000001"/>
      <point x="85.8" y="7.2"/>
      <point x="85.8" y="35.6" type="curve" smooth="yes"/>
      <point x="85.8" y="64.2"/>
      <point x="80.2" y="72.80000000000001"/>
      <point x="56.0" y="72.80000000000001" type="curve" smooth="yes"/>
      <point x="31.8" y="72.80000000000001"/>
      <point x="26.2" y="64.2"/>
    </contour>
  </outline>
</glyph>
<glyph name="slash" format="2">
  <advance width="230.0"/>
  <unicode hex="002F"/>
  <outline>
    <contour>
      <point x="-0.40000000000000036" y="-210.0" type="line"/>
      <point x="44.6" y="-210.0" type="line"/>
      <point x="230.4" y="740.0" type="line"/>
      <point x="185.2" y="740.0" type="line"/>
    </contour>
  </outline>
</glyph>
<glyph name="zero" format="2">
  <advance width="284.0"/>
  <unicode hex="0030"/>
  <outline>
    <contour>
      <point x="15.0" y="350.0" type="curve" smooth="yes"/>
      <point x="15.0" y="72.8"/>
      <point x="51.0" y="-10.0"/>
      <point x="142.0" y="-10.0" type="curve" smooth="yes"/>
      <point x="232.4" y="-10.0"/>
      <point x="269.0" y="73.6"/>
      <point x="269.0" y="350.0" type="curve" smooth="yes"/>
      <point x="269.0" y="627.4"/>
      <point x="235.4" y="710.0"/>
      <point x="142.0" y="710.0" type="curve" smooth="yes"/>
      <point x="50.4" y="710.0"/>
      <point x="15.0" y="629.0"/>
    </contour>
    <contour>
      <point x="66.4" y="347.4" type="curve" smooth="yes"/>
      <point x="66.4" y="600.8"/>
      <point x="88.6" y="660.8"/>
      <point x="142.0" y="660.8" type="curve" smooth="yes"/>
      <point x="195.4" y="660.8"/>
      <point x="217.6" y="601.0"/>
      <point x="217.6" y="347.4" type="curve" smooth="yes"/>
      <point x="217.6" y="101.2"/>
      <point x="196.0" y="39.2"/>
      <point x="142.0" y="39.2" type="curve" smooth="yes"/>
      <point x="88.0" y="39.2"/>
      <point x="66.4" y="101.0"/>
    </contour>
  </outline>
</glyph>
<glyph name="one" format="2">
  <advance width="284.0"/>
  <unicode hex="0031"/>
  <outline>
    <contour>
      <point x="24.8" y="0.0" type="line"/>
      <point x="271.0" y="0.0" type="line"/>
      <point x="271.0" y="48.0" type="line"/>
      <point x="178.6" y="48.0" type="line"/>
      <point x="178.6" y="700.0" type="line"/>
      <point x="151.2" y="700.0" type="line"/>
      <point x="10.0" y="594.0" type="line"/>
      <point x="25.0" y="545.8" type="line"/>
      <point x="127.4" y="628.0" type="line"/>
      <point x="127.4" y="48.0" type="line"/>
      <point x="24.8" y="48.0" type="line"/>
    </contour>
  </outline>
</glyph>
<glyph name="two" format="2">
  <advance width="284.0"/>
  <unicode hex="0032"/>
  <outline>
    <contour>
      <point x="29.0" y="42.6" type="curve"/>
      <point x="33.0" y="0.0" type="line"/>
      <point x="262.8" y="0.0" type="line"/>
      <point x="262.8" y="48.0" type="line"/>
      <point x="85.6" y="48.0" type="line"/>
      <point x="197.6" y="301.4"/>
      <point x="237.2" y="423.0"/>
      <point x="237.2" y="531.2" type="curve" smooth="yes"/>
      <point x="237.2" y="658.6"/>
      <point x="195.8" y="710.0"/>
      <point x="125.2" y="710.0" type="curve" smooth="yes"/>
      <point x="84.4" y="710.0"/>
      <point x="51.4" y="695.6"/>
      <point x="17.4" y="655.6" type="curve"/>
      <point x="40.4" y="609.2" type="line"/>
      <point x="64.6" y="639.8"/>
      <point x="86.0" y="650.8"/>
      <point x="115.8" y="650.8" type="curve" smooth="yes"/>
      <point x="158.4" y="650.8"/>
      <point x="186.6" y="618.2"/>
      <point x="186.6" y="520.0" type="curve" smooth="yes"/>
      <point x="186.6" y="428.0"/>
      <point x="144.0" y="295.4"/>
    </contour>
  </outline>
</glyph>
<glyph name="three" format="2">
  <advance width="284.0"/>
  <unicode hex="0033"/>
  <outline>
    <contour>
      <point x="6.4" y="34.0" type="line"/>
      <point x="35.6" y="3.6"/>
      <point x="67.6" y="-10.0"/>
      <point x="111.4" y="-10.0" type="curve" smooth="yes"/>
      <point x="197.6" y="-10.0"/>
      <point x="248.0" y="67.8"/>
      <point x="248.0" y="199.6" type="curve" smooth="yes"/>
      <point x="248.0" y="285.4"/>
      <point x="223.2" y="345.6"/>
      <point x="175.0" y="371.0" type="curve"/>
      <point x="213.8" y="397.8"/>
      <point x="235.2" y="459.0"/>
      <point x="235.2" y="534.6" type="curve" smooth="yes"/>
      <point x="235.2" y="641.4"/>
      <point x="194.2" y="710.0"/>
      <point x="112.6" y="710.0" type="curve" smooth="yes"/>
      <point x="74.4" y="710.0"/>
      <point x="39.0" y="696.4"/>
      <point x="15.2" y="671.8" type="curve"/>
      <point x="36.2" y="630.4" type="line"/>
      <point x="53.4" y="646.8"/>
      <point x="76.4" y="654.8"/>
      <point x="103.6" y="654.8" type="curve" smooth="yes"/>
      <point x="159.2" y="654.8"/>
      <point x="184.4" y="602.6"/>
      <point x="184.4" y="521.0" type="curve" smooth="yes"/>
      <point x="184.4" y="443.2"/>
      <point x="160.0" y="388.4"/>
      <point x="123.8" y="388.4" type="curve" smooth="yes"/>
      <point x="70.6" y="388.4" type="line"/>
      <point x="70.6" y="342.2" type="line"/>
      <point x="110.4" y="342.2" type="line" smooth="yes"/>
      <point x="167.2" y="342.2"/>
      <point x="197.0" y="294.4"/>
      <point x="197.0" y="202.8" type="curve" smooth="yes"/>
      <point x="197.0" y="102.6"/>
      <point x="163.0" y="42.800000000000004"/>
      <point x="106.6" y="42.800000000000004" type="curve" smooth="yes"/>
      <point x="73.6" y="42.800000000000004"/>
      <point x="52.2" y="52.8"/>
      <point x="30.8" y="75.2" type="curve"/>
    </contour>
  </outline>
</glyph>
<glyph name="four" format="2">
  <advance width="284.0"/>
  <unicode hex="0034"/>
  <outline>
    <contour>
      <point x="18.4" y="168.8" type="line"/>
      <point x="168.6" y="168.8" type="line"/>
      <point x="168.6" y="0.0" type="line"/>
      <point x="218.6" y="0.0" type="line"/>
      <point x="218.6" y="168.8" type="line"/>
      <point x="274.6" y="168.8" type="line"/>
      <point x="274.6" y="216.8" type="line"/>
      <point x="218.6" y="216.8" type="line"/>
      <point x="218.6" y="699.0" type="line"/>
      <point x="164.0" y="703.2" type="line"/>
      <point x="13.0" y="216.2" type="line"/>
    </contour>
    <contour>
      <point x="55.0" y="216.8" type="line"/>
      <point x="170.6" y="596.0" type="line"/>
      <point x="170.6" y="216.8" type="line"/>
    </contour>
  </outline>
</glyph>
<glyph name="five" format="2">
  <advance width="284.0"/>
  <unicode hex="0035"/>
  <outline>
    <contour>
      <point x="21.6" y="36.2" type="line"/>
      <point x="48.4" y="6.2"/>
      <point x="81.4" y="-10.0"/>
      <point x="121.0" y="-10.0" type="curve" smooth="yes"/>
      <point x="207.0" y="-10.0"/>
      <point x="263.2" y="66.8"/>
      <point x="263.2" y="201.2" type="curve" smooth="yes"/>
      <point x="263.2" y="322.4"/>
      <point x="218.2" y="388.4"/>
      <point x="137.8" y="389.8" type="curve" smooth="yes"/>
      <point x="96.4" y="390.2" type="line"/>
      <point x="108.4" y="650.6" type="line"/>
      <point x="244.4" y="650.6" type="line"/>
      <point x="244.4" y="700.0" type="line"/>
      <point x="65.0" y="700.0" type="line"/>
      <point x="46.0" y="356.0" type="line"/>
      <point x="55.6" y="344.6" type="line"/>
      <point x="115.8" y="344.6" type="line" smooth="yes"/>
      <point x="178.2" y="344.6"/>
      <point x="211.6" y="293.4"/>
      <point x="211.6" y="199.6" type="curve" smooth="yes"/>
      <point x="211.6" y="100.4"/>
      <point x="177.0" y="42.4"/>
      <point x="116.0" y="42.4" type="curve" smooth="yes"/>
      <point x="81.8" y="42.4"/>
      <point x="58.6" y="59.2"/>
      <point x="41.0" y="78.2" type="curve"/>
    </contour>
  </outline>
</glyph>
<glyph name="six" format="2">
  <advance width="284.0"/>
  <unicode hex="0036"/>
  <outline>
    <contour>
      <point x="146.0" y="-10.0" type="curve" smooth="yes"/>
      <point x="221.6" y="-10.0"/>
      <point x="267.8" y="73.0"/>
      <point x="267.8" y="210.6" type="curve" smooth="yes"/>
      <point x="267.8" y="336.0"/>
      <point x="227.4" y="409.8"/>
      <point x="159.4" y="409.8" type="curve" smooth="yes"/>
      <point x="112.8" y="409.8"/>
      <point x="72.4" y="369.0"/>
      <point x="61.400000000000006" y="311.0" type="curve"/>
      <point x="64.8" y="260.0" type="line"/>
      <point x="76.8" y="326.2"/>
      <point x="107.4" y="365.8"/>
      <point x="146.0" y="365.8" type="curve" smooth="yes"/>
      <point x="190.2" y="365.8"/>
      <point x="216.6" y="308.0"/>
      <point x="216.6" y="207.0" type="curve" smooth="yes"/>
      <point x="216.6" y="101.0"/>
      <point x="187.4" y="36.6"/>
      <point x="146.0" y="36.6" type="curve" smooth="yes"/>
      <point x="92.6" y="36.6"/>
      <point x="70.0" y="107.0"/>
      <point x="70.0" y="332.0" type="curve" smooth="yes"/>
      <point x="70.0" y="557.8"/>
      <point x="95.4" y="661.0"/>
      <point x="174.6" y="661.0" type="curve" smooth="yes"/>
      <point x="200.2" y="661.0"/>
      <point x="216.0" y="650.4"/>
      <point x="234.2" y="633.4" type="curve"/>
      <point x="255.4" y="675.6" type="line"/>
      <point x="232.8" y="697.6"/>
      <point x="203.8" y="710.0"/>
      <point x="169.8" y="710.0" type="curve" smooth="yes"/>
      <point x="66.0" y="710.0"/>
      <point x="17.2" y="603.8"/>
      <point x="17.2" y="326.6" type="curve" smooth="yes"/>
      <point x="17.2" y="78.4"/>
      <point x="54.4" y="-10.0"/>
    </contour>
  </outline>
</glyph>
<glyph name="seven" format="2">
  <advance width="284.0"/>
  <unicode hex="0037"/>
  <outline>
    <contour>
      <point x="91.6" y="0.0" type="curve"/>
      <point x="145.4" y="0.0" type="line"/>
      <point x="146.2" y="138.2"/>
      <point x="161.0" y="248.8"/>
      <point x="191.2" y="367.2" type="curve" smooth="yes"/>
      <point x="265.2" y="660.8" type="line"/>
      <point x="265.2" y="700.0" type="line"/>
      <point x="17.8" y="700.0" type="line"/>
      <point x="17.8" y="651.0" type="line"/>
      <point x="210.8" y="651.0" type="line"/>
      <point x="149.0" y="415.4" type="line" smooth="yes"/>
      <point x="107.8" y="256.0"/>
      <point x="91.6" y="138.6"/>
    </contour>
  </outline>
</glyph>
<glyph name="eight" format="2">
  <advance width="284.0"/>
  <unicode hex="0038"/>
  <outline>
    <contour>
      <point x="137.8" y="373.4" type="curve"/>
      <point x="165.4" y="351.4" type="line"/>
      <point x="234.0" y="404.6"/>
      <point x="258.4" y="467.0"/>
      <point x="258.4" y="545.6" type="curve" smooth="yes"/>
      <point x="258.4" y="649.4"/>
      <point x="215.4" y="710.0"/>
      <point x="144.0" y="710.0" type="curve" smooth="yes"/>
      <point x="69.6" y="710.0"/>
      <point x="26.4" y="649.0"/>
      <point x="26.4" y="541.2" type="curve" smooth="yes"/>
      <point x="26.4" y="328.0"/>
      <point x="220.2" y="366.6"/>
      <point x="220.2" y="166.2" type="curve" smooth="yes"/>
      <point x="220.2" y="83.8"/>
      <point x="192.0" y="37.2"/>
      <point x="143.4" y="37.2" type="curve" smooth="yes"/>
      <point x="92.6" y="37.2"/>
      <point x="64.8" y="86.0"/>
      <point x="64.8" y="175.8" type="curve" smooth="yes"/>
      <point x="64.8" y="257.6"/>
      <point x="89.6" y="315.8"/>
      <point x="144.0" y="357.2" type="curve"/>
      <point x="113.6" y="383.0" type="line"/>
      <point x="44.0" y="329.8"/>
      <point x="15.2" y="259.2"/>
      <point x="15.2" y="171.0" type="curve" smooth="yes"/>
      <point x="15.2" y="55.2"/>
      <point x="60.4" y="-10.0"/>
      <point x="141.4" y="-10.0" type="curve" smooth="yes"/>
      <point x="223.0" y="-10.0"/>
      <point x="269.8" y="54.4"/>
      <point x="269.8" y="166.8" type="curve" smooth="yes"/>
      <point x="269.8" y="400.4"/>
      <point x="75.2" y="359.8"/>
      <point x="75.2" y="544.8" type="curve" smooth="yes"/>
      <point x="75.2" y="619.0"/>
      <point x="101.0" y="662.8"/>
      <point x="142.6" y="662.8" type="curve" smooth="yes"/>
      <point x="186.2" y="662.8"/>
      <point x="211.2" y="619.0"/>
      <point x="211.2" y="538.6" type="curve" smooth="yes"/>
      <point x="211.2" y="468.2"/>
      <point x="195.2" y="417.8"/>
    </contour>
  </outline>
</glyph>
<glyph name="nine" format="2">
  <advance width="284.0"/>
  <unicode hex="0039"/>
  <outline>
    <contour>
      <point x="118.4" y="-10.0" type="curve" smooth="yes"/>
      <point x="222.2" y="-10.0"/>
      <point x="267.8" y="96.2"/>
      <point x="267.8" y="373.4" type="curve" smooth="yes"/>
      <point x="267.8" y="621.6"/>
      <point x="230.6" y="710.0"/>
      <point x="139.0" y="710.0" type="curve" smooth="yes"/>
      <point x="63.4" y="710.0"/>
      <point x="17.2" y="627.0"/>
      <point x="17.2" y="489.4" type="curve" smooth="yes"/>
      <point x="17.2" y="364.0"/>
      <point x="57.6" y="290.2"/>
      <point x="125.6" y="290.2" type="curve" smooth="yes"/>
      <point x="172.2" y="290.2"/>
      <point x="212.6" y="332.6"/>
      <point x="223.6" y="390.6" type="curve"/>
      <point x="225.0" y="449.6" type="line"/>
      <point x="210.6" y="373.0"/>
      <point x="177.6" y="334.2"/>
      <point x="139.0" y="334.2" type="curve" smooth="yes"/>
      <point x="94.8" y="334.2"/>
      <point x="68.4" y="392.0"/>
      <point x="68.4" y="493.0" type="curve" smooth="yes"/>
      <point x="68.4" y="599.0"/>
      <point x="97.6" y="663.4"/>
      <point x="139.4" y="663.4" type="curve" smooth="yes"/>
      <point x="192.4" y="663.4"/>
      <point x="215.0" y="593.0"/>
      <point x="215.0" y="368.0" type="curve" smooth="yes"/>
      <point x="215.0" y="142.2"/>
      <point x="192.8" y="39.0"/>
      <point x="113.6" y="39.0" type="curve" smooth="yes"/>
      <point x="88.0" y="39.0"/>
      <point x="69.0" y="49.6"/>
      <point x="50.8" y="66.6" type="curve"/>
      <point x="29.6" y="24.4" type="line"/>
      <point x="52.2" y="2.4000000000000004"/>
      <point x="84.4" y="-10.0"/>
    </contour>
  </outline>
</glyph>
<glyph name="less" format="2">
  <advance width="380.0"/>
  <unicode hex="003C"/>
  <outline>
    <contour>
      <point x="343.8" y="92.8" type="line"/>
      <point x="343.8" y="140.4" type="line"/>
      <point x="85.0" y="294.4" type="line"/>
      <point x="343.8" y="449.4" type="line"/>
      <point x="343.8" y="495.2" type="line"/>
      <point x="36.2" y="318.2" type="line"/>
      <point x="36.2" y="270.6" type="line"/>
    </contour>
  </outline>
</glyph>
<glyph name="equal" format="2">
  <advance width="376.0"/>
  <unicode hex="003D"/>
  <outline>
    <contour>
      <point x="336.4" y="213.8" type="line"/>
      <point x="39.6" y="213.8" type="line"/>
      <point x="39.6" y="165.8" type="line"/>
      <point x="336.4" y="165.8" type="line"/>
    </contour>
    <contour>
      <point x="336.4" y="424.0" type="line"/>
      <point x="39.6" y="424.0" type="line"/>
      <point x="39.6" y="376.0" type="line"/>
      <point x="336.4" y="376.0" type="line"/>
    </contour>
  </outline>
</glyph>
<glyph name="greater" format="2">
  <advance width="380.0"/>
  <unicode hex="003E"/>
  <outline>
    <contour>
      <point x="343.8" y="269.8" type="line"/>
      <point x="343.8" y="317.4" type="line"/>
      <point x="36.2" y="495.2" type="line"/>
      <point x="36.2" y="447.8" type="line"/>
      <point x="295.0" y="293.6" type="line"/>
      <point x="36.2" y="138.8" type="line"/>
      <point x="36.2" y="92.8" type="line"/>
    </contour>
  </outline>
</glyph>
<glyph name="question" format="2">
  <advance width="256.4"/>
  <unicode hex="003F"/>
  <outline>
    <contour>
      <point x="92.8" y="263.0" type="line"/>
      <point x="139.4" y="263.0" type="line"/>
      <point x="139.4" y="340.0" type="line"/>
      <point x="209.2" y="412.4"/>
      <point x="243.4" y="463.8"/>
      <point x="243.4" y="572.2" type="curve" smooth="yes"/>
      <point x="243.4" y="692.2"/>
      <point x="187.4" y="749.8"/>
      <point x="113.8" y="749.8" type="curve" smooth="yes"/>
      <point x="73.4" y="749.8"/>
      <point x="35.6" y="729.0"/>
      <point x="7.6" y="697.8" type="curve"/>
      <point x="29.8" y="654.2" type="line"/>
      <point x="58.4" y="684.6"/>
      <point x="84.0" y="695.8"/>
      <point x="108.0" y="695.8" type="curve" smooth="yes"/>
      <point x="156.0" y="695.8"/>
      <point x="190.2" y="644.6"/>
      <point x="190.2" y="566.2" type="curve" smooth="yes"/>
      <point x="190.2" y="487.0"/>
      <point x="168.6" y="435.2"/>
      <point x="92.0" y="362.8" type="curve"/>
    </contour>
    <contour>
      <point x="85.6" y="35.0" type="curve" smooth="yes"/>
      <point x="85.6" y="6.6000000000000005"/>
      <point x="93.4" y="-2.0"/>
      <point x="116.2" y="-2.0" type="curve" smooth="yes"/>
      <point x="139.4" y="-2.0"/>
      <point x="146.0" y="6.6000000000000005"/>
      <point x="146.0" y="35.0" type="curve" smooth="yes"/>
      <point x="146.0" y="63.6"/>
      <point x="139.4" y="72.2"/>
      <point x="116.2" y="72.2" type="curve" smooth="yes"/>
      <point x="91.8" y="72.2"/>
      <point x="85.6" y="63.6"/>
    </contour>
  </outline>
</glyph>
<glyph name="at" format="2">
  <advance width="459.4"/>
  <unicode hex="0040"/>
  <outline>
    <contour>
      <point x="242.2" y="-123.4" type="curve" smooth="yes"/>
      <point x="297.4" y="-123.4"/>
      <point x="349.0" y="-94.4"/>
      <point x="369.2" y="-64.4" type="curve"/>
      <point x="353.6" y="-43.0" type="line"/>
      <point x="329.2" y="-70.8"/>
      <point x="290.6" y="-92.6"/>
      <point x="242.2" y="-92.6" type="curve" smooth="yes"/>
      <point x="116.6" y="-92.6"/>
      <point x="54.0" y="-8.799999999999999"/>
      <point x="54.0" y="266.8" type="curve" smooth="yes"/>
      <point x="54.0" y="507.6"/>
      <point x="94.2" y="681.0"/>
      <point x="239.2" y="681.0" type="curve" smooth="yes"/>
      <point x="379.6" y="681.0"/>
      <point x="407.4" y="570.8"/>
      <point x="407.4" y="349.6" type="curve" smooth="yes"/>
      <point x="407.4" y="211.0"/>
      <point x="397.0" y="92.6"/>
      <point x="355.6" y="92.6" type="curve" smooth="yes"/>
      <point x="334.8" y="92.6"/>
      <point x="310.0" y="111.4"/>
      <point x="317.0" y="247.6" type="curve" smooth="yes"/>
      <point x="332.4" y="522.8" type="line"/>
      <point x="300.6" y="537.0"/>
      <point x="274.4" y="544.8"/>
      <point x="245.8" y="544.8" type="curve" smooth="yes"/>
      <point x="153.0" y="544.8"/>
      <point x="126.2" y="414.6"/>
      <point x="126.2" y="267.6" type="curve" smooth="yes"/>
      <point x="126.2" y="105.6"/>
      <point x="154.8" y="56.8"/>
      <point x="202.8" y="56.8" type="curve" smooth="yes"/>
      <point x="255.0" y="56.8"/>
      <point x="265.2" y="109.2"/>
      <point x="278.6" y="184.6" type="curve"/>
      <point x="282.2" y="76.8"/>
      <point x="305.2" y="53.0"/>
      <point x="348.4" y="53.0" type="curve" smooth="yes"/>
      <point x="420.8" y="53.0"/>
      <point x="441.0" y="190.2"/>
      <point x="441.0" y="353.2" type="curve" smooth="yes"/>
      <point x="441.0" y="602.0"/>
      <point x="391.8" y="710.0"/>
      <point x="242.4" y="710.0" type="curve" smooth="yes"/>
      <point x="72.0" y="710.0"/>
      <point x="18.8" y="526.0"/>
      <point x="18.8" y="269.6" type="curve" smooth="yes"/>
      <point x="18.8" y="-24.4"/>
      <point x="94.0" y="-123.4"/>
    </contour>
    <contour>
      <point x="218.8" y="106.8" type="curve" smooth="yes"/>
      <point x="195.8" y="106.8"/>
      <point x="177.8" y="140.8"/>
      <point x="177.8" y="265.6" type="curve" smooth="yes"/>
      <point x="177.8" y="379.0"/>
      <point x="194.6" y="505.4"/>
      <point x="245.6" y="505.4" type="curve" smooth="yes"/>
      <point x="257.0" y="505.4"/>
      <point x="268.8" y="501.4"/>
      <point x="283.6" y="494.0" type="curve"/>
      <point x="275.8" y="385.0" type="line" smooth="yes"/>
      <point x="259.2" y="130.2"/>
      <point x="250.0" y="106.8"/>
    </contour>
  </outline>
</glyph>
<glyph name="A" format="2">
  <advance width="315.4"/>
  <unicode hex="0041"/>
  <anchor x="299.0" y="0.0" name="ogonek"/>
  <anchor x="158.2" y="0.0" name="bottom"/>
  <anchor x="158.2" y="700.0" name="top"/>
  <outline>
    <contour>
      <point x="16.4" y="0.0" type="line"/>
      <point x="67.6" y="0.0" type="line"/>
      <point x="97.0" y="195.0" type="line"/>
      <point x="218.4" y="195.0" type="line"/>
      <point x="247.4" y="0.0" type="line"/>
      <point x="299.0" y="0.0" type="line"/>
      <point x="190.0" y="708.0" type="line"/>
      <point x="126.0" y="708.0" type="line"/>
    </contour>
    <contour>
      <point x="102.4" y="248.2" type="line"/>
      <point x="158.2" y="639.4" type="line"/>
      <point x="213.0" y="248.2" type="line"/>
    </contour>
  </outline>
</glyph>
<glyph name="B" format="2">
  <advance width="302.2"/>
  <unicode hex="0042"/>
  <anchor x="140.4" y="700.0" name="top"/>
  <anchor x="140.4" y="0.0" name="bottom"/>
  <outline>
    <contour>
      <point x="38.8" y="-3.8" type="line"/>
      <point x="79.0" y="-8.8"/>
      <point x="94.8" y="-10.0"/>
      <point x="128.2" y="-10.0" type="curve" smooth="yes"/>
      <point x="233.8" y="-10.0"/>
      <point x="282.6" y="52.4"/>
      <point x="282.6" y="187.4" type="curve" smooth="yes"/>
      <point x="282.6" y="278.2"/>
      <point x="249.6" y="342.6"/>
      <point x="192.6" y="363.6" type="curve"/>
      <point x="192.6" y="364.8" type="line"/>
      <point x="236.6" y="388.2"/>
      <point x="265.4" y="454.4"/>
      <point x="265.4" y="534.4" type="curve" smooth="yes"/>
      <point x="265.4" y="654.6"/>
      <point x="222.0" y="710.0"/>
      <point x="128.2" y="710.0" type="curve" smooth="yes"/>
      <point x="103.2" y="710.0"/>
      <point x="73.6" y="707.4"/>
      <point x="38.8" y="702.2" type="curve"/>
    </contour>
    <contour>
      <point x="90.0" y="376.0" type="line"/>
      <point x="90.0" y="657.4" type="line"/>
      <point x="101.6" y="660.4"/>
      <point x="114.0" y="661.4"/>
      <point x="129.8" y="661.4" type="curve" smooth="yes"/>
      <point x="189.4" y="661.4"/>
      <point x="218.4" y="615.8"/>
      <point x="218.4" y="522.6" type="curve" smooth="yes"/>
      <point x="218.4" y="438.2"/>
      <point x="186.4" y="376.0"/>
      <point x="135.8" y="376.0" type="curve" smooth="yes"/>
    </contour>
    <contour>
      <point x="90.0" y="42.2" type="curve"/>
      <point x="90.0" y="330.6" type="line"/>
      <point x="137.6" y="330.6" type="line" smooth="yes"/>
      <point x="198.0" y="330.6"/>
      <point x="232.0" y="275.2"/>
      <point x="232.0" y="189.2" type="curve" smooth="yes"/>
      <point x="232.0" y="83.6"/>
      <point x="201.4" y="39.2"/>
      <point x="127.6" y="39.2" type="curve" smooth="yes"/>
      <point x="118.2" y="39.2"/>
      <point x="109.0" y="40.2"/>
    </contour>
  </outline>
</glyph>
<glyph name="C" format="2">
  <advance width="265.6"/>
  <unicode hex="0043"/>
  <anchor x="164.2" y="700.0" name="top"/>
  <anchor x="165.2" y="0.0" name="bottom"/>
  <outline>
    <contour>
      <point x="24.2" y="338.8" type="curve" smooth="yes"/>
      <point x="24.2" y="61.2"/>
      <point x="79.4" y="-10.0"/>
      <point x="173.8" y="-10.0" type="curve" smooth="yes"/>
      <point x="197.6" y="-10.0"/>
      <point x="231.4" y="-6.6"/>
      <point x="253.4" y="2.0" type="curve"/>
      <point x="244.2" y="50.6" type="line"/>
      <point x="229.0" y="44.800000000000004"/>
      <point x="196.2" y="40.2"/>
      <point x="181.6" y="40.2" type="curve" smooth="yes"/>
      <point x="115.4" y="40.2"/>
      <point x="75.6" y="101.0"/>
      <point x="75.6" y="337.8" type="curve" smooth="yes"/>
      <point x="75.6" y="597.6"/>
      <point x="115.8" y="659.2"/>
      <point x="184.2" y="659.2" type="curve" smooth="yes"/>
      <point x="202.0" y="659.2"/>
      <point x="218.6" y="656.6"/>
      <point x="239.4" y="649.6" type="curve"/>
      <point x="249.6" y="697.0" type="line"/>
      <point x="226.8" y="706.2"/>
      <point x="201.2" y="710.0"/>
      <point x="178.0" y="710.0" type="curve" smooth="yes"/>
      <point x="73.8" y="710.0"/>
      <point x="24.2" y="619.4"/>
    </contour>
  </outline>
</glyph>
<glyph name="D" format="2">
  <advance width="316.6"/>
  <unicode hex="0044"/>
  <anchor x="146.2" y="700.0" name="top"/>
  <outline>
    <contour>
      <point x="131.8" y="-10.0" type="curve" smooth="yes"/>
      <point x="249.6" y="-10.0"/>
      <point x="292.4" y="90.6"/>
      <point x="292.4" y="350.8" type="curve" smooth="yes"/>
      <point x="292.4" y="609.8"/>
      <point x="252.4" y="710.0"/>
      <point x="133.4" y="710.0" type="curve" smooth="yes"/>
      <point x="102.2" y="710.0"/>
      <point x="72.2" y="707.8"/>
      <point x="38.8" y="702.8" type="curve"/>
      <point x="38.8" y="-4.8" type="line"/>
      <point x="64.2" y="-8.6"/>
      <point x="96.6" y="-10.0"/>
    </contour>
    <contour>
      <point x="127.0" y="38.2" type="curve" smooth="yes"/>
      <point x="115.4" y="38.2"/>
      <point x="104.4" y="39.2"/>
      <point x="89.8" y="41.0" type="curve"/>
      <point x="89.8" y="657.6" type="line"/>
      <point x="102.8" y="659.6"/>
      <point x="117.8" y="660.6"/>
      <point x="129.4" y="660.6" type="curve" smooth="yes"/>
      <point x="212.8" y="660.6"/>
      <point x="239.2" y="589.2"/>
      <point x="239.2" y="350.0" type="curve" smooth="yes"/>
      <point x="239.2" y="113.0"/>
      <point x="214.0" y="38.2"/>
    </contour>
  </outline>
</glyph>
<glyph name="E" format="2">
  <advance width="263.6"/>
  <unicode hex="0045"/>
  <anchor x="252.4" y="0.0" name="ogonek"/>
  <anchor x="145.8" y="0.0" name="bottom"/>
  <anchor x="141.8" y="700.0" name="top"/>
  <outline>
    <contour>
      <point x="38.8" y="0.0" type="line"/>
      <point x="252.4" y="0.0" type="line"/>
      <point x="252.4" y="51.6" type="line"/>
      <point x="90.0" y="51.6" type="line"/>
      <point x="90.0" y="336.0" type="line"/>
      <point x="225.6" y="336.0" type="line"/>
      <point x="225.6" y="384.8" type="line"/>
      <point x="90.0" y="384.8" type="line"/>
      <point x="90.0" y="647.4" type="line"/>
      <point x="242.2" y="647.4" type="line"/>
      <point x="242.2" y="700.0" type="line"/>
      <point x="38.8" y="700.0" type="line"/>
    </contour>
  </outline>
</glyph>
<glyph name="F" format="2">
  <advance width="247.6"/>
  <unicode hex="0046"/>
  <outline>
    <contour>
      <point x="38.8" y="0.0" type="line"/>
      <point x="90.2" y="0.0" type="line"/>
      <point x="90.2" y="321.6" type="line"/>
      <point x="210.4" y="321.6" type="line"/>
      <point x="210.4" y="373.4" type="line"/>
      <point x="89.8" y="373.4" type="line"/>
      <point x="89.8" y="647.4" type="line"/>
      <point x="242.0" y="647.4" type="line"/>
      <point x="242.0" y="700.0" type="line"/>
      <point x="38.8" y="700.0" type="line"/>
    </contour>
  </outline>
</glyph>
<glyph name="G" format="2">
  <advance width="292.4"/>
  <unicode hex="0047"/>
  <anchor x="165.2" y="700.0" name="top"/>
  <anchor x="166.8" y="0.0" name="bottom"/>
  <outline>
    <contour>
      <point x="24.2" y="339.2" type="curve" smooth="yes"/>
      <point x="24.2" y="96.4"/>
      <point x="66.2" y="-10.0"/>
      <point x="170.6" y="-10.0" type="curve" smooth="yes"/>
      <point x="208.2" y="-10.0"/>
      <point x="242.4" y="-4.0"/>
      <point x="262.6" y="8.0" type="curve"/>
      <point x="262.6" y="354.2" type="line"/>
      <point x="146.6" y="354.2" type="line"/>
      <point x="146.6" y="304.8" type="line"/>
      <point x="214.4" y="304.8" type="line"/>
      <point x="214.4" y="43.0" type="line"/>
      <point x="204.6" y="39.6"/>
      <point x="191.4" y="38.2"/>
      <point x="172.4" y="38.2" type="curve" smooth="yes"/>
      <point x="103.8" y="38.2"/>
      <point x="75.2" y="126.0"/>
      <point x="75.2" y="336.4" type="curve" smooth="yes"/>
      <point x="75.2" y="568.4"/>
      <point x="106.4" y="659.6"/>
      <point x="183.8" y="659.6" type="curve" smooth="yes"/>
      <point x="202.6" y="659.6"/>
      <point x="224.0" y="656.2"/>
      <point x="243.8" y="649.4" type="curve"/>
      <point x="253.2" y="697.2" type="line"/>
      <point x="232.8" y="705.0"/>
      <point x="203.2" y="710.0"/>
      <point x="178.6" y="710.0" type="curve" smooth="yes"/>
      <point x="69.0" y="710.0"/>
      <point x="24.2" y="601.8"/>
    </contour>
  </outline>
</glyph>
<glyph name="H" format="2">
  <advance width="333.0"/>
  <unicode hex="0048"/>
  <anchor x="166.6" y="700.0" name="top"/>
  <outline>
    <contour>
      <point x="38.8" y="0.0" type="line"/>
      <point x="89.8" y="0.0" type="line"/>
      <point x="89.8" y="278.4" type="line"/>
      <point x="243.2" y="278.4" type="line"/>
      <point x="243.2" y="0.0" type="line"/>
      <point x="294.2" y="0.0" type="line"/>
      <point x="294.2" y="700.0" type="line"/>
      <point x="243.2" y="700.0" type="line"/>
      <point x="243.2" y="330.6" type="line"/>
      <point x="89.8" y="330.6" type="line"/>
      <point x="89.8" y="700.0" type="line"/>
      <point x="38.8" y="700.0" type="line"/>
    </contour>
  </outline>
</glyph>
<glyph name="I" format="2">
  <advance width="128.6"/>
  <unicode hex="0049"/>
  <anchor x="89.8" y="0.0" name="ogonek"/>
  <anchor x="64.4" y="0.0" name="bottom"/>
  <anchor x="64.4" y="700.0" name="top"/>
  <outline>
    <contour>
      <point x="38.8" y="0.0" type="line"/>
      <point x="89.8" y="0.0" type="line"/>
      <point x="89.8" y="700.0" type="line"/>
      <point x="38.8" y="700.0" type="line"/>
    </contour>
  </outline>
</glyph>
<glyph name="J" format="2">
  <advance width="223.8"/>
  <unicode hex="004A"/>
  <anchor x="110.0" y="700.0" name="top"/>
  <outline>
    <contour>
      <point x="4.0" y="2.4000000000000004" type="line"/>
      <point x="25.6" y="-5.199999999999999"/>
      <point x="50.4" y="-10.0"/>
      <point x="74.8" y="-10.0" type="curve" smooth="yes"/>
      <point x="165.8" y="-10.0"/>
      <point x="189.4" y="46.4"/>
      <point x="189.4" y="125.4" type="curve" smooth="yes"/>
      <point x="189.4" y="700.0" type="line"/>
      <point x="20.4" y="700.0" type="line"/>
      <point x="20.4" y="648.4" type="line"/>
      <point x="138.4" y="648.4" type="line"/>
      <point x="138.4" y="137.6" type="line" smooth="yes"/>
      <point x="138.4" y="64.2"/>
      <point x="114.0" y="40.400000000000006"/>
      <point x="61.0" y="40.400000000000006" type="curve" smooth="yes"/>
      <point x="47.0" y="40.400000000000006"/>
      <point x="30.0" y="42.2"/>
      <point x="13.8" y="47.2" type="curve"/>
    </contour>
  </outline>
</glyph>
<glyph name="K" format="2">
  <advance width="294.6"/>
  <unicode hex="004B"/>
  <anchor x="149.2" y="700.0" name="top"/>
  <anchor x="162.8" y="0.0" name="bottom"/>
  <outline>
    <contour>
      <point x="277.8" y="-10.0" type="curve" smooth="yes"/>
      <point x="282.0" y="-10.0"/>
      <point x="286.8" y="-10.0"/>
      <point x="294.0" y="-8.0" type="curve"/>
      <point x="294.0" y="54.2" type="line"/>
      <point x="291.6" y="53.6"/>
      <point x="288.6" y="53.6"/>
      <point x="286.2" y="53.6" type="curve" smooth="yes"/>
      <point x="272.6" y="53.6"/>
      <point x="260.6" y="61.400000000000006"/>
      <point x="220.2" y="148.2" type="curve" smooth="yes"/>
      <point x="90.2" y="427.6" type="line"/>
      <point x="90.2" y="700.0" type="line"/>
      <point x="39.0" y="700.0" type="line"/>
      <point x="39.0" y="0.0" type="line"/>
      <point x="90.2" y="0.0" type="line"/>
      <point x="90.2" y="324.4" type="line"/>
      <point x="195.2" y="93.6" type="line" smooth="yes"/>
      <point x="227.6" y="22.6"/>
      <point x="247.8" y="-10.0"/>
    </contour>
    <contour>
      <point x="137.0" y="291.2" type="line"/>
      <point x="191.2" y="375.2"/>
      <point x="250.0" y="507.2"/>
      <point x="277.4" y="691.2" type="curve"/>
      <point x="231.2" y="701.6" type="line"/>
      <point x="205.4" y="529.0"/>
      <point x="152.4" y="408.8"/>
      <point x="110.6" y="337.0" type="curve"/>
    </contour>
  </outline>
</glyph>
<glyph name="L" format="2">
  <advance width="235.4"/>
  <unicode hex="004C"/>
  <anchor x="117.8" y="350.0" name="center"/>
  <anchor x="64.4" y="700.0" name="top"/>
  <anchor x="160.2" y="700.0" name="topright"/>
  <anchor x="136.4" y="0.0" name="bottom"/>
  <outline>
    <contour>
      <point x="38.8" y="0.0" type="line"/>
      <point x="230.2" y="0.0" type="line"/>
      <point x="230.2" y="50.8" type="line"/>
      <point x="90.0" y="50.8" type="line"/>
      <point x="90.0" y="700.0" type="line"/>
      <point x="38.8" y="700.0" type="line"/>
    </contour>
  </outline>
</glyph>
<glyph name="M" format="2">
  <advance width="366.8"/>
  <unicode hex="004D"/>
  <outline>
    <contour>
      <point x="38.8" y="0.0" type="line"/>
      <point x="86.2" y="0.0" type="line"/>
      <point x="86.2" y="584.2" type="line"/>
      <point x="168.2" y="247.6" type="line"/>
      <point x="197.4" y="247.6" type="line"/>
      <point x="280.6" y="583.4" type="line"/>
      <point x="280.6" y="0.0" type="line"/>
      <point x="328.0" y="0.0" type="line"/>
      <point x="328.0" y="700.0" type="line"/>
      <point x="274.6" y="700.0" type="line"/>
      <point x="184.4" y="342.8" type="line"/>
      <point x="94.2" y="700.0" type="line"/>
      <point x="38.8" y="700.0" type="line"/>
    </contour>
  </outline>
</glyph>
<glyph name="N" format="2">
  <advance width="332.8"/>
  <unicode hex="004E"/>
  <anchor x="166.8" y="700.0" name="top"/>
  <anchor x="166.8" y="0.0" name="bottom"/>
  <outline>
    <contour>
      <point x="38.8" y="0.0" type="line"/>
      <point x="85.6" y="0.0" type="line"/>
      <point x="85.6" y="563.2" type="line"/>
      <point x="240.6" y="0.0" type="line"/>
      <point x="294.0" y="0.0" type="line"/>
      <point x="294.0" y="700.0" type="line"/>
      <point x="247.2" y="700.0" type="line"/>
      <point x="247.2" y="127.60000000000001" type="line"/>
      <point x="92.4" y="700.0" type="line"/>
      <point x="38.8" y="700.0" type="line"/>
    </contour>
  </outline>
</glyph>
<glyph name="O" format="2">
  <advance width="323.8"/>
  <unicode hex="004F"/>
  <anchor x="199.4" y="2.4000000000000004" name="ogonek"/>
  <anchor x="161.4" y="700.0" name="top"/>
  <anchor x="234.0" y="692.0" name="topright"/>
  <anchor x="161.4" y="0.0" name="bottom"/>
  <outline>
    <contour>
      <point x="161.4" y="38.8" type="curve" smooth="yes"/>
      <point x="100.4" y="38.8"/>
      <point x="76.4" y="99.4"/>
      <point x="76.4" y="349.0" type="curve" smooth="yes"/>
      <point x="76.4" y="600.6"/>
      <point x="100.4" y="661.6"/>
      <point x="161.4" y="661.6" type="curve" smooth="yes"/>
      <point x="223.4" y="661.6"/>
      <point x="247.4" y="601.0"/>
      <point x="247.4" y="349.4" type="curve" smooth="yes"/>
      <point x="247.4" y="99.8"/>
      <point x="223.4" y="38.8"/>
    </contour>
    <contour>
      <point x="161.4" y="-10.0" type="curve" smooth="yes"/>
      <point x="258.2" y="-10.0"/>
      <point x="299.4" y="64.2"/>
      <point x="299.4" y="349.8" type="curve" smooth="yes"/>
      <point x="299.4" y="636.2"/>
      <point x="258.6" y="710.0"/>
      <point x="161.4" y="710.0" type="curve" smooth="yes"/>
      <point x="65.2" y="710.0"/>
      <point x="24.4" y="635.8"/>
      <point x="24.4" y="349.0" type="curve" smooth="yes"/>
      <point x="24.4" y="63.8"/>
      <point x="65.2" y="-10.0"/>
    </contour>
  </outline>
</glyph>
<glyph name="P" format="2">
  <advance width="285.6"/>
  <unicode hex="0050"/>
  <outline>
    <contour>
      <point x="38.8" y="0.0" type="line"/>
      <point x="90.0" y="0.0" type="line"/>
      <point x="90.0" y="267.4" type="line"/>
      <point x="103.6" y="265.8"/>
      <point x="116.4" y="265.8"/>
      <point x="133.6" y="265.8" type="curve" smooth="yes"/>
      <point x="225.2" y="265.8"/>
      <point x="271.0" y="334.4"/>
      <point x="271.0" y="497.2" type="curve" smooth="yes"/>
      <point x="271.0" y="654.4"/>
      <point x="236.2" y="710.0"/>
      <point x="128.0" y="710.0" type="curve" smooth="yes"/>
      <point x="107.8" y="710.0"/>
      <point x="78.0" y="708.2"/>
      <point x="38.8" y="703.6" type="curve"/>
    </contour>
    <contour>
      <point x="90.2" y="658.2" type="line"/>
      <point x="105.2" y="661.2"/>
      <point x="119.2" y="662.0"/>
      <point x="131.2" y="662.0" type="curve" smooth="yes"/>
      <point x="203.2" y="662.0"/>
      <point x="219.8" y="615.4"/>
      <point x="219.8" y="497.2" type="curve" smooth="yes"/>
      <point x="219.8" y="364.6"/>
      <point x="189.4" y="314.8"/>
      <point x="127.8" y="314.8" type="curve" smooth="yes"/>
      <point x="113.2" y="314.8"/>
      <point x="101.8" y="314.8"/>
      <point x="90.2" y="316.0" type="curve"/>
    </contour>
  </outline>
</glyph>
<glyph name="Q" format="2">
  <advance width="323.8"/>
  <unicode hex="0051"/>
  <outline>
    <contour>
      <point x="196.4" y="14.8" type="curve"/>
      <point x="156.8" y="2.8000000000000003" type="line"/>
      <point x="172.4" y="-149.8"/>
      <point x="191.8" y="-200.0"/>
      <point x="243.2" y="-200.0" type="curve" smooth="yes"/>
      <point x="258.6" y="-200.0"/>
      <point x="276.6" y="-195.0"/>
      <point x="295.2" y="-188.0" type="curve"/>
      <point x="286.8" y="-138.6" type="line"/>
      <point x="273.8" y="-144.8"/>
      <point x="261.6" y="-148.8"/>
      <point x="252.0" y="-148.8" type="curve" smooth="yes"/>
      <point x="222.2" y="-148.8"/>
      <point x="210.8" y="-111.0"/>
    </contour>
    <component base="O"/>
  </outline>
</glyph>
<glyph name="R" format="2">
  <advance width="299.8"/>
  <unicode hex="0052"/>
  <anchor x="147.6" y="700.0" name="top"/>
  <anchor x="154.0" y="0.0" name="bottom"/>
  <outline>
    <contour>
      <point x="274.6" y="-10.0" type="curve" smooth="yes"/>
      <point x="285.0" y="-10.0"/>
      <point x="292.0" y="-7.0"/>
      <point x="297.0" y="-5.0" type="curve"/>
      <point x="293.4" y="48.4" type="line"/>
      <point x="291.2" y="47.800000000000004"/>
      <point x="285.0" y="47.2"/>
      <point x="283.4" y="47.2" type="curve" smooth="yes"/>
      <point x="264.4" y="47.2"/>
      <point x="250.8" y="61.800000000000004"/>
      <point x="192.8" y="302.2" type="curve"/>
      <point x="244.0" y="326.2"/>
      <point x="270.8" y="394.6"/>
      <point x="270.8" y="509.4" type="curve" smooth="yes"/>
      <point x="270.8" y="658.0"/>
      <point x="225.0" y="710.0"/>
      <point x="131.0" y="710.0" type="curve" smooth="yes"/>
      <point x="100.0" y="710.0"/>
      <point x="70.6" y="707.6"/>
      <point x="39.0" y="703.2" type="curve"/>
      <point x="39.0" y="0.0" type="line"/>
      <point x="89.4" y="0.0" type="line"/>
      <point x="89.4" y="283.8" type="line"/>
      <point x="97.4" y="282.8"/>
      <point x="110.0" y="282.8"/>
      <point x="122.8" y="282.8" type="curve" smooth="yes"/>
      <point x="131.4" y="282.8"/>
      <point x="140.2" y="283.8"/>
      <point x="148.2" y="285.4" type="curve"/>
      <point x="217.4" y="3.0"/>
      <point x="231.2" y="-10.0"/>
    </contour>
    <contour>
      <point x="127.0" y="331.2" type="curve" smooth="yes"/>
      <point x="112.6" y="331.2"/>
      <point x="101.2" y="331.6"/>
      <point x="89.4" y="332.6" type="curve"/>
      <point x="89.4" y="658.0" type="line"/>
      <point x="104.6" y="661.0"/>
      <point x="118.4" y="662.0"/>
      <point x="130.4" y="662.0" type="curve" smooth="yes"/>
      <point x="197.8" y="662.0"/>
      <point x="219.2" y="615.4"/>
      <point x="219.2" y="501.2" type="curve" smooth="yes"/>
      <point x="219.2" y="379.8"/>
      <point x="186.8" y="331.2"/>
    </contour>
  </outline>
</glyph>
<glyph name="S" format="2">
  <advance width="271.2"/>
  <unicode hex="0053"/>
  <anchor x="143.6" y="700.0" name="top"/>
  <anchor x="134.2" y="0.0" name="bottom"/>
  <outline>
    <contour>
      <point x="234.4" y="691.6" type="line"/>
      <point x="216.2" y="701.4"/>
      <point x="183.2" y="710.0"/>
      <point x="149.6" y="710.0" type="curve" smooth="yes"/>
      <point x="70.4" y="710.0"/>
      <point x="24.6" y="648.6"/>
      <point x="24.6" y="562.0" type="curve" smooth="yes"/>
      <point x="24.6" y="467.0"/>
      <point x="68.6" y="399.4"/>
      <point x="112.8" y="336.4" type="curve" smooth="yes"/>
      <point x="156.8" y="273.6"/>
      <point x="201.8" y="214.4"/>
      <point x="201.8" y="136.4" type="curve" smooth="yes"/>
      <point x="201.8" y="68.0"/>
      <point x="156.0" y="39.6"/>
      <point x="112.0" y="39.6" type="curve" smooth="yes"/>
      <point x="84.4" y="39.6"/>
      <point x="58.6" y="44.0"/>
      <point x="28.4" y="56.800000000000004" type="curve"/>
      <point x="15.2" y="11.2" type="line"/>
      <point x="40.6" y="-2.4"/>
      <point x="78.0" y="-10.0"/>
      <point x="113.8" y="-10.0" type="curve" smooth="yes"/>
      <point x="190.2" y="-10.0"/>
      <point x="252.2" y="42.6"/>
      <point x="252.2" y="140.2" type="curve" smooth="yes"/>
      <point x="252.2" y="237.6"/>
      <point x="205.0" y="303.2"/>
      <point x="160.0" y="366.4" type="curve" smooth="yes"/>
      <point x="117.2" y="427.2"/>
      <point x="75.8" y="483.0"/>
      <point x="75.8" y="561.0" type="curve" smooth="yes"/>
      <point x="75.8" y="623.6"/>
      <point x="106.8" y="660.8"/>
      <point x="153.8" y="660.8" type="curve" smooth="yes"/>
      <point x="181.0" y="660.8"/>
      <point x="198.6" y="656.8"/>
      <point x="221.0" y="647.0" type="curve"/>
    </contour>
  </outline>
</glyph>
<glyph name="T" format="2">
  <advance width="266.4"/>
  <unicode hex="0054"/>
  <anchor x="133.2" y="700.0" name="top"/>
  <anchor x="133.2" y="0.0" name="bottom"/>
  <outline>
    <contour>
      <point x="260.4" y="648.4" type="line"/>
      <point x="260.4" y="700.0" type="line"/>
      <point x="6.0" y="700.0" type="line"/>
      <point x="6.0" y="648.4" type="line"/>
      <point x="107.8" y="648.4" type="line"/>
      <point x="107.8" y="0.0" type="line"/>
      <point x="158.8" y="0.0" type="line"/>
      <point x="158.8" y="648.4" type="line"/>
    </contour>
  </outline>
</glyph>
<glyph name="U" format="2">
  <advance width="323.4"/>
  <unicode hex="0055"/>
  <anchor x="195.8" y="0.4" name="ogonek"/>
  <anchor x="162.2" y="700.0" name="top"/>
  <anchor x="289.0" y="700.0" name="topright"/>
  <anchor x="162.2" y="0.0" name="bottom"/>
  <outline>
    <contour>
      <point x="34.4" y="149.6" type="line"/>
      <point x="34.4" y="22.4"/>
      <point x="93.8" y="-10.0"/>
      <point x="161.8" y="-10.0" type="curve" smooth="yes"/>
      <point x="231.2" y="-10.0"/>
      <point x="289.0" y="22.4"/>
      <point x="289.0" y="149.6" type="curve" smooth="yes"/>
      <point x="289.0" y="700.0" type="line"/>
      <point x="237.6" y="700.0" type="line"/>
      <point x="237.6" y="144.6" type="line" smooth="yes"/>
      <point x="237.6" y="56.0"/>
      <point x="200.0" y="39.2"/>
      <point x="161.8" y="39.2" type="curve" smooth="yes"/>
      <point x="123.8" y="39.2"/>
      <point x="85.4" y="56.0"/>
      <point x="85.4" y="144.6" type="curve" smooth="yes"/>
      <point x="85.4" y="700.0" type="line"/>
      <point x="34.4" y="700.0" type="line"/>
    </contour>
  </outline>
</glyph>
<glyph name="V" format="2">
  <advance width="295.6"/>
  <unicode hex="0056"/>
  <outline>
    <contour>
      <point x="116.8" y="0.0" type="line"/>
      <point x="180.4" y="0.0" type="line"/>
      <point x="288.0" y="699.4" type="line"/>
      <point x="235.4" y="701.6" type="line"/>
      <point x="148.6" y="80.0" type="line"/>
      <point x="60.2" y="701.6" type="line"/>
      <point x="7.6" y="699.4" type="line"/>
    </contour>
  </outline>
</glyph>
<glyph name="W" format="2">
  <advance width="401.6"/>
  <unicode hex="0057"/>
  <anchor x="200.8" y="700.0" name="top"/>
  <anchor x="200.8" y="0.0" name="bottom"/>
  <outline>
    <contour>
      <point x="324.0" y="0.0" type="line"/>
      <point x="394.6" y="699.4" type="line"/>
      <point x="339.8" y="701.6" type="line"/>
      <point x="292.4" y="89.0" type="line"/>
      <point x="223.8" y="688.8" type="line"/>
      <point x="179.4" y="688.8" type="line"/>
      <point x="110.8" y="89.0" type="line"/>
      <point x="61.800000000000004" y="701.6" type="line"/>
      <point x="7.0" y="699.4" type="line"/>
      <point x="78.2" y="0.0" type="line"/>
      <point x="134.0" y="0.0" type="line"/>
      <point x="199.4" y="579.2" type="line"/>
      <point x="264.6" y="0.0" type="line"/>
    </contour>
  </outline>
</glyph>
<glyph name="X" format="2">
  <advance width="307.6"/>
  <unicode hex="0058"/>
  <outline>
    <contour>
      <point x="19.0" y="1.6" type="line"/>
      <point x="75.4" y="-3.2" type="line"/>
      <point x="152.4" y="312.8" type="line"/>
      <point x="231.2" y="-3.2" type="line"/>
      <point x="287.8" y="1.6" type="line"/>
      <point x="189.8" y="357.4" type="line"/>
      <point x="281.4" y="697.6" type="line"/>
      <point x="225.8" y="702.4" type="line"/>
      <point x="154.6" y="406.2" type="line"/>
      <point x="81.0" y="702.4" type="line"/>
      <point x="25.6" y="697.6" type="line"/>
      <point x="117.8" y="359.4" type="line"/>
    </contour>
  </outline>
</glyph>
<glyph name="Y" format="2">
  <advance width="289.2"/>
  <unicode hex="0059"/>
  <anchor x="145.4" y="700.0" name="top"/>
  <anchor x="144.6" y="0.0" name="bottom"/>
  <outline>
    <contour>
      <point x="119.8" y="0.0" type="line"/>
      <point x="170.8" y="0.0" type="line"/>
      <point x="170.8" y="293.6" type="line"/>
      <point x="279.2" y="697.6" type="line"/>
      <point x="224.6" y="702.4" type="line"/>
      <point x="145.4" y="342.0" type="line"/>
      <point x="61.4" y="702.4" type="line"/>
      <point x="6.8" y="697.6" type="line"/>
      <point x="119.8" y="293.6" type="line"/>
    </contour>
  </outline>
</glyph>
<glyph name="Z" format="2">
  <advance width="280.0"/>
  <unicode hex="005A"/>
  <anchor x="147.2" y="350.0" name="center"/>
  <anchor x="147.2" y="0.0" name="bottom"/>
  <anchor x="146.2" y="700.0" name="top"/>
  <outline>
    <contour>
      <point x="14.2" y="0.0" type="line"/>
      <point x="271.2" y="0.0" type="line"/>
      <point x="271.2" y="49.8" type="line"/>
      <point x="64.6" y="49.8" type="line"/>
      <point x="64.6" y="51.400000000000006" type="line"/>
      <point x="258.8" y="652.2" type="line"/>
      <point x="258.8" y="700.0" type="line"/>
      <point x="29.0" y="700.0" type="line"/>
      <point x="29.0" y="650.6" type="line"/>
      <point x="207.2" y="650.6" type="line"/>
      <point x="207.2" y="648.6" type="line"/>
      <point x="14.2" y="48.2" type="line"/>
    </contour>
  </outline>
</glyph>
<glyph name="bracketleft" format="2">
  <advance width="184.6"/>
  <unicode hex="005B"/>
  <outline>
    <contour>
      <point x="85.4" y="-164.4" type="line"/>
      <point x="85.4" y="694.4" type="line"/>
      <point x="178.2" y="694.4" type="line"/>
      <point x="178.2" y="740.0" type="line"/>
      <point x="42.8" y="740.0" type="line"/>
      <point x="42.8" y="-210.0" type="line"/>
      <point x="178.2" y="-210.0" type="line"/>
      <point x="178.2" y="-164.4" type="line"/>
    </contour>
  </outline>
</glyph>
<glyph name="backslash" format="2">
  <advance width="230.0"/>
  <unicode hex="005C"/>
  <outline>
    <contour>
      <point x="44.8" y="740.0" type="line"/>
      <point x="-0.40000000000000036" y="740.0" type="line"/>
      <point x="185.4" y="-210.0" type="line"/>
      <point x="230.4" y="-210.0" type="line"/>
    </contour>
  </outline>
</glyph>
<glyph name="bracketright" format="2">
  <advance width="184.6"/>
  <unicode hex="005D"/>
  <outline>
    <contour>
      <point x="6.4" y="-164.4" type="line"/>
      <point x="6.4" y="-210.0" type="line"/>
      <point x="141.8" y="-210.0" type="line"/>
      <point x="141.8" y="740.0" type="line"/>
      <point x="6.4" y="740.0" type="line"/>
      <point x="6.4" y="694.4" type="line"/>
      <point x="99.2" y="694.4" type="line"/>
      <point x="99.2" y="-164.4" type="line"/>
    </contour>
  </outline>
</glyph>
<glyph name="asciicircum" format="2">
  <advance width="380.0"/>
  <unicode hex="005E"/>
  <outline>
    <contour>
      <point x="36.6" y="271.6" type="line"/>
      <point x="78.4" y="271.6" type="line"/>
      <point x="190.0" y="653.6" type="line"/>
      <point x="301.8" y="271.6" type="line"/>
      <point x="343.4" y="271.6" type="line"/>
      <point x="215.8" y="708.0" type="line"/>
      <point x="164.2" y="708.0" type="line"/>
    </contour>
  </outline>
</glyph>
<glyph name="underscore" format="2">
  <advance width="611.6"/>
  <unicode hex="005F"/>
  <outline>
    <contour>
      <point x="4.0" y="-150.6" type="line"/>
      <point x="607.6" y="-150.6" type="line"/>
      <point x="607.6" y="-101.0" type="line"/>
      <point x="4.0" y="-101.0" type="line"/>
    </contour>
  </outline>
</glyph>
<glyph name="a" format="2">
  <advance width="283.6"/>
  <unicode hex="0061"/>
  <anchor x="286.0" y="2.2" name="ogonek"/>
  <anchor x="130.6" y="0.0" name="bottom"/>
  <anchor x="131.2" y="534.0" name="top"/>
  <outline>
    <contour>
      <point x="8.2" y="117.6" type="curve" smooth="yes"/>
      <point x="8.2" y="40.6"/>
      <point x="40.8" y="-10.0"/>
      <point x="101.8" y="-10.0" type="curve" smooth="yes"/>
      <point x="137.8" y="-10.0"/>
      <point x="163.8" y="8.0"/>
      <point x="188.0" y="34.4" type="curve"/>
      <point x="192.4" y="7.4"/>
      <point x="210.2" y="-10.0"/>
      <point x="240.2" y="-10.0" type="curve" smooth="yes"/>
      <point x="257.4" y="-10.0"/>
      <point x="271.2" y="-6.0"/>
      <point x="286.0" y="2.2" type="curve"/>
      <point x="278.2" y="48.4" type="line"/>
      <point x="268.8" y="43.800000000000004"/>
      <point x="260.6" y="42.2"/>
      <point x="253.0" y="42.2" type="curve" smooth="yes"/>
      <point x="242.6" y="42.2"/>
      <point x="236.0" y="49.4"/>
      <point x="236.0" y="73.0" type="curve" smooth="yes"/>
      <point x="236.0" y="407.8" type="line" smooth="yes"/>
      <point x="236.0" y="494.0"/>
      <point x="204.8" y="544.0"/>
      <point x="124.2" y="544.0" type="curve" smooth="yes"/>
      <point x="98.4" y="544.0"/>
      <point x="64.6" y="538.0"/>
      <point x="31.8" y="524.4" type="curve"/>
      <point x="44.8" y="477.0" type="line"/>
      <point x="76.6" y="488.6"/>
      <point x="101.2" y="491.2"/>
      <point x="119.4" y="491.2" type="curve" smooth="yes"/>
      <point x="162.8" y="491.2"/>
      <point x="185.2" y="460.4"/>
      <point x="185.2" y="406.2" type="curve" smooth="yes"/>
      <point x="185.2" y="291.6" type="line"/>
      <point x="83.0" y="267.6"/>
      <point x="8.2" y="230.0"/>
    </contour>
    <contour>
      <point x="58.6" y="125.0" type="curve" smooth="yes"/>
      <point x="58.6" y="208.0"/>
      <point x="122.2" y="235.6"/>
      <point x="185.2" y="251.0" type="curve"/>
      <point x="185.2" y="79.4" type="line"/>
      <point x="171.6" y="58.400000000000006"/>
      <point x="146.8" y="35.0"/>
      <point x="116.2" y="35.0" type="curve" smooth="yes"/>
      <point x="80.6" y="35.0"/>
      <point x="58.6" y="66.8"/>
    </contour>
  </outline>
</glyph>
<glyph name="b" format="2">
  <advance width="287.8"/>
  <unicode hex="0062"/>
  <outline>
    <contour>
      <point x="39.0" y="7.0" type="line"/>
      <point x="72.8" y="-4.4"/>
      <point x="101.8" y="-10.0"/>
      <point x="127.2" y="-10.0" type="curve" smooth="yes"/>
      <point x="226.2" y="-10.0"/>
      <point x="262.6" y="67.8"/>
      <point x="262.6" y="279.6" type="curve" smooth="yes"/>
      <point x="262.6" y="453.4"/>
      <point x="227.6" y="544.0"/>
      <point x="158.4" y="544.0" type="curve" smooth="yes"/>
      <point x="135.8" y="544.0"/>
      <point x="106.4" y="534.6"/>
      <point x="90.0" y="523.0" type="curve"/>
      <point x="90.0" y="740.0" type="line"/>
      <point x="39.0" y="740.0" type="line"/>
    </contour>
    <contour>
      <point x="90.0" y="39.8" type="curve"/>
      <point x="90.0" y="476.8" type="line"/>
      <point x="110.8" y="491.2"/>
      <point x="123.4" y="495.6"/>
      <point x="142.6" y="495.6" type="curve" smooth="yes"/>
      <point x="186.6" y="495.6"/>
      <point x="209.4" y="422.4"/>
      <point x="209.4" y="275.4" type="curve" smooth="yes"/>
      <point x="209.4" y="90.4"/>
      <point x="189.0" y="32.8"/>
      <point x="126.4" y="32.8" type="curve" smooth="yes"/>
      <point x="116.2" y="32.8"/>
      <point x="108.4" y="34.6"/>
    </contour>
  </outline>
</glyph>
<glyph name="c" format="2">
  <advance width="234.6"/>
  <unicode hex="0063"/>
  <anchor x="145.4" y="534.0" name="top"/>
  <anchor x="147.6" y="0.0" name="bottom"/>
  <outline>
    <contour>
      <point x="25.4" y="263.2" type="curve" smooth="yes"/>
      <point x="25.4" y="70.6"/>
      <point x="64.8" y="-10.0"/>
      <point x="150.8" y="-10.0" type="curve" smooth="yes"/>
      <point x="174.2" y="-10.0"/>
      <point x="205.8" y="-5.4"/>
      <point x="221.6" y="0.0" type="curve"/>
      <point x="210.8" y="46.4" type="line"/>
      <point x="197.2" y="43.6"/>
      <point x="173.8" y="40.6"/>
      <point x="160.0" y="40.6" type="curve" smooth="yes"/>
      <point x="105.6" y="40.6"/>
      <point x="77.8" y="100.2"/>
      <point x="77.8" y="259.6" type="curve" smooth="yes"/>
      <point x="77.8" y="431.6"/>
      <point x="103.8" y="493.4"/>
      <point x="164.4" y="493.4" type="curve" smooth="yes"/>
      <point x="180.2" y="493.4"/>
      <point x="193.0" y="491.4"/>
      <point x="207.0" y="487.4" type="curve"/>
      <point x="216.2" y="535.0" type="line"/>
      <point x="199.6" y="541.2"/>
      <point x="177.4" y="544.0"/>
      <point x="158.6" y="544.0" type="curve" smooth="yes"/>
      <point x="65.0" y="544.0"/>
      <point x="25.4" y="462.4"/>
    </contour>
  </outline>
</glyph>
<glyph name="d" format="2">
  <advance width="288.0"/>
  <unicode hex="0064"/>
  <anchor x="143.6" y="275.0" name="center"/>
  <anchor x="145.8" y="740.0" name="top"/>
  <anchor x="305.4" y="740.0" name="topright"/>
  <anchor x="143.6" y="0.0" name="bottom"/>
  <outline>
    <contour>
      <point x="204.4" y="0.0" type="line"/>
      <point x="249.0" y="0.0" type="line"/>
      <point x="249.0" y="740.0" type="line"/>
      <point x="197.8" y="740.0" type="line"/>
      <point x="197.8" y="536.6" type="line"/>
      <point x="180.6" y="542.0"/>
      <point x="166.2" y="544.0"/>
      <point x="152.0" y="544.0" type="curve" smooth="yes"/>
      <point x="62.4" y="544.0"/>
      <point x="25.2" y="461.4"/>
      <point x="25.2" y="256.2" type="curve" smooth="yes"/>
      <point x="25.2" y="80.4"/>
      <point x="61.4" y="-10.0"/>
      <point x="131.4" y="-10.0" type="curve" smooth="yes"/>
      <point x="155.8" y="-10.0"/>
      <point x="181.4" y="-2.2"/>
      <point x="198.8" y="11.4" type="curve"/>
    </contour>
    <contour>
      <point x="197.8" y="56.0" type="line"/>
      <point x="177.6" y="42.2"/>
      <point x="164.6" y="37.8"/>
      <point x="144.8" y="37.8" type="curve" smooth="yes"/>
      <point x="101.4" y="37.8"/>
      <point x="78.6" y="111.2"/>
      <point x="78.6" y="262.0" type="curve" smooth="yes"/>
      <point x="78.6" y="443.6"/>
      <point x="99.0" y="500.6"/>
      <point x="161.4" y="500.6" type="curve" smooth="yes"/>
      <point x="171.8" y="500.6"/>
      <point x="180.2" y="498.8"/>
      <point x="197.8" y="493.0" type="curve"/>
    </contour>
  </outline>
</glyph>
<glyph name="e" format="2">
  <advance width="275.8"/>
  <unicode hex="0065"/>
  <anchor x="220.6" y="2.4000000000000004" name="ogonek"/>
  <anchor x="148.4" y="0.0" name="bottom"/>
  <anchor x="146.4" y="534.0" name="top"/>
  <outline>
    <contour>
      <point x="150.4" y="-10.0" type="curve" smooth="yes"/>
      <point x="181.8" y="-10.0"/>
      <point x="213.4" y="-3.8"/>
      <point x="245.8" y="10.4" type="curve"/>
      <point x="237.2" y="55.6" type="line"/>
      <point x="208.2" y="44.6"/>
      <point x="183.6" y="39.400000000000006"/>
      <point x="161.0" y="39.400000000000006" type="curve" smooth="yes"/>
      <point x="98.6" y="39.400000000000006"/>
      <point x="77.4" y="85.2"/>
      <point x="77.4" y="248.2" type="curve" smooth="yes"/>
      <point x="77.4" y="254.4"/>
      <point x="77.4" y="261.2"/>
      <point x="77.4" y="267.4" type="curve"/>
      <point x="152.0" y="267.8"/>
      <point x="216.6" y="277.6"/>
      <point x="254.2" y="284.0" type="curve"/>
      <point x="254.2" y="290.6"/>
      <point x="255.2" y="312.2"/>
      <point x="255.2" y="319.8" type="curve" smooth="yes"/>
      <point x="255.2" y="481.2"/>
      <point x="221.4" y="544.0"/>
      <point x="151.4" y="544.0" type="curve" smooth="yes"/>
      <point x="72.8" y="544.0"/>
      <point x="25.4" y="482.4"/>
      <point x="25.4" y="253.6" type="curve" smooth="yes"/>
      <point x="25.4" y="59.4"/>
      <point x="61.0" y="-10.0"/>
    </contour>
    <contour>
      <point x="77.4" y="307.8" type="curve"/>
      <point x="83.2" y="467.6"/>
      <point x="111.2" y="500.8"/>
      <point x="149.4" y="500.8" type="curve" smooth="yes"/>
      <point x="186.0" y="500.8"/>
      <point x="204.8" y="456.4"/>
      <point x="204.8" y="318.4" type="curve"/>
      <point x="185.8" y="313.6"/>
      <point x="126.0" y="307.8"/>
    </contour>
  </outline>
</glyph>
<glyph name="f" format="2">
  <advance width="207.4"/>
  <unicode hex="0066"/>
  <outline>
    <contour>
      <point x="66.4" y="0.0" type="line"/>
      <point x="116.6" y="0.0" type="line"/>
      <point x="116.6" y="447.8" type="line"/>
      <point x="194.4" y="447.8" type="line"/>
      <point x="194.4" y="493.0" type="line"/>
      <point x="116.8" y="493.0" type="line"/>
      <point x="116.8" y="520.4" type="line" smooth="yes"/>
      <point x="116.8" y="649.0"/>
      <point x="141.2" y="702.6"/>
      <point x="195.8" y="702.6" type="curve" smooth="yes"/>
      <point x="208.0" y="702.6"/>
      <point x="220.2" y="701.4"/>
      <point x="235.8" y="696.2" type="curve"/>
      <point x="244.4" y="738.6" type="line"/>
      <point x="222.8" y="746.8"/>
      <point x="204.2" y="750.0"/>
      <point x="185.6" y="750.0" type="curve" smooth="yes"/>
      <point x="104.8" y="750.0"/>
      <point x="66.4" y="679.2"/>
      <point x="66.4" y="520.8" type="curve" smooth="yes"/>
      <point x="66.4" y="493.0" type="line"/>
      <point x="9.8" y="486.8" type="line"/>
      <point x="9.8" y="447.8" type="line"/>
      <point x="66.4" y="447.8" type="line"/>
    </contour>
  </outline>
</glyph>
<glyph name="g" format="2">
  <advance width="289.6"/>
  <unicode hex="0067"/>
  <anchor x="145.4" y="534.0" name="top"/>
  <anchor x="152.0" y="-210.0" name="bottom"/>
  <outline>
    <contour>
      <point x="148.6" y="-220.0" type="curve" smooth="yes"/>
      <point x="234.4" y="-220.0"/>
      <point x="282.2" y="-161.6"/>
      <point x="282.2" y="-66.0" type="curve" smooth="yes"/>
      <point x="282.2" y="20.400000000000002"/>
      <point x="243.4" y="70.4"/>
      <point x="173.4" y="70.4" type="curve" smooth="yes"/>
      <point x="131.0" y="70.4" type="line" smooth="yes"/>
      <point x="91.0" y="70.4"/>
      <point x="77.6" y="93.0"/>
      <point x="77.6" y="125.4" type="curve" smooth="yes"/>
      <point x="77.6" y="159.6"/>
      <point x="90.2" y="185.2"/>
      <point x="116.2" y="207.4" type="curve"/>
      <point x="88.4" y="223.0" type="line"/>
      <point x="54.8" y="194.2"/>
      <point x="35.0" y="157.8"/>
      <point x="35.0" y="113.6" type="curve" smooth="yes"/>
      <point x="35.0" y="59.6"/>
      <point x="60.8" y="20.6"/>
      <point x="124.2" y="20.6" type="curve" smooth="yes"/>
      <point x="166.0" y="20.6" type="line" smooth="yes"/>
      <point x="209.4" y="20.6"/>
      <point x="234.2" y="-13.2"/>
      <point x="234.2" y="-70.0" type="curve" smooth="yes"/>
      <point x="234.2" y="-135.2"/>
      <point x="206.2" y="-173.0"/>
      <point x="151.4" y="-173.0" type="curve" smooth="yes"/>
      <point x="96.8" y="-173.0"/>
      <point x="67.8" y="-138.2"/>
      <point x="67.8" y="-69.6" type="curve" smooth="yes"/>
      <point x="67.8" y="-25.2"/>
      <point x="79.6" y="7.0"/>
      <point x="104.0" y="33.8" type="curve"/>
      <point x="71.6" y="46.8" type="line"/>
      <point x="38.6" y="14.8"/>
      <point x="23.4" y="-24.4"/>
      <point x="23.4" y="-79.2" type="curve" smooth="yes"/>
      <point x="23.4" y="-170.8"/>
      <point x="68.4" y="-220.0"/>
    </contour>
    <contour>
      <point x="144.4" y="194.6" type="curve" smooth="yes"/>
      <point x="213.4" y="194.6"/>
      <point x="248.8" y="253.0"/>
      <point x="248.8" y="369.0" type="curve" smooth="yes"/>
      <point x="248.8" y="485.0"/>
      <point x="213.4" y="544.0"/>
      <point x="144.4" y="544.0" type="curve" smooth="yes"/>
      <point x="75.0" y="544.0"/>
      <point x="39.6" y="485.0"/>
      <point x="39.6" y="369.0" type="curve" smooth="yes"/>
      <point x="39.6" y="253.0"/>
      <point x="75.0" y="194.6"/>
    </contour>
    <contour>
      <point x="144.4" y="239.2" type="curve" smooth="yes"/>
      <point x="106.6" y="239.2"/>
      <point x="89.2" y="278.2"/>
      <point x="89.2" y="369.0" type="curve" smooth="yes"/>
      <point x="89.2" y="460.4"/>
      <point x="106.6" y="499.4"/>
      <point x="144.4" y="499.4" type="curve" smooth="yes"/>
      <point x="182.2" y="499.4"/>
      <point x="199.2" y="460.4"/>
      <point x="199.2" y="369.0" type="curve" smooth="yes"/>
      <point x="199.2" y="278.2"/>
      <point x="182.2" y="239.2"/>
    </contour>
    <contour>
      <point x="227.6" y="461.8" type="line"/>
      <point x="241.0" y="490.0"/>
      <point x="253.6" y="502.2"/>
      <point x="268.8" y="502.2" type="curve" smooth="yes"/>
      <point x="275.0" y="502.2"/>
      <point x="277.2" y="501.8"/>
      <point x="279.8" y="500.8" type="curve"/>
      <point x="286.0" y="548.4" type="line"/>
      <point x="282.2" y="551.0"/>
      <point x="276.8" y="552.2"/>
      <point x="268.0" y="552.2" type="curve" smooth="yes"/>
      <point x="243.2" y="552.2"/>
      <point x="220.0" y="534.2"/>
      <point x="207.2" y="504.2" type="curve"/>
    </contour>
  </outline>
</glyph>
<glyph name="h" format="2">
  <advance width="292.0"/>
  <unicode hex="0068"/>
  <anchor x="146.4" y="395.0" name="center"/>
  <anchor x="146.4" y="0.0" name="bottom"/>
  <anchor x="150.8" y="740.0" name="top"/>
  <outline>
    <contour>
      <point x="39.0" y="0.0" type="line"/>
      <point x="90.0" y="0.0" type="line"/>
      <point x="90.0" y="472.8" type="line"/>
      <point x="105.6" y="485.8"/>
      <point x="132.8" y="495.0"/>
      <point x="150.2" y="495.0" type="curve" smooth="yes"/>
      <point x="184.6" y="495.0"/>
      <point x="202.2" y="473.0"/>
      <point x="202.2" y="431.0" type="curve" smooth="yes"/>
      <point x="202.2" y="0.0" type="line"/>
      <point x="253.4" y="0.0" type="line"/>
      <point x="253.4" y="441.0" type="line" smooth="yes"/>
      <point x="253.4" y="517.2"/>
      <point x="217.0" y="544.0"/>
      <point x="172.0" y="544.0" type="curve" smooth="yes"/>
      <point x="144.4" y="544.0"/>
      <point x="112.0" y="533.4"/>
      <point x="90.0" y="516.4" type="curve"/>
      <point x="90.0" y="740.0" type="line"/>
      <point x="39.0" y="740.0" type="line"/>
    </contour>
  </outline>
</glyph>
<glyph name="i" format="2">
  <advance width="129.0"/>
  <unicode hex="0069"/>
  <anchor x="90.0" y="0.0" name="ogonek"/>
  <anchor x="64.6" y="0.0" name="bottom"/>
  <outline>
    <contour>
      <point x="64.6" y="655.4" type="curve" smooth="yes"/>
      <point x="88.6" y="655.4"/>
      <point x="95.4" y="663.6"/>
      <point x="95.4" y="691.0" type="curve" smooth="yes"/>
      <point x="95.4" y="718.8"/>
      <point x="88.2" y="726.8"/>
      <point x="64.6" y="726.8" type="curve" smooth="yes"/>
      <point x="40.8" y="726.8"/>
      <point x="33.6" y="718.8"/>
      <point x="33.6" y="691.0" type="curve" smooth="yes"/>
      <point x="33.6" y="663.4"/>
      <point x="41.6" y="655.4"/>
    </contour>
    <contour>
      <point x="39.0" y="0.0" type="line"/>
      <point x="90.0" y="0.0" type="line"/>
      <point x="90.0" y="534.0" type="line"/>
      <point x="39.0" y="534.0" type="line"/>
    </contour>
  </outline>
</glyph>
<glyph name="j" format="2">
  <advance width="128.2"/>
  <unicode hex="006A"/>
  <outline>
    <contour>
      <point x="89.2" y="534.0" type="line"/>
      <point x="38.2" y="534.0" type="line"/>
      <point x="38.2" y="15.4" type="line" smooth="yes"/>
      <point x="38.2" y="-71.4"/>
      <point x="21.6" y="-125.0"/>
      <point x="-10.0" y="-150.6" type="curve" smooth="yes"/>
      <point x="-16.4" y="-154.6"/>
      <point x="-22.4" y="-157.2"/>
      <point x="-30.2" y="-158.6" type="curve"/>
      <point x="-28.4" y="-207.6" type="line"/>
      <point x="-14.8" y="-206.0"/>
      <point x="-2.8" y="-202.4"/>
      <point x="8.8" y="-197.6" type="curve" smooth="yes"/>
      <point x="64.2" y="-168.0"/>
      <point x="89.2" y="-101.2"/>
      <point x="89.2" y="12.2" type="curve" smooth="yes"/>
    </contour>
    <contour>
      <point x="63.8" y="655.4" type="curve" smooth="yes"/>
      <point x="87.0" y="655.4"/>
      <point x="94.6" y="663.6"/>
      <point x="94.6" y="691.0" type="curve" smooth="yes"/>
      <point x="94.6" y="718.8"/>
      <point x="86.6" y="726.8"/>
      <point x="63.8" y="726.8" type="curve" smooth="yes"/>
      <point x="40.0" y="726.8"/>
      <point x="32.8" y="718.8"/>
      <point x="32.8" y="691.0" type="curve" smooth="yes"/>
      <point x="32.8" y="663.4"/>
      <point x="40.8" y="655.4"/>
    </contour>
  </outline>
</glyph>
<glyph name="l" format="2">
  <advance width="153.8"/>
  <unicode hex="006C"/>
  <anchor x="77.4" y="395.0" name="center"/>
  <anchor x="64.6" y="740.0" name="top"/>
  <anchor x="146.4" y="740.0" name="topright"/>
  <anchor x="96.4" y="0.0" name="bottom"/>
  <outline>
    <contour>
      <point x="90.0" y="740.0" type="line"/>
      <point x="39.0" y="740.0" type="line"/>
      <point x="39.0" y="103.4" type="line" smooth="yes"/>
      <point x="39.0" y="13.8"/>
      <point x="61.0" y="-10.0"/>
      <point x="109.6" y="-10.0" type="curve" smooth="yes"/>
      <point x="123.8" y="-10.0"/>
      <point x="139.6" y="-5.6"/>
      <point x="152.4" y="0.8000000000000003" type="curve"/>
      <point x="147.2" y="46.6" type="line"/>
      <point x="134.2" y="42.400000000000006"/>
      <point x="126.6" y="41.400000000000006"/>
      <point x="121.0" y="41.400000000000006" type="curve" smooth="yes"/>
      <point x="101.2" y="41.400000000000006"/>
      <point x="90.0" y="52.400000000000006"/>
      <point x="90.0" y="108.8" type="curve" smooth="yes"/>
    </contour>
  </outline>
</glyph>
<glyph name="m" format="2">
  <advance width="446.0"/>
  <unicode hex="006D"/>
  <outline>
    <contour>
      <point x="39.0" y="0.0" type="line"/>
      <point x="90.2" y="0.0" type="line"/>
      <point x="90.2" y="476.0" type="line"/>
      <point x="105.6" y="487.2"/>
      <point x="129.8" y="495.0"/>
      <point x="145.6" y="495.0" type="curve" smooth="yes"/>
      <point x="180.0" y="495.0"/>
      <point x="197.6" y="473.0"/>
      <point x="197.6" y="431.0" type="curve" smooth="yes"/>
      <point x="197.6" y="0.0" type="line"/>
      <point x="248.8" y="0.0" type="line"/>
      <point x="248.8" y="432.6" type="line" smooth="yes"/>
      <point x="248.8" y="448.6"/>
      <point x="246.4" y="461.6"/>
      <point x="242.4" y="472.0" type="curve"/>
      <point x="262.6" y="487.2"/>
      <point x="286.8" y="495.0"/>
      <point x="304.2" y="495.0" type="curve" smooth="yes"/>
      <point x="338.6" y="495.0"/>
      <point x="356.2" y="473.0"/>
      <point x="356.2" y="431.0" type="curve" smooth="yes"/>
      <point x="356.2" y="0.0" type="line"/>
      <point x="407.4" y="0.0" type="line"/>
      <point x="407.4" y="442.0" type="line" smooth="yes"/>
      <point x="407.4" y="515.4"/>
      <point x="372.4" y="544.0"/>
      <point x="326.0" y="544.0" type="curve" smooth="yes"/>
      <point x="288.4" y="544.0"/>
      <point x="254.4" y="528.6"/>
      <point x="232.2" y="510.6" type="curve"/>
      <point x="217.6" y="533.4"/>
      <point x="194.2" y="544.0"/>
      <point x="167.4" y="544.0" type="curve" smooth="yes"/>
      <point x="140.2" y="544.0"/>
      <point x="111.0" y="535.0"/>
      <point x="86.8" y="518.8" type="curve"/>
      <point x="86.8" y="534.0" type="line"/>
      <point x="39.0" y="534.0" type="line"/>
    </contour>
  </outline>
</glyph>
<glyph name="n" format="2">
  <advance width="292.2"/>
  <unicode hex="006E"/>
  <anchor x="148.2" y="534.0" name="top"/>
  <anchor x="149.8" y="0.0" name="bottom"/>
  <outline>
    <contour>
      <point x="39.0" y="0.0" type="line"/>
      <point x="90.2" y="0.0" type="line"/>
      <point x="90.2" y="472.8" type="line"/>
      <point x="105.6" y="485.6"/>
      <point x="133.0" y="495.0"/>
      <point x="150.4" y="495.0" type="curve" smooth="yes"/>
      <point x="184.8" y="495.0"/>
      <point x="202.4" y="473.0"/>
      <point x="202.4" y="431.0" type="curve" smooth="yes"/>
      <point x="202.4" y="0.0" type="line"/>
      <point x="253.6" y="0.0" type="line"/>
      <point x="253.6" y="442.0" type="line" smooth="yes"/>
      <point x="253.6" y="515.4"/>
      <point x="218.6" y="544.0"/>
      <point x="172.2" y="544.0" type="curve" smooth="yes"/>
      <point x="143.4" y="544.0"/>
      <point x="111.0" y="534.2"/>
      <point x="86.8" y="516.4" type="curve"/>
      <point x="86.8" y="534.0" type="line"/>
      <point x="39.0" y="534.0" type="line"/>
    </contour>
  </outline>
</glyph>
<glyph name="o" format="2">
  <advance width="285.2"/>
  <unicode hex="006F"/>
  <anchor x="183.2" y="2.0" name="ogonek"/>
  <anchor x="142.6" y="534.0" name="top"/>
  <anchor x="210.0" y="524.0" name="topright"/>
  <anchor x="142.6" y="0.0" name="bottom"/>
  <outline>
    <contour>
      <point x="25.2" y="267.2" type="curve" smooth="yes"/>
      <point x="25.2" y="59.0"/>
      <point x="54.0" y="-10.0"/>
      <point x="142.6" y="-10.0" type="curve" smooth="yes"/>
      <point x="231.2" y="-10.0"/>
      <point x="260.0" y="59.0"/>
      <point x="260.0" y="267.2" type="curve" smooth="yes"/>
      <point x="260.0" y="475.4"/>
      <point x="231.2" y="544.0"/>
      <point x="142.6" y="544.0" type="curve" smooth="yes"/>
      <point x="54.0" y="544.0"/>
      <point x="25.2" y="475.4"/>
    </contour>
    <contour>
      <point x="78.0" y="267.2" type="curve" smooth="yes"/>
      <point x="78.0" y="453.0"/>
      <point x="96.0" y="496.0"/>
      <point x="142.6" y="496.0" type="curve" smooth="yes"/>
      <point x="189.0" y="496.0"/>
      <point x="207.2" y="453.0"/>
      <point x="207.2" y="267.2" type="curve" smooth="yes"/>
      <point x="207.2" y="81.4"/>
      <point x="189.0" y="38.2"/>
      <point x="142.6" y="38.2" type="curve" smooth="yes"/>
      <point x="96.0" y="38.2"/>
      <point x="78.0" y="81.4"/>
    </contour>
  </outline>
</glyph>
<glyph name="p" format="2">
  <advance width="288.0"/>
  <unicode hex="0070"/>
  <outline>
    <contour>
      <point x="39.0" y="-210.0" type="line"/>
      <point x="90.2" y="-210.0" type="line"/>
      <point x="90.2" y="-2.6" type="line"/>
      <point x="107.8" y="-8.0"/>
      <point x="123.0" y="-10.0"/>
      <point x="136.0" y="-10.0" type="curve" smooth="yes"/>
      <point x="225.6" y="-10.0"/>
      <point x="262.8" y="72.8"/>
      <point x="262.8" y="278.0" type="curve" smooth="yes"/>
      <point x="262.8" y="451.4"/>
      <point x="227.4" y="544.0"/>
      <point x="159.8" y="544.0" type="curve" smooth="yes"/>
      <point x="135.0" y="544.0"/>
      <point x="107.0" y="535.2"/>
      <point x="89.2" y="522.6" type="curve"/>
      <point x="86.8" y="542.0" type="line"/>
      <point x="39.0" y="542.0" type="line"/>
    </contour>
    <contour>
      <point x="126.6" y="33.6" type="curve" smooth="yes"/>
      <point x="116.2" y="33.6"/>
      <point x="108.4" y="35.6"/>
      <point x="90.2" y="41.2" type="curve"/>
      <point x="90.2" y="478.2" type="line"/>
      <point x="110.6" y="492.2"/>
      <point x="123.4" y="496.4"/>
      <point x="142.4" y="496.4" type="curve" smooth="yes"/>
      <point x="186.6" y="496.4"/>
      <point x="209.4" y="422.8"/>
      <point x="209.4" y="272.2" type="curve" smooth="yes"/>
      <point x="209.4" y="90.8"/>
      <point x="189.0" y="33.6"/>
    </contour>
  </outline>
</glyph>
<glyph name="q" format="2">
  <advance width="288.2"/>
  <unicode hex="0071"/>
  <outline>
    <contour>
      <point x="249.2" y="528.6" type="line"/>
      <point x="214.6" y="539.6"/>
      <point x="187.8" y="544.0"/>
      <point x="161.0" y="544.0" type="curve" smooth="yes"/>
      <point x="64.0" y="544.0"/>
      <point x="25.2" y="464.8"/>
      <point x="25.2" y="260.0" type="curve" smooth="yes"/>
      <point x="25.2" y="82.4"/>
      <point x="60.8" y="-10.0"/>
      <point x="129.8" y="-10.0" type="curve" smooth="yes"/>
      <point x="152.8" y="-10.0"/>
      <point x="182.2" y="-0.6"/>
      <point x="198.2" y="10.8" type="curve"/>
      <point x="198.2" y="-210.0" type="line"/>
      <point x="249.2" y="-210.0" type="line"/>
    </contour>
    <contour>
      <point x="198.0" y="493.0" type="curve"/>
      <point x="198.0" y="56.8" type="line"/>
      <point x="177.6" y="42.6"/>
      <point x="164.8" y="38.0"/>
      <point x="145.6" y="38.0" type="curve" smooth="yes"/>
      <point x="102.4" y="38.0"/>
      <point x="78.8" y="112.8"/>
      <point x="78.8" y="258.2" type="curve" smooth="yes"/>
      <point x="78.8" y="443.2"/>
      <point x="99.2" y="500.8"/>
      <point x="161.8" y="500.8" type="curve" smooth="yes"/>
      <point x="171.0" y="500.8"/>
      <point x="179.8" y="499.0"/>
    </contour>
  </outline>
</glyph>
<glyph name="r" format="2">
  <advance width="209.2"/>
  <unicode hex="0072"/>
  <anchor x="122.2" y="534.0" name="top"/>
  <anchor x="64.4" y="0.0" name="bottom"/>
  <outline>
    <contour>
      <point x="86.6" y="534.0" type="line"/>
      <point x="39.0" y="534.0" type="line"/>
      <point x="39.0" y="0.0" type="line"/>
      <point x="89.8" y="0.0" type="line"/>
      <point x="89.8" y="447.0" type="line"/>
      <point x="115.4" y="478.4"/>
      <point x="138.4" y="490.8"/>
      <point x="164.6" y="490.8" type="curve" smooth="yes"/>
      <point x="175.4" y="490.8"/>
      <point x="188.2" y="489.2"/>
      <point x="201.2" y="485.2" type="curve"/>
      <point x="211.4" y="536.6" type="line"/>
      <point x="196.4" y="542.2"/>
      <point x="182.8" y="544.0"/>
      <point x="169.8" y="544.0" type="curve" smooth="yes"/>
      <point x="136.4" y="544.0"/>
      <point x="107.6" y="527.4"/>
      <point x="86.6" y="498.6" type="curve"/>
    </contour>
  </outline>
</glyph>
<glyph name="s" format="2">
  <advance width="232.6"/>
  <unicode hex="0073"/>
  <anchor x="114.2" y="534.0" name="top"/>
  <anchor x="110.8" y="0.0" name="bottom"/>
  <outline>
    <contour>
      <point x="4.4" y="11.4" type="line"/>
      <point x="30.2" y="-3.2"/>
      <point x="63.6" y="-10.0"/>
      <point x="98.0" y="-10.0" type="curve" smooth="yes"/>
      <point x="171.6" y="-10.0"/>
      <point x="221.2" y="36.6"/>
      <point x="221.2" y="123.6" type="curve" smooth="yes"/>
      <point x="221.2" y="212.0"/>
      <point x="175.8" y="253.2"/>
      <point x="132.2" y="295.4" type="curve" smooth="yes"/>
      <point x="96.2" y="331.0"/>
      <point x="65.0" y="365.0"/>
      <point x="65.0" y="419.4" type="curve" smooth="yes"/>
      <point x="65.0" y="466.0"/>
      <point x="91.2" y="494.8"/>
      <point x="132.4" y="494.8" type="curve" smooth="yes"/>
      <point x="153.6" y="494.8"/>
      <point x="173.8" y="490.0"/>
      <point x="193.6" y="481.8" type="curve"/>
      <point x="204.8" y="527.8" type="line"/>
      <point x="184.6" y="538.4"/>
      <point x="157.2" y="544.0"/>
      <point x="131.2" y="544.0" type="curve" smooth="yes"/>
      <point x="58.6" y="544.0"/>
      <point x="16.2" y="492.4"/>
      <point x="16.2" y="415.0" type="curve" smooth="yes"/>
      <point x="16.2" y="341.0"/>
      <point x="52.8" y="294.8"/>
      <point x="96.8" y="253.8" type="curve" smooth="yes"/>
      <point x="135.8" y="216.2"/>
      <point x="172.4" y="181.2"/>
      <point x="172.4" y="122.0" type="curve" smooth="yes"/>
      <point x="172.4" y="68.6"/>
      <point x="140.0" y="38.8"/>
      <point x="96.4" y="38.8" type="curve" smooth="yes"/>
      <point x="69.6" y="38.8"/>
      <point x="36.6" y="44.6"/>
      <point x="15.6" y="55.6" type="curve"/>
    </contour>
  </outline>
</glyph>
<glyph name="t" format="2">
  <advance width="209.4"/>
  <unicode hex="0074"/>
  <anchor x="104.0" y="275.0" name="center"/>
  <anchor x="87.2" y="662.8" name="top"/>
  <anchor x="179.0" y="745.0" name="topright"/>
  <anchor x="129.0" y="0.0" name="bottom"/>
  <outline>
    <contour>
      <point x="152.8" y="-10.0" type="curve" smooth="yes"/>
      <point x="169.4" y="-10.0"/>
      <point x="190.6" y="-7.8"/>
      <point x="212.6" y="0.6000000000000001" type="curve"/>
      <point x="204.2" y="44.400000000000006" type="line"/>
      <point x="190.6" y="40.0"/>
      <point x="178.2" y="39.0"/>
      <point x="166.4" y="39.0" type="curve" smooth="yes"/>
      <point x="124.6" y="39.0"/>
      <point x="108.0" y="63.6"/>
      <point x="108.0" y="128.0" type="curve" smooth="yes"/>
      <point x="108.0" y="488.8" type="line"/>
      <point x="204.4" y="488.8" type="line"/>
      <point x="204.4" y="534.0" type="line"/>
      <point x="108.0" y="534.0" type="line"/>
      <point x="108.0" y="662.8" type="line"/>
      <point x="65.6" y="662.8" type="line"/>
      <point x="57.0" y="534.0" type="line"/>
      <point x="7.4" y="528.0" type="line"/>
      <point x="7.4" y="489.0" type="line"/>
      <point x="57.0" y="489.0" type="line"/>
      <point x="57.0" y="123.6" type="line" smooth="yes"/>
      <point x="57.0" y="45.2"/>
      <point x="75.6" y="-10.0"/>
    </contour>
  </outline>
</glyph>
<glyph name="u" format="2">
  <advance width="301.8"/>
  <unicode hex="0075"/>
  <anchor x="303.0" y="2.2" name="ogonek"/>
  <anchor x="145.4" y="534.0" name="top"/>
  <anchor x="253.0" y="534.0" name="topright"/>
  <anchor x="151.4" y="0.0" name="bottom"/>
  <outline>
    <contour>
      <point x="121.8" y="-10.0" type="curve" smooth="yes"/>
      <point x="151.8" y="-10.0"/>
      <point x="183.8" y="1.2000000000000002"/>
      <point x="208.2" y="18.6" type="curve"/>
      <point x="214.8" y="1.8"/>
      <point x="232.4" y="-10.0"/>
      <point x="255.2" y="-10.0" type="curve" smooth="yes"/>
      <point x="272.4" y="-10.0"/>
      <point x="287.0" y="-6.0"/>
      <point x="303.0" y="2.2" type="curve"/>
      <point x="295.2" y="48.0" type="line"/>
      <point x="286.6" y="43.800000000000004"/>
      <point x="278.2" y="42.0"/>
      <point x="270.2" y="42.0" type="curve" smooth="yes"/>
      <point x="258.4" y="42.0"/>
      <point x="253.0" y="49.2"/>
      <point x="253.0" y="67.0" type="curve" smooth="yes"/>
      <point x="253.0" y="534.0" type="line"/>
      <point x="202.0" y="534.0" type="line"/>
      <point x="202.0" y="61.2" type="line"/>
      <point x="186.6" y="48.2"/>
      <point x="159.0" y="39.0"/>
      <point x="141.8" y="39.0" type="curve" smooth="yes"/>
      <point x="107.4" y="39.0"/>
      <point x="89.8" y="61.0"/>
      <point x="89.8" y="103.0" type="curve" smooth="yes"/>
      <point x="89.8" y="534.0" type="line"/>
      <point x="38.6" y="534.0" type="line"/>
      <point x="38.6" y="97.0" type="line" smooth="yes"/>
      <point x="38.6" y="16.8"/>
      <point x="76.8" y="-10.0"/>
    </contour>
  </outline>
</glyph>
<glyph name="v" format="2">
  <advance width="274.8"/>
  <unicode hex="0076"/>
  <outline>
    <contour>
      <point x="106.8" y="0.0" type="line"/>
      <point x="167.8" y="0.0" type="line"/>
      <point x="263.4" y="532.4" type="line"/>
      <point x="209.4" y="535.6" type="line"/>
      <point x="137.4" y="69.0" type="line"/>
      <point x="65.6" y="535.6" type="line"/>
      <point x="11.4" y="532.4" type="line"/>
    </contour>
  </outline>
</glyph>
<glyph name="w" format="2">
  <advance width="408.0"/>
  <unicode hex="0077"/>
  <anchor x="204.0" y="534.0" name="top"/>
  <anchor x="204.0" y="0.0" name="bottom"/>
  <outline>
    <contour>
      <point x="85.4" y="0.0" type="line"/>
      <point x="145.0" y="0.0" type="line"/>
      <point x="204.4" y="449.0" type="line"/>
      <point x="263.8" y="0.0" type="line"/>
      <point x="323.2" y="0.0" type="line"/>
      <point x="399.0" y="531.6" type="line"/>
      <point x="347.6" y="534.8" type="line"/>
      <point x="291.0" y="70.6" type="line"/>
      <point x="231.0" y="534.0" type="line"/>
      <point x="177.0" y="534.0" type="line"/>
      <point x="117.6" y="70.6" type="line"/>
      <point x="60.6" y="534.8" type="line"/>
      <point x="9.0" y="531.6" type="line"/>
    </contour>
  </outline>
</glyph>
<glyph name="x" format="2">
  <advance width="290.0"/>
  <unicode hex="0078"/>
  <outline>
    <contour>
      <point x="6.2" y="-4.8" type="line"/>
      <point x="59.800000000000004" y="-8.0" type="line"/>
      <point x="144.4" y="236.8" type="line"/>
      <point x="231.6" y="-8.0" type="line"/>
      <point x="285.0" y="-4.8" type="line"/>
      <point x="181.8" y="271.0" type="line"/>
      <point x="275.2" y="532.4" type="line"/>
      <point x="222.4" y="535.6" type="line"/>
      <point x="146.0" y="307.2" type="line"/>
      <point x="68.0" y="536.4" type="line"/>
      <point x="15.4" y="531.6" type="line"/>
      <point x="108.6" y="275.8" type="line"/>
    </contour>
  </outline>
</glyph>
<glyph name="y" format="2">
  <advance width="275.6"/>
  <unicode hex="0079"/>
  <anchor x="137.2" y="534.0" name="top"/>
  <anchor x="235.4" y="0.0" name="bottom"/>
  <outline>
    <contour>
      <point x="87.6" y="-208.4" type="line"/>
      <point x="142.6" y="-212.6" type="line"/>
      <point x="262.8" y="532.4" type="line"/>
      <point x="208.0" y="535.6" type="line"/>
      <point x="143.6" y="63.6" type="line"/>
      <point x="67.0" y="535.6" type="line"/>
      <point x="12.2" y="532.4" type="line"/>
      <point x="113.4" y="0.0" type="line"/>
      <point x="122.4" y="0.0" type="line"/>
    </contour>
  </outline>
</glyph>
<glyph name="z" format="2">
  <advance width="259.6"/>
  <unicode hex="007A"/>
  <anchor x="130.0" y="534.0" name="top"/>
  <outline>
    <contour>
      <point x="17.6" y="0.0" type="line"/>
      <point x="247.4" y="0.0" type="line"/>
      <point x="247.4" y="47.8" type="line"/>
      <point x="72.2" y="47.8" type="line"/>
      <point x="234.4" y="490.6" type="line"/>
      <point x="234.4" y="534.0" type="line"/>
      <point x="24.0" y="534.0" type="line"/>
      <point x="24.0" y="486.6" type="line"/>
      <point x="180.6" y="486.6" type="line"/>
      <point x="17.6" y="44.0" type="line"/>
    </contour>
  </outline>
</glyph>
<glyph name="braceleft" format="2">
  <advance width="203.0"/>
  <unicode hex="007B"/>
  <outline>
    <contour>
      <point x="60.4" y="-65.2" type="curve" smooth="yes"/>
      <point x="60.4" y="-149.6"/>
      <point x="90.8" y="-210.2"/>
      <point x="147.2" y="-210.2" type="curve" smooth="yes"/>
      <point x="178.2" y="-210.2" type="line"/>
      <point x="178.2" y="-164.6" type="line"/>
      <point x="156.0" y="-164.6" type="line" smooth="yes"/>
      <point x="119.6" y="-164.6"/>
      <point x="104.8" y="-117.6"/>
      <point x="104.8" y="-60.6" type="curve" smooth="yes"/>
      <point x="104.8" y="17.6"/>
      <point x="135.6" y="77.6"/>
      <point x="135.6" y="161.6" type="curve" smooth="yes"/>
      <point x="135.6" y="197.6"/>
      <point x="124.8" y="244.4"/>
      <point x="96.4" y="265.0" type="curve"/>
      <point x="124.8" y="289.0"/>
      <point x="135.6" y="332.2"/>
      <point x="135.6" y="368.2" type="curve" smooth="yes"/>
      <point x="135.6" y="446.6"/>
      <point x="104.8" y="506.6"/>
      <point x="104.8" y="590.4" type="curve" smooth="yes"/>
      <point x="104.8" y="647.4"/>
      <point x="119.6" y="694.4"/>
      <point x="156.0" y="694.4" type="curve" smooth="yes"/>
      <point x="178.2" y="694.4" type="line"/>
      <point x="178.2" y="740.0" type="line"/>
      <point x="147.2" y="740.0" type="line" smooth="yes"/>
      <point x="90.8" y="740.0"/>
      <point x="60.4" y="679.4"/>
      <point x="60.4" y="595.0" type="curve" smooth="yes"/>
      <point x="60.4" y="497.6"/>
      <point x="93.0" y="441.6"/>
      <point x="93.0" y="366.0" type="curve" smooth="yes"/>
      <point x="93.0" y="330.0"/>
      <point x="84.0" y="288.6"/>
      <point x="62.8" y="288.6" type="curve" smooth="yes"/>
      <point x="42.8" y="288.6" type="line"/>
      <point x="42.8" y="241.2" type="line"/>
      <point x="62.8" y="241.2" type="line" smooth="yes"/>
      <point x="84.0" y="241.2"/>
      <point x="93.0" y="200.6"/>
      <point x="93.0" y="163.8" type="curve" smooth="yes"/>
      <point x="93.0" y="85.8"/>
      <point x="60.4" y="26.6"/>
    </contour>
  </outline>
</glyph>
<glyph name="bar" format="2">
  <advance width="120.4"/>
  <unicode hex="007C"/>
  <outline>
    <contour>
      <point x="83.2" y="790.2" type="line"/>
      <point x="37.2" y="790.2" type="line"/>
      <point x="37.2" y="-210.0" type="line"/>
      <point x="83.2" y="-210.0" type="line"/>
    </contour>
  </outline>
</glyph>
<glyph name="braceright" format="2">
  <advance width="203.0"/>
  <unicode hex="007D"/>
  <outline>
    <contour>
      <point x="24.8" y="-164.6" type="line"/>
      <point x="24.8" y="-210.2" type="line"/>
      <point x="56.6" y="-210.2" type="line" smooth="yes"/>
      <point x="113.0" y="-210.2"/>
      <point x="143.4" y="-149.6"/>
      <point x="143.4" y="-65.2" type="curve" smooth="yes"/>
      <point x="143.4" y="26.6"/>
      <point x="110.8" y="85.8"/>
      <point x="110.8" y="163.8" type="curve" smooth="yes"/>
      <point x="110.8" y="200.6"/>
      <point x="119.8" y="241.2"/>
      <point x="141.0" y="241.2" type="curve" smooth="yes"/>
      <point x="160.2" y="241.2" type="line"/>
      <point x="160.2" y="288.6" type="line"/>
      <point x="141.0" y="288.6" type="line" smooth="yes"/>
      <point x="119.0" y="288.6"/>
      <point x="110.8" y="330.0"/>
      <point x="110.8" y="366.0" type="curve" smooth="yes"/>
      <point x="110.8" y="441.6"/>
      <point x="143.4" y="497.6"/>
      <point x="143.4" y="595.0" type="curve" smooth="yes"/>
      <point x="143.4" y="679.4"/>
      <point x="113.0" y="740.0"/>
      <point x="56.6" y="740.0" type="curve" smooth="yes"/>
      <point x="24.8" y="740.0" type="line"/>
      <point x="24.8" y="694.4" type="line"/>
      <point x="44.4" y="694.4" type="line" smooth="yes"/>
      <point x="80.0" y="694.4"/>
      <point x="95.6" y="647.4"/>
      <point x="95.6" y="590.4" type="curve" smooth="yes"/>
      <point x="95.6" y="506.6"/>
      <point x="64.8" y="446.6"/>
      <point x="64.8" y="368.2" type="curve" smooth="yes"/>
      <point x="64.8" y="332.2"/>
      <point x="74.8" y="289.0"/>
      <point x="104.0" y="265.0" type="curve"/>
      <point x="74.8" y="244.4"/>
      <point x="64.8" y="197.6"/>
      <point x="64.8" y="161.6" type="curve" smooth="yes"/>
      <point x="64.8" y="77.6"/>
      <point x="95.6" y="17.6"/>
      <point x="95.6" y="-60.6" type="curve" smooth="yes"/>
      <point x="95.6" y="-117.6"/>
      <point x="80.0" y="-164.6"/>
      <point x="44.4" y="-164.6" type="curve" smooth="yes"/>
    </contour>
  </outline>
</glyph>
<glyph name="asciitilde" format="2">
  <advance width="380.0"/>
  <unicode hex="007E"/>
  <outline>
    <contour>
      <point x="326.4" y="248.2" type="curve"/>
      <point x="326.4" y="299.4" type="line"/>
      <point x="307.6" y="273.8"/>
      <point x="292.0" y="263.4"/>
      <point x="269.8" y="263.4" type="curve" smooth="yes"/>
      <point x="209.4" y="263.4"/>
      <point x="177.8" y="373.0"/>
      <point x="113.2" y="373.0" type="curve" smooth="yes"/>
      <point x="85.6" y="373.0"/>
      <point x="67.4" y="360.8"/>
      <point x="54.4" y="341.0" type="curve"/>
      <point x="54.4" y="289.8" type="line"/>
      <point x="69.0" y="312.0"/>
      <point x="87.2" y="325.8"/>
      <point x="112.4" y="325.8" type="curve" smooth="yes"/>
      <point x="168.2" y="325.8"/>
      <point x="200.6" y="216.2"/>
      <point x="269.0" y="216.2" type="curve" smooth="yes"/>
      <point x="293.6" y="216.2"/>
      <point x="309.2" y="225.0"/>
    </contour>
  </outline>
</glyph>
<glyph name="exclamdown" format="2">
  <advance width="131.2"/>
  <unicode hex="00A1"/>
  <outline>
    <contour>
      <point x="89.0" y="271.0" type="line"/>
      <point x="42.6" y="271.0" type="line"/>
      <point x="39.4" y="-206.0" type="line"/>
      <point x="91.6" y="-206.0" type="line"/>
    </contour>
    <contour>
      <point x="95.4" y="499.0" type="curve" smooth="yes"/>
      <point x="95.4" y="527.4"/>
      <point x="89.8" y="536.0"/>
      <point x="65.6" y="536.0" type="curve" smooth="yes"/>
      <point x="42.2" y="536.0"/>
      <point x="35.8" y="527.4"/>
      <point x="35.8" y="499.0" type="curve" smooth="yes"/>
      <point x="35.8" y="470.4"/>
      <point x="41.4" y="461.8"/>
      <point x="65.6" y="461.8" type="curve" smooth="yes"/>
      <point x="89.8" y="461.8"/>
      <point x="95.4" y="470.4"/>
    </contour>
  </outline>
</glyph>
<glyph name="cent" format="2">
  <advance width="284.0"/>
  <unicode hex="00A2"/>
  <outline>
    <contour>
      <point x="171.2" y="-10.2" type="curve" smooth="yes"/>
      <point x="189.8" y="-10.2"/>
      <point x="208.8" y="-6.6"/>
      <point x="228.0" y="0.8000000000000003" type="curve"/>
      <point x="217.4" y="49.6" type="line"/>
      <point x="201.6" y="45.0"/>
      <point x="192.0" y="43.6"/>
      <point x="180.4" y="43.6" type="curve" smooth="yes"/>
      <point x="131.8" y="43.6"/>
      <point x="112.2" y="109.6"/>
      <point x="112.2" y="257.6" type="curve" smooth="yes"/>
      <point x="112.2" y="420.4"/>
      <point x="134.6" y="490.2"/>
      <point x="180.8" y="490.2" type="curve" smooth="yes"/>
      <point x="193.2" y="490.2"/>
      <point x="203.8" y="487.8"/>
      <point x="212.6" y="484.8" type="curve"/>
      <point x="222.8" y="535.0" type="line"/>
      <point x="209.2" y="540.2"/>
      <point x="188.8" y="544.4"/>
      <point x="170.2" y="544.4" type="curve" smooth="yes"/>
      <point x="87.2" y="544.4"/>
      <point x="59.0" y="443.2"/>
      <point x="59.0" y="256.4" type="curve" smooth="yes"/>
      <point x="59.0" y="74.6"/>
      <point x="91.0" y="-10.2"/>
    </contour>
    <contour>
      <point x="135.2" y="-105.2" type="line"/>
      <point x="183.4" y="-105.2" type="line"/>
      <point x="183.4" y="-1.1999999999999997" type="line"/>
      <point x="135.2" y="3.0" type="line"/>
    </contour>
    <contour>
      <point x="135.2" y="529.8" type="line"/>
      <point x="183.4" y="535.8" type="line"/>
      <point x="183.4" y="638.8" type="line"/>
      <point x="135.2" y="638.8" type="line"/>
    </contour>
  </outline>
</glyph>
<glyph name="sterling" format="2">
  <advance width="284.0"/>
  <unicode hex="00A3"/>
  <outline>
    <contour>
      <point x="51.6" y="0.0" type="line"/>
      <point x="249.4" y="0.0" type="line"/>
      <point x="249.4" y="48.0" type="line"/>
      <point x="105.2" y="48.0" type="line"/>
      <point x="140.8" y="116.8"/>
      <point x="167.2" y="164.2"/>
      <point x="167.2" y="248.8" type="curve" smooth="yes"/>
      <point x="167.2" y="346.2"/>
      <point x="114.80000000000001" y="410.8"/>
      <point x="114.80000000000001" y="516.6" type="curve" smooth="yes"/>
      <point x="114.80000000000001" y="621.8"/>
      <point x="151.8" y="658.4"/>
      <point x="194.8" y="658.4" type="curve" smooth="yes"/>
      <point x="209.2" y="658.4"/>
      <point x="218.6" y="655.4"/>
      <point x="230.2" y="650.4" type="curve"/>
      <point x="240.6" y="694.0" type="line"/>
      <point x="224.4" y="704.8"/>
      <point x="204.4" y="710.0"/>
      <point x="186.0" y="710.0" type="curve" smooth="yes"/>
      <point x="104.0" y="710.0"/>
      <point x="62.0" y="634.6"/>
      <point x="62.0" y="529.0" type="curve" smooth="yes"/>
      <point x="62.0" y="400.0"/>
      <point x="118.4" y="349.8"/>
      <point x="118.4" y="244.0" type="curve" smooth="yes"/>
      <point x="118.4" y="164.2"/>
      <point x="95.2" y="121.8"/>
      <point x="51.6" y="39.6" type="curve"/>
    </contour>
    <contour>
      <point x="33.6" y="350.8" type="line"/>
      <point x="225.2" y="350.8" type="line"/>
      <point x="225.2" y="389.2" type="line"/>
      <point x="33.6" y="389.2" type="line"/>
    </contour>
  </outline>
</glyph>
<glyph name="currency" format="2">
  <advance width="416.0"/>
  <unicode hex="00A4"/>
  <outline>
    <contour>
      <point x="29.0" y="435.0" type="line"/>
      <point x="97.0" y="366.0" type="line"/>
      <point x="81.4" y="345.4"/>
      <point x="71.6" y="319.2"/>
      <point x="71.6" y="289.8" type="curve" smooth="yes"/>
      <point x="71.6" y="260.2"/>
      <point x="81.4" y="233.6"/>
      <point x="98.0" y="212.8" type="curve"/>
      <point x="29.0" y="143.8" type="line"/>
      <point x="62.8" y="110.0" type="line"/>
      <point x="133.2" y="180.4" type="line"/>
      <point x="153.4" y="164.0"/>
      <point x="179.6" y="155.2"/>
      <point x="208.2" y="155.2" type="curve" smooth="yes"/>
      <point x="236.4" y="155.2"/>
      <point x="262.8" y="164.0"/>
      <point x="282.8" y="180.2" type="curve"/>
      <point x="353.2" y="110.0" type="line"/>
      <point x="387.0" y="143.8" type="line"/>
      <point x="318.8" y="211.8" type="line"/>
      <point x="335.6" y="233.0"/>
      <point x="345.6" y="259.8"/>
      <point x="345.6" y="289.8" type="curve" smooth="yes"/>
      <point x="345.6" y="319.4"/>
      <point x="335.6" y="346.0"/>
      <point x="319.0" y="367.0" type="curve"/>
      <point x="387.0" y="435.0" type="line"/>
      <point x="353.2" y="468.8" type="line"/>
      <point x="283.6" y="399.2" type="line"/>
      <point x="263.4" y="415.4"/>
      <point x="237.4" y="425.2"/>
      <point x="208.2" y="425.2" type="curve" smooth="yes"/>
      <point x="178.4" y="425.2"/>
      <point x="152.2" y="415.2"/>
      <point x="131.6" y="399.0" type="curve"/>
      <point x="62.8" y="468.8" type="line"/>
    </contour>
    <contour>
      <point x="208.2" y="194.2" type="curve" smooth="yes"/>
      <point x="154.8" y="194.2"/>
      <point x="112.8" y="236.2"/>
      <point x="112.8" y="289.6" type="curve" smooth="yes"/>
      <point x="112.8" y="343.4"/>
      <point x="154.8" y="386.0"/>
      <point x="208.2" y="386.0" type="curve" smooth="yes"/>
      <point x="262.4" y="386.0"/>
      <point x="304.4" y="343.4"/>
      <point x="304.4" y="289.6" type="curve" smooth="yes"/>
      <point x="304.4" y="236.2"/>
      <point x="262.4" y="194.2"/>
    </contour>
  </outline>
</glyph>
<glyph name="yen" format="2">
  <advance width="284.0"/>
  <unicode hex="00A5"/>
  <outline>
    <contour>
      <point x="44.8" y="346.0" type="line"/>
      <point x="118.8" y="346.0" type="line"/>
      <point x="118.8" y="239.2" type="line"/>
      <point x="44.8" y="239.2" type="line"/>
      <point x="44.8" y="200.8" type="line"/>
      <point x="118.8" y="200.8" type="line"/>
      <point x="118.8" y="0.0" type="line"/>
      <point x="170.0" y="0.0" type="line"/>
      <point x="170.0" y="200.8" type="line"/>
      <point x="244.0" y="200.8" type="line"/>
      <point x="244.0" y="239.2" type="line"/>
      <point x="170.0" y="239.2" type="line"/>
      <point x="170.0" y="346.0" type="line"/>
      <point x="244.0" y="346.0" type="line"/>
      <point x="244.0" y="384.0" type="line"/>
      <point x="170.0" y="384.0" type="line"/>
      <point x="255.0" y="697.4" type="line"/>
      <point x="199.4" y="702.6" type="line"/>
      <point x="144.4" y="432.8" type="line"/>
      <point x="84.6" y="702.6" type="line"/>
      <point x="29.0" y="697.4" type="line"/>
      <point x="118.8" y="384.0" type="line"/>
      <point x="44.8" y="384.0" type="line"/>
    </contour>
  </outline>
</glyph>
<glyph name="brokenbar" format="2">
  <advance width="120.2"/>
  <unicode hex="00A6"/>
  <outline>
    <contour>
      <point x="83.0" y="391.0" type="line"/>
      <point x="83.0" y="790.2" type="line"/>
      <point x="37.2" y="790.2" type="line"/>
      <point x="37.2" y="391.0" type="line"/>
    </contour>
    <contour>
      <point x="37.2" y="190.2" type="line"/>
      <point x="37.2" y="-210.0" type="line"/>
      <point x="83.0" y="-210.0" type="line"/>
      <point x="83.0" y="190.2" type="line"/>
    </contour>
  </outline>
</glyph>
<glyph name="section" format="2">
  <advance width="325.8"/>
  <unicode hex="00A7"/>
  <outline>
    <contour>
      <point x="122.2" y="-220.2" type="curve" smooth="yes"/>
      <point x="235.6" y="-220.2"/>
      <point x="306.4" y="-101.4"/>
      <point x="306.4" y="55.2" type="curve" smooth="yes"/>
      <point x="306.4" y="138.6"/>
      <point x="290.6" y="220.6"/>
      <point x="234.4" y="405.0" type="curve" smooth="yes"/>
      <point x="188.0" y="557.4"/>
      <point x="180.8" y="581.8"/>
      <point x="180.8" y="620.2" type="curve" smooth="yes"/>
      <point x="180.8" y="667.6"/>
      <point x="202.2" y="695.2"/>
      <point x="237.4" y="695.2" type="curve" smooth="yes"/>
      <point x="250.2" y="695.2"/>
      <point x="261.0" y="693.2"/>
      <point x="274.6" y="686.2" type="curve"/>
      <point x="288.4" y="733.8" type="line"/>
      <point x="269.0" y="744.4"/>
      <point x="244.6" y="749.2"/>
      <point x="220.0" y="749.2" type="curve" smooth="yes"/>
      <point x="102.2" y="749.2"/>
      <point x="29.2" y="650.8"/>
      <point x="29.8" y="485.4" type="curve" smooth="yes"/>
      <point x="30.4" y="400.4"/>
      <point x="44.8" y="316.4"/>
      <point x="101.4" y="141.0" type="curve" smooth="yes"/>
      <point x="145.8" y="-0.1999999999999993"/>
      <point x="160.4" y="-51.4"/>
      <point x="160.4" y="-92.2" type="curve" smooth="yes"/>
      <point x="160.4" y="-141.2"/>
      <point x="138.8" y="-166.2"/>
      <point x="101.6" y="-166.2" type="curve" smooth="yes"/>
      <point x="80.2" y="-166.2"/>
      <point x="59.8" y="-158.2"/>
      <point x="36.6" y="-136.6" type="curve"/>
      <point x="20.6" y="-183.4" type="line"/>
      <point x="50.8" y="-210.0"/>
      <point x="81.0" y="-220.2"/>
    </contour>
    <contour>
      <point x="121.0" y="-186.6" type="curve" smooth="yes"/>
      <point x="105.0" y="-186.6"/>
      <point x="94.2" y="-184.0"/>
      <point x="84.4" y="-179.4" type="curve"/>
      <point x="106.8" y="-195.4" type="line"/>
      <point x="162.0" y="-193.4"/>
      <point x="197.8" y="-153.4"/>
      <point x="197.8" y="-91.8" type="curve" smooth="yes"/>
      <point x="197.8" y="-46.6"/>
      <point x="184.6" y="10.800000000000004"/>
      <point x="139.4" y="157.6" type="curve" smooth="yes"/>
      <point x="83.8" y="339.4"/>
      <point x="69.8" y="402.2"/>
      <point x="69.8" y="487.4" type="curve" smooth="yes"/>
      <point x="69.8" y="618.8"/>
      <point x="124.8" y="708.2"/>
      <point x="200.8" y="708.2" type="curve" smooth="yes"/>
      <point x="207.8" y="708.2"/>
      <point x="212.8" y="707.2"/>
      <point x="220.2" y="703.6" type="curve"/>
      <point x="206.2" y="719.8" type="line"/>
      <point x="168.0" y="707.6"/>
      <point x="140.8" y="671.0"/>
      <point x="140.8" y="622.4" type="curve" smooth="yes"/>
      <point x="140.8" y="578.2"/>
      <point x="149.8" y="535.2"/>
      <point x="195.0" y="393.2" type="curve" smooth="yes"/>
      <point x="254.4" y="200.8"/>
      <point x="268.4" y="130.6"/>
      <point x="268.4" y="52.4" type="curve" smooth="yes"/>
      <point x="268.4" y="-85.6"/>
      <point x="211.4" y="-186.6"/>
    </contour>
  </outline>
</glyph>
<glyph name="copyright" format="2">
  <advance width="374.8"/>
  <unicode hex="00A9"/>
  <outline>
    <contour>
      <point x="187.4" y="14.600000000000001" type="curve" smooth="yes"/>
      <point x="99.8" y="14.600000000000001"/>
      <point x="57.4" y="103.2"/>
      <point x="57.4" y="350.2" type="curve" smooth="yes"/>
      <point x="57.4" y="598.0"/>
      <point x="99.8" y="685.8"/>
      <point x="187.4" y="685.8" type="curve" smooth="yes"/>
      <point x="275.6" y="685.8"/>
      <point x="317.2" y="598.0"/>
      <point x="317.2" y="350.2" type="curve" smooth="yes"/>
      <point x="317.2" y="103.2"/>
      <point x="275.6" y="14.600000000000001"/>
    </contour>
    <contour>
      <point x="187.4" y="710.0" type="curve" smooth="yes"/>
      <point x="82.0" y="710.0"/>
      <point x="32.6" y="615.0"/>
      <point x="32.6" y="350.2" type="curve" smooth="yes"/>
      <point x="32.6" y="86.4"/>
      <point x="82.0" y="-10.0"/>
      <point x="187.4" y="-10.0" type="curve" smooth="yes"/>
      <point x="292.8" y="-10.0"/>
      <point x="342.2" y="86.4"/>
      <point x="342.2" y="350.2" type="curve" smooth="yes"/>
      <point x="342.2" y="615.0"/>
      <point x="292.8" y="710.0"/>
    </contour>
    <contour>
      <point x="109.2" y="340.0" type="curve" smooth="yes"/>
      <point x="109.2" y="217.2"/>
      <point x="137.8" y="156.4"/>
      <point x="197.8" y="156.4" type="curve" smooth="yes"/>
      <point x="210.0" y="156.4"/>
      <point x="228.2" y="158.2"/>
      <point x="243.0" y="163.0" type="curve"/>
      <point x="236.0" y="200.8" type="line"/>
      <point x="225.0" y="197.6"/>
      <point x="209.0" y="196.4"/>
      <point x="200.8" y="196.4" type="curve" smooth="yes"/>
      <point x="162.6" y="196.4"/>
      <point x="151.4" y="249.6"/>
      <point x="151.4" y="338.6" type="curve" smooth="yes"/>
      <point x="151.4" y="452.6"/>
      <point x="166.6" y="493.4"/>
      <point x="203.4" y="493.4" type="curve" smooth="yes"/>
      <point x="212.4" y="493.4"/>
      <point x="224.4" y="492.2"/>
      <point x="234.6" y="489.0" type="curve"/>
      <point x="242.2" y="526.0" type="line"/>
      <point x="229.2" y="531.4"/>
      <point x="212.2" y="533.4"/>
      <point x="198.6" y="533.4" type="curve" smooth="yes"/>
      <point x="142.2" y="533.4"/>
      <point x="109.2" y="484.2"/>
    </contour>
  </outline>
</glyph>
<glyph name="ordfeminine" format="2">
  <advance width="210.0"/>
  <unicode hex="00AA"/>
  <outline>
    <contour>
      <point x="23.2" y="289.8" type="line"/>
      <point x="189.0" y="289.8" type="line"/>
      <point x="189.0" y="321.4" type="line"/>
      <point x="23.2" y="321.4" type="line"/>
    </contour>
    <component base="a.superior" xOffset="11.2"/>
  </outline>
</glyph>
<glyph name="logicalnot" format="2">
  <advance width="380.0"/>
  <unicode hex="00AC"/>
  <outline>
    <contour>
      <point x="42.8" y="364.6" type="line"/>
      <point x="290.0" y="364.6" type="line"/>
      <point x="290.0" y="177.4" type="line"/>
      <point x="338.0" y="177.4" type="line"/>
      <point x="338.0" y="412.6" type="line"/>
      <point x="42.8" y="412.6" type="line"/>
    </contour>
  </outline>
</glyph>
<glyph name="registered" format="2">
  <advance width="359.2"/>
  <unicode hex="00AE"/>
  <outline>
    <contour>
      <point x="180.0" y="208.0" type="curve" smooth="yes"/>
      <point x="280.0" y="208.0"/>
      <point x="326.6" y="299.6"/>
      <point x="326.6" y="550.2" type="curve" smooth="yes"/>
      <point x="326.6" y="801.8"/>
      <point x="280.0" y="892.0"/>
      <point x="180.0" y="892.0" type="curve" smooth="yes"/>
      <point x="80.0" y="892.0"/>
      <point x="32.6" y="801.8"/>
      <point x="32.6" y="550.2" type="curve" smooth="yes"/>
      <point x="32.6" y="299.6"/>
      <point x="80.0" y="208.0"/>
    </contour>
    <contour>
      <point x="180.0" y="231.2" type="curve" smooth="yes"/>
      <point x="96.6" y="231.2"/>
      <point x="56.8" y="315.4"/>
      <point x="56.8" y="550.2" type="curve" smooth="yes"/>
      <point x="56.8" y="785.8"/>
      <point x="96.6" y="869.2"/>
      <point x="180.0" y="869.2" type="curve" smooth="yes"/>
      <point x="264.0" y="869.2"/>
      <point x="303.0" y="785.8"/>
      <point x="303.0" y="550.2" type="curve" smooth="yes"/>
      <point x="303.0" y="315.4"/>
      <point x="264.0" y="231.2"/>
    </contour>
    <contour>
      <point x="249.2" y="387.4" type="curve" smooth="yes"/>
      <point x="252.8" y="387.4"/>
      <point x="255.6" y="387.4"/>
      <point x="260.8" y="388.4" type="curve"/>
      <point x="258.4" y="427.8" type="line"/>
      <point x="256.4" y="427.0"/>
      <point x="255.0" y="427.0"/>
      <point x="253.0" y="427.0" type="curve" smooth="yes"/>
      <point x="237.4" y="427.0"/>
      <point x="232.4" y="455.8"/>
      <point x="214.8" y="533.0" type="curve"/>
      <point x="242.8" y="549.6"/>
      <point x="248.0" y="588.6"/>
      <point x="248.0" y="633.2" type="curve" smooth="yes"/>
      <point x="248.0" y="700.6"/>
      <point x="224.6" y="728.8"/>
      <point x="177.4" y="728.8" type="curve" smooth="yes"/>
      <point x="158.8" y="728.8"/>
      <point x="140.0" y="726.6"/>
      <point x="119.4" y="722.8" type="curve"/>
      <point x="119.4" y="390.2" type="line"/>
      <point x="156.2" y="390.2" type="line"/>
      <point x="156.2" y="522.0" type="line"/>
      <point x="161.8" y="521.2"/>
      <point x="167.6" y="520.4"/>
      <point x="172.4" y="520.4" type="curve" smooth="yes"/>
      <point x="175.8" y="520.4"/>
      <point x="179.0" y="520.4"/>
      <point x="182.4" y="521.2" type="curve"/>
      <point x="211.0" y="398.2"/>
      <point x="221.8" y="387.4"/>
    </contour>
    <contour>
      <point x="171.4" y="550.2" type="curve" smooth="yes"/>
      <point x="166.6" y="550.2"/>
      <point x="161.2" y="550.2"/>
      <point x="156.2" y="551.2" type="curve"/>
      <point x="156.2" y="690.6" type="line"/>
      <point x="164.6" y="692.6"/>
      <point x="172.2" y="693.4"/>
      <point x="177.4" y="693.4" type="curve" smooth="yes"/>
      <point x="209.8" y="693.4"/>
      <point x="210.4" y="665.2"/>
      <point x="210.4" y="627.6" type="curve" smooth="yes"/>
      <point x="210.4" y="583.8"/>
      <point x="209.4" y="550.2"/>
    </contour>
  </outline>
</glyph>
<glyph name="degree" format="2">
  <advance width="238.4"/>
  <unicode hex="00B0"/>
  <outline>
    <contour>
      <point x="118.4" y="490.4" type="curve" smooth="yes"/>
      <point x="179.4" y="490.4"/>
      <point x="210.4" y="541.8"/>
      <point x="210.4" y="606.6" type="curve" smooth="yes"/>
      <point x="210.4" y="670.0"/>
      <point x="180.6" y="724.4"/>
      <point x="118.4" y="724.4" type="curve" smooth="yes"/>
      <point x="56.2" y="724.4"/>
      <point x="28.0" y="670.0"/>
      <point x="28.0" y="606.6" type="curve" smooth="yes"/>
      <point x="28.0" y="541.8"/>
      <point x="57.4" y="490.4"/>
    </contour>
    <contour>
      <point x="118.4" y="531.6" type="curve" smooth="yes"/>
      <point x="82.4" y="531.6"/>
      <point x="66.8" y="564.4"/>
      <point x="66.8" y="606.4" type="curve" smooth="yes"/>
      <point x="66.8" y="648.0"/>
      <point x="82.2" y="682.4"/>
      <point x="118.4" y="682.4" type="curve" smooth="yes"/>
      <point x="154.6" y="682.4"/>
      <point x="171.6" y="648.0"/>
      <point x="171.6" y="606.4" type="curve" smooth="yes"/>
      <point x="171.6" y="564.4"/>
      <point x="154.4" y="531.6"/>
    </contour>
  </outline>
</glyph>
<glyph name="plusminus" format="2">
  <advance width="405.6"/>
  <unicode hex="00B1"/>
  <outline>
    <contour>
      <point x="39.6" y="57.6" type="line"/>
      <point x="366.0" y="57.6" type="line"/>
      <point x="366.0" y="105.6" type="line"/>
      <point x="226.8" y="105.6" type="line"/>
      <point x="226.8" y="286.6" type="line"/>
      <point x="366.0" y="286.6" type="line"/>
      <point x="366.0" y="334.6" type="line"/>
      <point x="226.8" y="334.6" type="line"/>
      <point x="226.8" y="499.4" type="line"/>
      <point x="178.8" y="499.4" type="line"/>
      <point x="178.8" y="334.6" type="line"/>
      <point x="39.6" y="334.6" type="line"/>
      <point x="39.6" y="286.6" type="line"/>
      <point x="178.8" y="286.6" type="line"/>
      <point x="178.8" y="105.6" type="line"/>
      <point x="39.6" y="105.6" type="line"/>
    </contour>
  </outline>
</glyph>
<glyph name="uni00B2" format="2">
  <advance width="229.0"/>
  <unicode hex="00B2"/>
  <outline>
    <contour>
      <point x="48.6" y="370.0" type="line"/>
      <point x="188.4" y="370.0" type="line"/>
      <point x="188.4" y="401.0" type="line"/>
      <point x="85.8" y="401.0" type="line"/>
      <point x="148.8" y="538.4"/>
      <point x="173.2" y="610.6"/>
      <point x="173.2" y="669.6" type="curve" smooth="yes"/>
      <point x="173.2" y="737.4"/>
      <point x="148.0" y="775.8"/>
      <point x="103.8" y="775.8" type="curve" smooth="yes"/>
      <point x="79.6" y="775.8"/>
      <point x="58.8" y="768.6"/>
      <point x="38.8" y="744.8" type="curve"/>
      <point x="53.2" y="714.4" type="line"/>
      <point x="68.4" y="734.6"/>
      <point x="81.2" y="737.8"/>
      <point x="97.8" y="737.8" type="curve" smooth="yes"/>
      <point x="121.4" y="737.8"/>
      <point x="136.8" y="707.4"/>
      <point x="136.8" y="661.2" type="curve" smooth="yes"/>
      <point x="136.8" y="610.4"/>
      <point x="105.6" y="524.0"/>
      <point x="46.2" y="397.8" type="curve"/>
    </contour>
  </outline>
</glyph>
<glyph name="uni00B3" format="2">
  <advance width="231.6"/>
  <unicode hex="00B3"/>
  <outline>
    <contour>
      <point x="40.8" y="386.0" type="line"/>
      <point x="59.8" y="369.0"/>
      <point x="79.2" y="361.2"/>
      <point x="106.2" y="361.2" type="curve" smooth="yes"/>
      <point x="158.2" y="361.2"/>
      <point x="189.4" y="406.4"/>
      <point x="189.4" y="481.8" type="curve" smooth="yes"/>
      <point x="189.4" y="531.8"/>
      <point x="174.8" y="567.6"/>
      <point x="143.8" y="579.6" type="curve"/>
      <point x="168.4" y="593.8"/>
      <point x="181.0" y="628.8"/>
      <point x="181.0" y="670.8" type="curve" smooth="yes"/>
      <point x="181.0" y="734.2"/>
      <point x="152.0" y="774.6"/>
      <point x="106.2" y="774.6" type="curve" smooth="yes"/>
      <point x="83.2" y="774.6"/>
      <point x="62.2" y="766.8"/>
      <point x="46.6" y="751.8" type="curve"/>
      <point x="60.2" y="725.4" type="line"/>
      <point x="70.2" y="734.6"/>
      <point x="82.0" y="738.6"/>
      <point x="99.0" y="738.6" type="curve" smooth="yes"/>
      <point x="128.6" y="738.6"/>
      <point x="145.6" y="710.4"/>
      <point x="145.6" y="663.0" type="curve" smooth="yes"/>
      <point x="145.6" y="623.4"/>
      <point x="135.0" y="591.0"/>
      <point x="104.4" y="591.0" type="curve" smooth="yes"/>
      <point x="80.0" y="591.0" type="line"/>
      <point x="80.0" y="561.0" type="line"/>
      <point x="105.2" y="561.0" type="line" smooth="yes"/>
      <point x="141.8" y="561.0"/>
      <point x="152.2" y="530.8"/>
      <point x="152.2" y="484.2" type="curve" smooth="yes"/>
      <point x="152.2" y="428.4"/>
      <point x="133.4" y="395.8"/>
      <point x="101.8" y="395.8" type="curve" smooth="yes"/>
      <point x="81.8" y="395.8"/>
      <point x="69.8" y="401.2"/>
      <point x="56.6" y="413.6" type="curve"/>
    </contour>
  </outline>
</glyph>
<glyph name="uni00B5" format="2">
  <advance width="302.2"/>
  <unicode hex="00B5"/>
  <outline>
    <contour>
      <point x="39.0" y="-210.0" type="line"/>
      <point x="88.2" y="-210.0" type="line"/>
      <point x="88.2" y="13.399999999999999" type="line"/>
      <point x="100.2" y="-4.4"/>
      <point x="117.4" y="-9.6"/>
      <point x="136.0" y="-9.6" type="curve" smooth="yes"/>
      <point x="161.2" y="-9.6"/>
      <point x="190.4" y="1.2000000000000002"/>
      <point x="210.8" y="16.2" type="curve"/>
      <point x="217.2" y="0.8"/>
      <point x="231.2" y="-10.0"/>
      <point x="255.6" y="-10.0" type="curve" smooth="yes"/>
      <point x="272.8" y="-10.0"/>
      <point x="287.4" y="-6.0"/>
      <point x="303.4" y="2.2" type="curve"/>
      <point x="295.6" y="45.8" type="line"/>
      <point x="287.0" y="41.6"/>
      <point x="278.6" y="39.8"/>
      <point x="270.6" y="39.8" type="curve" smooth="yes"/>
      <point x="258.8" y="39.8"/>
      <point x="253.4" y="47.0"/>
      <point x="253.4" y="64.8" type="curve" smooth="yes"/>
      <point x="253.4" y="534.0" type="line"/>
      <point x="202.4" y="534.0" type="line"/>
      <point x="202.4" y="60.2" type="line"/>
      <point x="187.0" y="47.2"/>
      <point x="159.4" y="38.0"/>
      <point x="142.2" y="38.0" type="curve" smooth="yes"/>
      <point x="107.8" y="38.0"/>
      <point x="90.2" y="60.0"/>
      <point x="90.2" y="102.0" type="curve" smooth="yes"/>
      <point x="90.2" y="534.0" type="line"/>
      <point x="39.0" y="534.0" type="line"/>
    </contour>
  </outline>
</glyph>
<glyph name="paragraph" format="2">
  <advance width="414.2"/>
  <unicode hex="00B6"/>
  <outline>
    <contour>
      <point x="331.6" y="-210.0" type="line"/>
      <point x="374.8" y="-210.0" type="line"/>
      <point x="374.8" y="740.0" type="line"/>
      <point x="331.6" y="740.0" type="line"/>
    </contour>
    <contour>
      <point x="170.2" y="231.4" type="line"/>
      <point x="99.6" y="248.4"/>
      <point x="65.4" y="336.2"/>
      <point x="65.4" y="462.2" type="curve" smooth="yes"/>
      <point x="65.4" y="588.8"/>
      <point x="108.8" y="689.2"/>
      <point x="206.2" y="693.2" type="curve"/>
      <point x="206.2" y="-210.0" type="line"/>
      <point x="249.4" y="-210.0" type="line"/>
      <point x="249.4" y="740.0" type="line"/>
      <point x="220.6" y="740.0" type="line" smooth="yes"/>
      <point x="74.6" y="740.0"/>
      <point x="18.2" y="611.8"/>
      <point x="18.2" y="463.2" type="curve" smooth="yes"/>
      <point x="18.2" y="320.8"/>
      <point x="62.6" y="215.8"/>
      <point x="165.2" y="191.6" type="curve"/>
    </contour>
  </outline>
</glyph>
<glyph name="periodcentered" format="2">
  <advance width="112.0"/>
  <unicode hex="00B7"/>
  <outline>
    <contour>
      <point x="26.2" y="295.4" type="curve" smooth="yes"/>
      <point x="26.2" y="267.0"/>
      <point x="32.8" y="258.4"/>
      <point x="56.2" y="258.4" type="curve" smooth="yes"/>
      <point x="80.2" y="258.4"/>
      <point x="85.8" y="267.0"/>
      <point x="85.8" y="295.4" type="curve" smooth="yes"/>
      <point x="85.8" y="323.8"/>
      <point x="80.2" y="332.4"/>
      <point x="56.2" y="332.4" type="curve" smooth="yes"/>
      <point x="31.8" y="332.4"/>
      <point x="26.2" y="323.8"/>
    </contour>
  </outline>
</glyph>
<glyph name="uni00B9" format="2">
  <advance width="213.8"/>
  <unicode hex="00B9"/>
  <outline>
    <contour>
      <point x="27.4" y="370.0" type="line"/>
      <point x="189.2" y="370.0" type="line"/>
      <point x="189.2" y="401.8" type="line"/>
      <point x="130.0" y="401.8" type="line"/>
      <point x="130.0" y="769.8" type="line"/>
      <point x="111.0" y="769.8" type="line"/>
      <point x="25.2" y="708.8" type="line"/>
      <point x="35.0" y="675.8" type="line"/>
      <point x="92.8" y="722.4" type="line"/>
      <point x="92.8" y="401.8" type="line"/>
      <point x="27.4" y="401.8" type="line"/>
    </contour>
  </outline>
</glyph>
<glyph name="ordmasculine" format="2">
  <advance width="227.6"/>
  <unicode hex="00BA"/>
  <outline>
    <contour>
      <point x="31.8" y="289.8" type="line"/>
      <point x="197.6" y="289.8" type="line"/>
      <point x="197.6" y="321.4" type="line"/>
      <point x="31.8" y="321.4" type="line"/>
    </contour>
    <component base="o.superior" xOffset="17.6"/>
  </outline>
</glyph>
<glyph name="questiondown" format="2">
  <advance width="257.8"/>
  <unicode hex="00BF"/>
  <outline>
    <contour>
      <point x="182.4" y="268.8" type="line"/>
      <point x="135.8" y="268.8" type="line"/>
      <point x="135.8" y="191.8" type="line"/>
      <point x="66.0" y="119.4"/>
      <point x="31.8" y="68.0"/>
      <point x="31.8" y="-40.4" type="curve" smooth="yes"/>
      <point x="31.8" y="-160.4"/>
      <point x="87.8" y="-218.0"/>
      <point x="161.4" y="-218.0" type="curve" smooth="yes"/>
      <point x="201.8" y="-218.0"/>
      <point x="239.6" y="-197.2"/>
      <point x="267.6" y="-166.0" type="curve"/>
      <point x="245.4" y="-122.4" type="line"/>
      <point x="216.8" y="-152.8"/>
      <point x="191.2" y="-164.0"/>
      <point x="167.2" y="-164.0" type="curve" smooth="yes"/>
      <point x="119.2" y="-164.0"/>
      <point x="85.0" y="-112.8"/>
      <point x="85.0" y="-34.4" type="curve" smooth="yes"/>
      <point x="85.0" y="44.8"/>
      <point x="106.6" y="96.6"/>
      <point x="183.2" y="169.0" type="curve"/>
    </contour>
    <contour>
      <point x="189.6" y="496.8" type="curve" smooth="yes"/>
      <point x="189.6" y="525.2"/>
      <point x="181.8" y="533.8"/>
      <point x="159.0" y="533.8" type="curve" smooth="yes"/>
      <point x="135.8" y="533.8"/>
      <point x="129.2" y="525.2"/>
      <point x="129.2" y="496.8" type="curve" smooth="yes"/>
      <point x="129.2" y="468.2"/>
      <point x="135.8" y="459.6"/>
      <point x="159.0" y="459.6" type="curve" smooth="yes"/>
      <point x="183.4" y="459.6"/>
      <point x="189.6" y="468.2"/>
    </contour>
  </outline>
</glyph>
<glyph name="AE" format="2">
  <advance width="476.8"/>
  <unicode hex="00C6"/>
  <anchor x="273.8" y="700.0" name="top"/>
  <outline>
    <contour>
      <point x="16.4" y="0.0" type="line"/>
      <point x="71.0" y="-0.8" type="line"/>
      <point x="151.4" y="281.0" type="line"/>
      <point x="252.0" y="281.0" type="line"/>
      <point x="252.0" y="0.0" type="line"/>
      <point x="465.6" y="0.0" type="line"/>
      <point x="465.6" y="51.6" type="line"/>
      <point x="301.8" y="51.6" type="line"/>
      <point x="301.8" y="312.8" type="line"/>
      <point x="438.8" y="312.8" type="line"/>
      <point x="438.8" y="362.4" type="line"/>
      <point x="301.8" y="362.4" type="line"/>
      <point x="301.8" y="647.4" type="line"/>
      <point x="455.4" y="647.4" type="line"/>
      <point x="455.4" y="700.0" type="line"/>
      <point x="216.0" y="700.0" type="line"/>
    </contour>
    <contour>
      <point x="161.6" y="331.2" type="line"/>
      <point x="251.6" y="660.8" type="line"/>
      <point x="251.6" y="331.2" type="line"/>
    </contour>
  </outline>
</glyph>
<glyph name="multiply" format="2">
  <advance width="364.0"/>
  <unicode hex="00D7"/>
  <outline>
    <contour>
      <point x="86.4" y="93.2" type="line"/>
      <point x="181.2" y="259.2" type="line"/>
      <point x="277.6" y="94.0" type="line"/>
      <point x="314.6" y="123.80000000000001" type="line"/>
      <point x="213.4" y="298.6" type="line"/>
      <point x="313.8" y="475.0" type="line"/>
      <point x="276.8" y="504.8" type="line"/>
      <point x="181.2" y="338.8" type="line"/>
      <point x="86.4" y="504.8" type="line"/>
      <point x="49.4" y="475.0" type="line"/>
      <point x="149.8" y="298.6" type="line"/>
      <point x="49.4" y="123.0" type="line"/>
    </contour>
  </outline>
</glyph>
<glyph name="Oslash" format="2">
  <advance width="323.8"/>
  <unicode hex="00D8"/>
  <anchor x="161.8" y="700.0" name="top"/>
  <outline>
    <contour>
      <point x="61.0" y="-10.0" type="line"/>
      <point x="81.8" y="54.0" type="line"/>
      <point x="88.4" y="59.6" type="line"/>
      <point x="258.8" y="599.6" type="line"/>
      <point x="265.0" y="605.4" type="line"/>
      <point x="300.2" y="712.0" type="line"/>
      <point x="263.6" y="712.0" type="line"/>
      <point x="240.0" y="639.4" type="line"/>
      <point x="233.4" y="633.8" type="line"/>
      <point x="65.4" y="102.4" type="line"/>
      <point x="60.2" y="99.0" type="line"/>
      <point x="24.4" y="-10.0" type="line"/>
    </contour>
    <contour>
      <point x="161.8" y="36.400000000000006" type="curve" smooth="yes"/>
      <point x="99.2" y="36.400000000000006"/>
      <point x="75.2" y="97.4"/>
      <point x="75.2" y="349.0" type="curve" smooth="yes"/>
      <point x="75.2" y="602.2"/>
      <point x="99.2" y="663.6"/>
      <point x="161.8" y="663.6" type="curve" smooth="yes"/>
      <point x="225.4" y="663.6"/>
      <point x="249.4" y="602.6"/>
      <point x="249.4" y="349.4" type="curve" smooth="yes"/>
      <point x="249.4" y="97.8"/>
      <point x="225.4" y="36.400000000000006"/>
    </contour>
    <contour>
      <point x="161.8" y="-10.0" type="curve" smooth="yes"/>
      <point x="258.6" y="-10.0"/>
      <point x="299.8" y="64.2"/>
      <point x="299.8" y="349.8" type="curve" smooth="yes"/>
      <point x="299.8" y="636.2"/>
      <point x="259.0" y="710.0"/>
      <point x="161.8" y="710.0" type="curve" smooth="yes"/>
      <point x="65.6" y="710.0"/>
      <point x="24.8" y="635.8"/>
      <point x="24.8" y="349.0" type="curve" smooth="yes"/>
      <point x="24.8" y="63.8"/>
      <point x="65.6" y="-10.0"/>
    </contour>
  </outline>
</glyph>
<glyph name="Thorn" format="2">
  <advance width="285.8"/>
  <unicode hex="00DE"/>
  <outline>
    <contour>
      <point x="38.8" y="0.0" type="line"/>
      <point x="90.0" y="0.0" type="line"/>
      <point x="90.0" y="168.8" type="line"/>
      <point x="103.6" y="167.2"/>
      <point x="116.4" y="167.2"/>
      <point x="133.6" y="167.2" type="curve" smooth="yes"/>
      <point x="225.2" y="167.2"/>
      <point x="271.0" y="235.8"/>
      <point x="271.0" y="398.6" type="curve" smooth="yes"/>
      <point x="271.0" y="555.8"/>
      <point x="236.2" y="611.4"/>
      <point x="128.0" y="611.4" type="curve" smooth="yes"/>
      <point x="116.0" y="611.4"/>
      <point x="103.8" y="610.6"/>
      <point x="90.2" y="609.0" type="curve"/>
      <point x="90.2" y="700.0" type="line"/>
      <point x="38.8" y="700.0" type="line"/>
    </contour>
    <contour>
      <point x="127.8" y="218.2" type="curve" smooth="yes"/>
      <point x="113.6" y="218.2"/>
      <point x="102.4" y="218.2"/>
      <point x="90.2" y="219.4" type="curve"/>
      <point x="90.2" y="559.6" type="line"/>
      <point x="105.2" y="562.6"/>
      <point x="119.2" y="563.4"/>
      <point x="131.2" y="563.4" type="curve" smooth="yes"/>
      <point x="203.2" y="563.4"/>
      <point x="219.8" y="516.8"/>
      <point x="219.8" y="398.6" type="curve" smooth="yes"/>
      <point x="219.8" y="273.0"/>
      <point x="190.6" y="218.2"/>
    </contour>
  </outline>
</glyph>
<glyph name="germandbls" format="2">
  <advance width="368.6"/>
  <unicode hex="00DF"/>
  <outline>
    <contour>
      <point x="66.2" y="0.0" type="line"/>
      <point x="117.0" y="0.0" type="line"/>
      <point x="117.0" y="542.0" type="line" smooth="yes"/>
      <point x="117.0" y="649.2"/>
      <point x="146.4" y="701.0"/>
      <point x="212.0" y="701.0" type="curve" smooth="yes"/>
      <point x="255.8" y="701.0"/>
      <point x="283.6" y="674.6"/>
      <point x="283.6" y="630.2" type="curve" smooth="yes"/>
      <point x="283.6" y="591.8"/>
      <point x="272.0" y="569.6"/>
      <point x="230.6" y="533.2" type="curve" smooth="yes"/>
      <point x="190.6" y="498.0"/>
      <point x="168.6" y="456.4"/>
      <point x="168.6" y="407.0" type="curve" smooth="yes"/>
      <point x="168.6" y="341.6"/>
      <point x="186.4" y="310.0"/>
      <point x="246.2" y="250.4" type="curve" smooth="yes"/>
      <point x="300.2" y="195.4"/>
      <point x="316.0" y="165.8"/>
      <point x="316.0" y="122.4" type="curve" smooth="yes"/>
      <point x="316.0" y="72.4"/>
      <point x="288.4" y="38.0"/>
      <point x="236.8" y="38.0" type="curve" smooth="yes"/>
      <point x="205.4" y="38.0"/>
      <point x="182.2" y="44.8"/>
      <point x="160.8" y="54.8" type="curve"/>
      <point x="147.6" y="11.0" type="line"/>
      <point x="170.6" y="-2.6"/>
      <point x="205.4" y="-10.0"/>
      <point x="240.8" y="-10.0" type="curve" smooth="yes"/>
      <point x="317.4" y="-10.0"/>
      <point x="364.0" y="41.4"/>
      <point x="364.0" y="124.8" type="curve" smooth="yes"/>
      <point x="364.0" y="188.0"/>
      <point x="340.0" y="231.8"/>
      <point x="279.4" y="290.6" type="curve" smooth="yes"/>
      <point x="227.8" y="342.8"/>
      <point x="217.8" y="368.0"/>
      <point x="217.8" y="409.8" type="curve" smooth="yes"/>
      <point x="217.8" y="444.6"/>
      <point x="233.8" y="475.4"/>
      <point x="268.6" y="505.8" type="curve" smooth="yes"/>
      <point x="316.6" y="546.0"/>
      <point x="336.4" y="581.4"/>
      <point x="336.4" y="631.8" type="curve" smooth="yes"/>
      <point x="336.4" y="706.2"/>
      <point x="289.2" y="750.0"/>
      <point x="210.4" y="750.0" type="curve" smooth="yes"/>
      <point x="115.4" y="750.0"/>
      <point x="66.2" y="681.0"/>
      <point x="66.2" y="554.0" type="curve" smooth="yes"/>
      <point x="66.2" y="493.8" type="line"/>
      <point x="9.8" y="487.4" type="line"/>
      <point x="9.8" y="447.8" type="line"/>
      <point x="66.2" y="447.8" type="line"/>
    </contour>
  </outline>
</glyph>
<glyph name="ae" format="2">
  <advance width="437.2"/>
  <unicode hex="00E6"/>
  <anchor x="219.0" y="534.0" name="top"/>
  <outline>
    <contour>
      <point x="103.0" y="-10.0" type="curve" smooth="yes"/>
      <point x="142.8" y="-10.0"/>
      <point x="178.8" y="12.2"/>
      <point x="215.2" y="58.8" type="curve"/>
      <point x="216.2" y="58.8" type="line"/>
      <point x="237.4" y="12.0"/>
      <point x="267.8" y="-10.0"/>
      <point x="313.6" y="-10.0" type="curve" smooth="yes"/>
      <point x="347.6" y="-10.0"/>
      <point x="378.8" y="-3.4"/>
      <point x="407.6" y="10.4" type="curve"/>
      <point x="398.8" y="56.6" type="line"/>
      <point x="372.8" y="46.4"/>
      <point x="343.4" y="40.6"/>
      <point x="321.2" y="40.6" type="curve" smooth="yes"/>
      <point x="260.8" y="40.6"/>
      <point x="236.2" y="89.2"/>
      <point x="236.2" y="252.0" type="curve" smooth="yes"/>
      <point x="236.2" y="257.4"/>
      <point x="236.2" y="262.6"/>
      <point x="236.2" y="268.0" type="curve"/>
      <point x="314.8" y="269.0"/>
      <point x="379.4" y="281.8"/>
      <point x="415.4" y="287.8" type="curve"/>
      <point x="415.6" y="294.4"/>
      <point x="416.6" y="304.0"/>
      <point x="416.6" y="319.8" type="curve" smooth="yes"/>
      <point x="416.6" y="472.4"/>
      <point x="381.8" y="544.0"/>
      <point x="304.4" y="544.0" type="curve" smooth="yes"/>
      <point x="259.0" y="544.0"/>
      <point x="230.2" y="509.8"/>
      <point x="215.0" y="452.4" type="curve"/>
      <point x="214.0" y="452.4" type="line"/>
      <point x="207.0" y="511.6"/>
      <point x="176.8" y="544.0"/>
      <point x="124.0" y="544.0" type="curve" smooth="yes"/>
      <point x="95.0" y="544.0"/>
      <point x="61.4" y="537.0"/>
      <point x="31.8" y="524.4" type="curve"/>
      <point x="44.8" y="477.4" type="line"/>
      <point x="73.6" y="488.2"/>
      <point x="98.4" y="491.4"/>
      <point x="120.8" y="491.4" type="curve" smooth="yes"/>
      <point x="162.6" y="491.4"/>
      <point x="185.4" y="463.4"/>
      <point x="185.4" y="406.0" type="curve" smooth="yes"/>
      <point x="185.4" y="305.0" type="line"/>
      <point x="56.6" y="268.2"/>
      <point x="8.0" y="217.8"/>
      <point x="8.0" y="117.6" type="curve" smooth="yes"/>
      <point x="8.0" y="37.6"/>
      <point x="43.6" y="-10.0"/>
    </contour>
    <contour>
      <point x="116.0" y="34.2" type="curve" smooth="yes"/>
      <point x="79.6" y="34.2"/>
      <point x="58.0" y="67.4"/>
      <point x="58.0" y="125.2" type="curve" smooth="yes"/>
      <point x="58.0" y="197.4"/>
      <point x="98.6" y="242.0"/>
      <point x="185.6" y="268.2" type="curve"/>
      <point x="185.6" y="258.6"/>
      <point x="185.6" y="249.2"/>
      <point x="185.6" y="239.6" type="curve" smooth="yes"/>
      <point x="185.6" y="178.4"/>
      <point x="191.2" y="129.4"/>
      <point x="196.8" y="94.6" type="curve"/>
      <point x="174.2" y="58.0"/>
      <point x="142.4" y="34.2"/>
    </contour>
    <contour>
      <point x="235.8" y="304.0" type="curve"/>
      <point x="235.2" y="444.2"/>
      <point x="257.8" y="500.6"/>
      <point x="302.0" y="500.6" type="curve" smooth="yes"/>
      <point x="345.2" y="500.6"/>
      <point x="365.8" y="442.2"/>
      <point x="366.2" y="318.0" type="curve"/>
      <point x="341.4" y="310.6"/>
      <point x="276.4" y="304.0"/>
    </contour>
  </outline>
</glyph>
<glyph name="eth" format="2">
  <advance width="281.2"/>
  <unicode hex="00F0"/>
  <outline>
    <contour>
      <point x="215.2" y="480.6" type="curve"/>
      <point x="218.8" y="522.2" type="line"/>
      <point x="203.8" y="534.0"/>
      <point x="183.0" y="540.0"/>
      <point x="160.4" y="540.0" type="curve" smooth="yes"/>
      <point x="61.8" y="540.0"/>
      <point x="25.4" y="455.6"/>
      <point x="25.4" y="254.0" type="curve" smooth="yes"/>
      <point x="25.4" y="62.4"/>
      <point x="58.2" y="-10.0"/>
      <point x="139.8" y="-10.0" type="curve" smooth="yes"/>
      <point x="229.4" y="-10.0"/>
      <point x="257.0" y="64.6"/>
      <point x="257.0" y="324.8" type="curve" smooth="yes"/>
      <point x="257.0" y="602.0"/>
      <point x="225.0" y="718.0"/>
      <point x="97.4" y="718.0" type="curve" smooth="yes"/>
      <point x="71.2" y="718.0"/>
      <point x="51.2" y="713.0"/>
      <point x="25.6" y="704.8" type="curve"/>
      <point x="34.4" y="668.2" type="line"/>
      <point x="53.0" y="674.2"/>
      <point x="67.0" y="678.0"/>
      <point x="87.4" y="678.0" type="curve" smooth="yes"/>
      <point x="181.4" y="678.0"/>
      <point x="206.0" y="600.4"/>
      <point x="206.0" y="329.2" type="curve" smooth="yes"/>
      <point x="206.0" y="92.0"/>
      <point x="192.2" y="30.400000000000002"/>
      <point x="142.0" y="30.400000000000002" type="curve" smooth="yes"/>
      <point x="93.2" y="30.400000000000002"/>
      <point x="77.8" y="88.4"/>
      <point x="77.8" y="254.0" type="curve" smooth="yes"/>
      <point x="77.8" y="436.8"/>
      <point x="103.6" y="498.8"/>
      <point x="166.8" y="498.8" type="curve" smooth="yes"/>
      <point x="182.4" y="498.8"/>
      <point x="200.0" y="495.8"/>
    </contour>
    <contour>
      <point x="90.6" y="563.6" type="line"/>
      <point x="183.6" y="644.8" type="line"/>
      <point x="186.6" y="648.6" type="line"/>
      <point x="271.4" y="722.8" type="line"/>
      <point x="225.8" y="722.8" type="line"/>
      <point x="170.8" y="675.2" type="line"/>
      <point x="169.2" y="672.4" type="line"/>
      <point x="44.4" y="563.6" type="line"/>
    </contour>
  </outline>
</glyph>
<glyph name="divide" format="2">
  <advance width="380.0"/>
  <unicode hex="00F7"/>
  <outline>
    <contour>
      <point x="161.0" y="109.0" type="curve" smooth="yes"/>
      <point x="161.0" y="84.6"/>
      <point x="166.6" y="77.6"/>
      <point x="190.2" y="77.6" type="curve" smooth="yes"/>
      <point x="213.4" y="77.6"/>
      <point x="219.4" y="84.6"/>
      <point x="219.4" y="109.0" type="curve" smooth="yes"/>
      <point x="219.4" y="133.4"/>
      <point x="212.8" y="140.4"/>
      <point x="190.2" y="140.4" type="curve" smooth="yes"/>
      <point x="166.6" y="140.4"/>
      <point x="161.0" y="133.4"/>
    </contour>
    <contour>
      <point x="161.0" y="485.4" type="curve" smooth="yes"/>
      <point x="161.0" y="461.0"/>
      <point x="167.2" y="454.4"/>
      <point x="190.2" y="454.4" type="curve" smooth="yes"/>
      <point x="213.4" y="454.4"/>
      <point x="219.4" y="461.0"/>
      <point x="219.4" y="485.4" type="curve" smooth="yes"/>
      <point x="219.4" y="510.2"/>
      <point x="213.4" y="516.8"/>
      <point x="190.2" y="516.8" type="curve" smooth="yes"/>
      <point x="166.6" y="516.8"/>
      <point x="161.0" y="510.2"/>
    </contour>
    <contour>
      <point x="39.8" y="273.4" type="line"/>
      <point x="340.6" y="273.4" type="line"/>
      <point x="340.6" y="321.4" type="line"/>
      <point x="39.8" y="321.4" type="line"/>
    </contour>
  </outline>
</glyph>
<glyph name="oslash" format="2">
  <advance width="285.6"/>
  <unicode hex="00F8"/>
  <anchor x="142.0" y="534.0" name="top"/>
  <outline>
    <contour>
      <point x="142.0" y="-10.0" type="curve" smooth="yes"/>
      <point x="53.4" y="-10.0"/>
      <point x="25.0" y="59.2"/>
      <point x="25.0" y="267.4" type="curve" smooth="yes"/>
      <point x="25.0" y="475.6"/>
      <point x="53.4" y="544.0"/>
      <point x="142.0" y="544.0" type="curve" smooth="yes"/>
      <point x="230.6" y="544.0"/>
      <point x="259.4" y="475.6"/>
      <point x="259.4" y="267.4" type="curve" smooth="yes"/>
      <point x="259.4" y="59.2"/>
      <point x="230.6" y="-10.0"/>
    </contour>
    <contour>
      <point x="142.4" y="35.2" type="curve" smooth="yes"/>
      <point x="190.6" y="35.2"/>
      <point x="209.0" y="78.8"/>
      <point x="209.0" y="267.4" type="curve" smooth="yes"/>
      <point x="209.0" y="456.0"/>
      <point x="190.6" y="499.2"/>
      <point x="142.4" y="499.2" type="curve" smooth="yes"/>
      <point x="93.8" y="499.2"/>
      <point x="75.8" y="456.0"/>
      <point x="75.8" y="267.4" type="curve" smooth="yes"/>
      <point x="75.8" y="78.8"/>
      <point x="93.8" y="35.2"/>
    </contour>
    <contour>
      <point x="23.0" y="-8.0" type="line"/>
      <point x="60.4" y="91.4" type="line"/>
      <point x="64.0" y="90.6" type="line"/>
      <point x="202.0" y="492.4" type="line"/>
      <point x="206.4" y="491.6" type="line"/>
      <point x="225.4" y="544.0" type="line"/>
      <point x="261.4" y="544.0" type="line"/>
      <point x="228.2" y="454.0" type="line"/>
      <point x="224.2" y="454.8" type="line"/>
      <point x="84.4" y="48.8" type="line"/>
      <point x="80.0" y="49.6" type="line"/>
      <point x="59.0" y="-8.0" type="line"/>
    </contour>
  </outline>
</glyph>
<glyph name="thorn" format="2">
  <advance width="287.8"/>
  <unicode hex="00FE"/>
  <outline>
    <contour>
      <point x="39.0" y="-210.0" type="line"/>
      <point x="89.6" y="-210.0" type="line"/>
      <point x="89.6" y="-3.6" type="line"/>
      <point x="105.4" y="-8.4"/>
      <point x="117.8" y="-10.0"/>
      <point x="129.6" y="-10.0" type="curve" smooth="yes"/>
      <point x="226.8" y="-10.0"/>
      <point x="262.6" y="68.0"/>
      <point x="262.6" y="279.6" type="curve" smooth="yes"/>
      <point x="262.6" y="453.4"/>
      <point x="227.6" y="544.0"/>
      <point x="158.4" y="544.0" type="curve" smooth="yes"/>
      <point x="135.8" y="544.0"/>
      <point x="106.4" y="534.6"/>
      <point x="90.0" y="523.0" type="curve"/>
      <point x="90.0" y="740.0" type="line"/>
      <point x="39.0" y="740.0" type="line"/>
    </contour>
    <contour>
      <point x="126.4" y="32.8" type="curve" smooth="yes"/>
      <point x="116.4" y="32.8"/>
      <point x="108.6" y="34.6"/>
      <point x="90.2" y="39.8" type="curve"/>
      <point x="90.2" y="476.8" type="line"/>
      <point x="111.0" y="491.2"/>
      <point x="123.2" y="495.6"/>
      <point x="142.6" y="495.6" type="curve" smooth="yes"/>
      <point x="186.6" y="495.6"/>
      <point x="209.4" y="422.4"/>
      <point x="209.4" y="275.4" type="curve" smooth="yes"/>
      <point x="209.4" y="90.4"/>
      <point x="189.0" y="32.8"/>
    </contour>
  </outline>
</glyph>
<glyph name="Dcroat" format="2">
  <advance width="322.2"/>
  <unicode hex="0110"/>
  <outline>
    <contour>
      <point x="5.0" y="333.6" type="line"/>
      <point x="182.0" y="333.6" type="line"/>
      <point x="182.0" y="382.2" type="line"/>
      <point x="5.0" y="382.2" type="line"/>
    </contour>
    <component base="D" xOffset="5.6"/>
  </outline>
</glyph>
<glyph name="dcroat" format="2">
  <advance width="289.4"/>
  <unicode hex="0111"/>
  <outline>
    <contour>
      <point x="120.0" y="615.4" type="line"/>
      <point x="290.2" y="615.4" type="line"/>
      <point x="290.2" y="650.6" type="line"/>
      <point x="120.0" y="650.6" type="line"/>
    </contour>
    <component base="d"/>
  </outline>
</glyph>
<glyph name="Hbar" format="2">
  <advance width="333.0"/>
  <unicode hex="0126"/>
  <outline>
    <contour>
      <point x="9.8" y="502.2" type="line"/>
      <point x="38.8" y="502.2" type="line"/>
      <point x="38.8" y="0.0" type="line"/>
      <point x="89.8" y="0.0" type="line"/>
      <point x="89.8" y="278.4" type="line"/>
      <point x="243.2" y="278.4" type="line"/>
      <point x="243.2" y="0.0" type="line"/>
      <point x="294.2" y="0.0" type="line"/>
      <point x="294.2" y="502.2" type="line"/>
      <point x="323.2" y="502.2" type="line"/>
      <point x="323.2" y="545.2" type="line"/>
      <point x="294.2" y="545.2" type="line"/>
      <point x="294.2" y="700.0" type="line"/>
      <point x="243.2" y="700.0" type="line"/>
      <point x="243.2" y="545.2" type="line"/>
      <point x="89.8" y="545.2" type="line"/>
      <point x="89.8" y="700.0" type="line"/>
      <point x="38.8" y="700.0" type="line"/>
      <point x="38.8" y="545.2" type="line"/>
      <point x="9.8" y="545.2" type="line"/>
    </contour>
    <contour>
      <point x="89.8" y="330.6" type="line"/>
      <point x="89.8" y="502.2" type="line"/>
      <point x="243.2" y="502.2" type="line"/>
      <point x="243.2" y="330.6" type="line"/>
    </contour>
  </outline>
</glyph>
<glyph name="hbar" format="2">
  <advance width="292.0"/>
  <unicode hex="0127"/>
  <outline>
    <contour>
      <point x="0.7999999999999998" y="615.4" type="line"/>
      <point x="166.8" y="615.4" type="line"/>
      <point x="166.8" y="650.6" type="line"/>
      <point x="0.7999999999999998" y="650.6" type="line"/>
    </contour>
    <component base="h"/>
  </outline>
</glyph>
<glyph name="Idotaccent" format="2">
  <advance width="128.6"/>
  <unicode hex="0130"/>
  <outline>
    <contour>
      <point x="64.6" y="789.4" type="curve" smooth="yes"/>
      <point x="88.6" y="789.4"/>
      <point x="95.4" y="797.6"/>
      <point x="95.4" y="825.0" type="curve" smooth="yes"/>
      <point x="95.4" y="852.8"/>
      <point x="88.2" y="860.8"/>
      <point x="64.6" y="860.8" type="curve" smooth="yes"/>
      <point x="40.8" y="860.8"/>
      <point x="33.6" y="852.8"/>
      <point x="33.6" y="825.0" type="curve" smooth="yes"/>
      <point x="33.6" y="797.4"/>
      <point x="41.6" y="789.4"/>
    </contour>
    <component base="I"/>
  </outline>
</glyph>
<glyph name="dotlessi" format="2">
  <advance width="129.6"/>
  <unicode hex="0131"/>
  <anchor x="89.8" y="2.0" name="ogonek"/>
  <anchor x="65.2" y="0.0" name="bottom"/>
  <anchor x="64.8" y="534.0" name="top"/>
  <outline>
    <contour>
      <point x="39.0" y="0.0" type="line"/>
      <point x="90.6" y="0.0" type="line"/>
      <point x="90.6" y="534.0" type="line"/>
      <point x="39.0" y="534.0" type="line"/>
    </contour>
  </outline>
</glyph>
<glyph name="kgreenlandic" format="2">
  <advance width="272.0"/>
  <unicode hex="0138"/>
  <anchor x="143.6" y="534.0" name="top"/>
  <anchor x="143.6" y="0.0" name="bottom"/>
  <outline>
    <contour>
      <point x="259.6" y="-6.8" type="curve" smooth="yes"/>
      <point x="267.2" y="-6.8"/>
      <point x="274.8" y="-5.2"/>
      <point x="281.2" y="-2.8" type="curve"/>
      <point x="279.6" y="52.2" type="line"/>
      <point x="276.0" y="51.6"/>
      <point x="271.4" y="50.6"/>
      <point x="267.8" y="50.6" type="curve" smooth="yes"/>
      <point x="250.4" y="50.6"/>
      <point x="242.8" y="58.6"/>
      <point x="186.2" y="166.4" type="curve" smooth="yes"/>
      <point x="88.0" y="352.6" type="line"/>
      <point x="88.0" y="534.0" type="line"/>
      <point x="39.2" y="534.0" type="line"/>
      <point x="39.2" y="0.0" type="line"/>
      <point x="88.0" y="0.0" type="line"/>
      <point x="88.0" y="259.2" type="line"/>
      <point x="165.8" y="109.0" type="line" smooth="yes"/>
      <point x="220.6" y="4.6"/>
      <point x="230.4" y="-6.8"/>
    </contour>
    <contour>
      <point x="132.8" y="231.2" type="line"/>
      <point x="183.8" y="311.8"/>
      <point x="241.2" y="411.6"/>
      <point x="260.0" y="533.2" type="curve"/>
      <point x="211.2" y="540.6" type="line"/>
      <point x="193.0" y="414.0"/>
      <point x="146.0" y="338.4"/>
      <point x="103.2" y="270.0" type="curve"/>
    </contour>
  </outline>
</glyph>
<glyph name="Ldot" format="2">
  <advance width="235.4"/>
  <unicode hex="013F"/>
  <outline>
    <contour>
      <point x="160.0" y="364.8" type="curve" smooth="yes"/>
      <point x="160.0" y="342.0"/>
      <point x="164.4" y="336.2"/>
      <point x="183.0" y="336.2" type="curve" smooth="yes"/>
      <point x="202.6" y="336.2"/>
      <point x="206.2" y="342.0"/>
      <point x="206.2" y="364.8" type="curve" smooth="yes"/>
      <point x="206.2" y="387.8"/>
      <point x="202.6" y="393.6"/>
      <point x="183.0" y="393.6" type="curve" smooth="yes"/>
      <point x="163.6" y="393.6"/>
      <point x="160.0" y="387.8"/>
    </contour>
    <component base="L"/>
  </outline>
</glyph>
<glyph name="ldot" format="2">
  <advance width="178.6"/>
  <unicode hex="0140"/>
  <outline>
    <contour>
      <point x="152.4" y="331.8" type="curve" smooth="yes"/>
      <point x="171.0" y="331.8"/>
      <point x="175.8" y="337.2"/>
      <point x="175.8" y="360.8" type="curve" smooth="yes"/>
      <point x="175.8" y="384.6"/>
      <point x="171.0" y="390.0"/>
      <point x="152.4" y="390.0" type="curve" smooth="yes"/>
      <point x="134.0" y="390.0"/>
      <point x="129.2" y="384.6"/>
      <point x="129.2" y="360.8" type="curve" smooth="yes"/>
      <point x="129.2" y="337.2"/>
      <point x="134.8" y="331.8"/>
    </contour>
    <component base="l"/>
  </outline>
</glyph>
<glyph name="Lslash" format="2">
  <advance width="258.0"/>
  <unicode hex="0141"/>
  <outline>
    <contour>
      <point x="20.4" y="213.4" type="line"/>
      <point x="61.4" y="252.4" type="line"/>
      <point x="61.4" y="0.0" type="line"/>
      <point x="252.8" y="0.0" type="line"/>
      <point x="252.8" y="50.8" type="line"/>
      <point x="112.6" y="50.8" type="line"/>
      <point x="112.6" y="285.0" type="line"/>
      <point x="225.4" y="390.6" type="line"/>
      <point x="225.4" y="446.2" type="line"/>
      <point x="112.6" y="341.4" type="line"/>
      <point x="112.6" y="700.0" type="line"/>
      <point x="61.4" y="700.0" type="line"/>
      <point x="61.4" y="308.8" type="line"/>
      <point x="20.4" y="269.8" type="line"/>
    </contour>
  </outline>
</glyph>
<glyph name="lslash" format="2">
  <advance width="159.0"/>
  <unicode hex="0142"/>
  <outline>
    <contour>
      <point x="112.2" y="-10.0" type="curve" smooth="yes"/>
      <point x="126.4" y="-10.0"/>
      <point x="142.2" y="-5.6"/>
      <point x="155.0" y="0.8000000000000003" type="curve"/>
      <point x="149.8" y="50.6" type="line"/>
      <point x="136.8" y="46.4"/>
      <point x="129.2" y="45.4"/>
      <point x="123.6" y="45.4" type="curve" smooth="yes"/>
      <point x="103.8" y="45.4"/>
      <point x="92.6" y="56.4"/>
      <point x="92.6" y="136.8" type="curve" smooth="yes"/>
      <point x="92.6" y="290.6" type="line"/>
      <point x="156.6" y="352.6" type="line"/>
      <point x="156.6" y="403.6" type="line"/>
      <point x="92.6" y="341.6" type="line"/>
      <point x="92.6" y="740.0" type="line"/>
      <point x="41.6" y="740.0" type="line"/>
      <point x="41.6" y="294.4" type="line"/>
      <point x="0.6000000000000001" y="255.0" type="line"/>
      <point x="0.6000000000000001" y="204.8" type="line"/>
      <point x="41.6" y="243.4" type="line"/>
      <point x="41.6" y="127.4" type="line" smooth="yes"/>
      <point x="41.6" y="13.8"/>
      <point x="63.6" y="-10.0"/>
    </contour>
  </outline>
</glyph>
<glyph name="Eng" format="2">
  <advance width="332.8"/>
  <unicode hex="014A"/>
  <outline>
    <contour>
      <point x="38.8" y="0.0" type="line"/>
      <point x="85.6" y="0.0" type="line"/>
      <point x="85.6" y="558.0" type="line"/>
      <point x="243.8" y="4.199999999999999" type="line"/>
      <point x="243.8" y="-12.0" type="line" smooth="yes"/>
      <point x="243.8" y="-70.4"/>
      <point x="220.2" y="-93.0"/>
      <point x="170.6" y="-93.0" type="curve" smooth="yes"/>
      <point x="166.4" y="-93.0"/>
      <point x="161.6" y="-93.0"/>
      <point x="156.2" y="-91.2" type="curve"/>
      <point x="149.6" y="-139.4" type="line"/>
      <point x="157.0" y="-143.2"/>
      <point x="166.4" y="-146.4"/>
      <point x="180.0" y="-146.4" type="curve" smooth="yes"/>
      <point x="271.0" y="-146.4"/>
      <point x="294.0" y="-90.2"/>
      <point x="294.0" y="-11.2" type="curve" smooth="yes"/>
      <point x="294.0" y="700.0" type="line"/>
      <point x="247.2" y="700.0" type="line"/>
      <point x="247.2" y="138.8" type="line"/>
      <point x="91.4" y="700.0" type="line"/>
      <point x="38.8" y="700.0" type="line"/>
    </contour>
  </outline>
</glyph>
<glyph name="eng" format="2">
  <advance width="292.2"/>
  <unicode hex="014B"/>
  <outline>
    <contour>
      <point x="253.6" y="15.0" type="curve"/>
      <point x="253.6" y="443.0" type="line" smooth="yes"/>
      <point x="253.6" y="514.8"/>
      <point x="218.8" y="544.0"/>
      <point x="172.2" y="544.0" type="curve" smooth="yes"/>
      <point x="141.8" y="544.0"/>
      <point x="109.2" y="532.8"/>
      <point x="86.8" y="516.4" type="curve"/>
      <point x="86.8" y="534.0" type="line"/>
      <point x="39.0" y="534.0" type="line"/>
      <point x="39.0" y="0.0" type="line"/>
      <point x="90.2" y="0.0" type="line"/>
      <point x="90.2" y="472.8" type="line"/>
      <point x="105.4" y="485.4"/>
      <point x="132.8" y="495.0"/>
      <point x="150.4" y="495.0" type="curve" smooth="yes"/>
      <point x="185.4" y="495.0"/>
      <point x="202.4" y="472.4"/>
      <point x="202.4" y="431.0" type="curve" smooth="yes"/>
      <point x="202.4" y="13.8" type="line" smooth="yes"/>
      <point x="202.4" y="-68.6"/>
      <point x="186.6" y="-121.4"/>
      <point x="158.0" y="-147.0" type="curve" smooth="yes"/>
      <point x="153.4" y="-151.0"/>
      <point x="148.2" y="-154.0"/>
      <point x="143.0" y="-156.2" type="curve"/>
      <point x="148.6" y="-209.8" type="line"/>
      <point x="158.6" y="-206.8"/>
      <point x="168.2" y="-202.4"/>
      <point x="178.8" y="-197.6" type="curve" smooth="yes"/>
      <point x="227.0" y="-168.0"/>
      <point x="253.6" y="-98.2"/>
    </contour>
  </outline>
</glyph>
<glyph name="OE" format="2">
  <advance width="451.6"/>
  <unicode hex="0152"/>
  <outline>
    <contour>
      <point x="440.4" y="0.0" type="line"/>
      <point x="440.4" y="51.6" type="line"/>
      <point x="278.0" y="51.6" type="line"/>
      <point x="278.0" y="335.2" type="line"/>
      <point x="413.6" y="335.2" type="line"/>
      <point x="413.6" y="384.8" type="line"/>
      <point x="278.0" y="384.8" type="line"/>
      <point x="278.0" y="647.4" type="line"/>
      <point x="430.2" y="647.4" type="line"/>
      <point x="430.2" y="700.0" type="line"/>
      <point x="267.8" y="700.0" type="line"/>
      <point x="243.4" y="704.0"/>
      <point x="214.8" y="705.2"/>
      <point x="186.4" y="705.2" type="curve" smooth="yes"/>
      <point x="82.0" y="705.2"/>
      <point x="24.2" y="646.2"/>
      <point x="24.2" y="350.8" type="curve" smooth="yes"/>
      <point x="24.2" y="66.4"/>
      <point x="78.2" y="-6.8"/>
      <point x="181.6" y="-6.8" type="curve" smooth="yes"/>
      <point x="207.6" y="-6.8"/>
      <point x="241.0" y="-5.0"/>
      <point x="277.8" y="0.0" type="curve"/>
    </contour>
    <contour>
      <point x="226.8" y="45.400000000000006" type="line"/>
      <point x="213.6" y="43.400000000000006"/>
      <point x="198.4" y="42.2"/>
      <point x="186.8" y="42.2" type="curve" smooth="yes"/>
      <point x="112.6" y="42.2"/>
      <point x="77.4" y="91.6"/>
      <point x="77.4" y="350.0" type="curve" smooth="yes"/>
      <point x="77.4" y="613.4"/>
      <point x="113.6" y="656.6"/>
      <point x="192.0" y="656.6" type="curve" smooth="yes"/>
      <point x="203.2" y="656.6"/>
      <point x="212.8" y="655.4"/>
      <point x="226.8" y="653.4" type="curve"/>
    </contour>
  </outline>
</glyph>
<glyph name="oe" format="2">
  <advance width="461.8"/>
  <unicode hex="0153"/>
  <outline>
    <contour>
      <point x="25.2" y="267.2" type="curve" smooth="yes"/>
      <point x="25.2" y="59.0"/>
      <point x="53.8" y="-10.0"/>
      <point x="142.4" y="-10.0" type="curve" smooth="yes"/>
      <point x="196.8" y="-10.0"/>
      <point x="217.4" y="22.8"/>
      <point x="233.2" y="95.6" type="curve"/>
      <point x="249.8" y="23.6"/>
      <point x="280.4" y="-10.0"/>
      <point x="340.8" y="-10.0" type="curve" smooth="yes"/>
      <point x="368.0" y="-10.0"/>
      <point x="403.2" y="-2.4"/>
      <point x="431.8" y="10.4" type="curve"/>
      <point x="423.0" y="57.0" type="line"/>
      <point x="391.0" y="45.2"/>
      <point x="363.6" y="41.0"/>
      <point x="344.6" y="41.0" type="curve" smooth="yes"/>
      <point x="295.0" y="41.0"/>
      <point x="259.2" y="79.2"/>
      <point x="259.2" y="228.0" type="curve" smooth="yes"/>
      <point x="259.2" y="242.2"/>
      <point x="259.2" y="257.0"/>
      <point x="259.2" y="271.2" type="curve"/>
      <point x="339.0" y="272.2"/>
      <point x="405.4" y="282.0"/>
      <point x="440.0" y="287.8" type="curve"/>
      <point x="440.2" y="294.0"/>
      <point x="441.2" y="303.6"/>
      <point x="441.2" y="319.8" type="curve" smooth="yes"/>
      <point x="441.2" y="477.6"/>
      <point x="402.8" y="544.0"/>
      <point x="326.2" y="544.0" type="curve" smooth="yes"/>
      <point x="275.6" y="544.0"/>
      <point x="253.0" y="510.8"/>
      <point x="235.6" y="436.8" type="curve"/>
      <point x="217.6" y="510.6"/>
      <point x="195.8" y="544.0"/>
      <point x="142.4" y="544.0" type="curve" smooth="yes"/>
      <point x="53.8" y="544.0"/>
      <point x="25.2" y="475.4"/>
    </contour>
    <contour>
      <point x="77.6" y="267.2" type="curve" smooth="yes"/>
      <point x="77.6" y="453.4"/>
      <point x="95.4" y="496.4"/>
      <point x="142.4" y="496.4" type="curve" smooth="yes"/>
      <point x="189.2" y="496.4"/>
      <point x="207.2" y="453.4"/>
      <point x="207.2" y="267.2" type="curve" smooth="yes"/>
      <point x="207.2" y="81.0"/>
      <point x="189.2" y="37.8"/>
      <point x="142.4" y="37.8" type="curve" smooth="yes"/>
      <point x="95.4" y="37.8"/>
      <point x="77.6" y="81.0"/>
    </contour>
    <contour>
      <point x="259.2" y="307.2" type="curve"/>
      <point x="264.8" y="469.2"/>
      <point x="287.2" y="500.6"/>
      <point x="326.0" y="500.6" type="curve" smooth="yes"/>
      <point x="363.6" y="500.6"/>
      <point x="390.4" y="455.8"/>
      <point x="390.4" y="318.0" type="curve"/>
      <point x="370.6" y="313.0"/>
      <point x="309.6" y="307.2"/>
    </contour>
  </outline>
</glyph>
<glyph name="uni0162" format="2">
  <advance width="266.4"/>
  <unicode hex="0162"/>
  <outline>
    <contour>
      <point x="79.0" y="-174.6" type="curve"/>
      <point x="73.6" y="-210.0" type="line"/>
      <point x="88.8" y="-218.0"/>
      <point x="104.2" y="-220.0"/>
      <point x="116.6" y="-220.0" type="curve" smooth="yes"/>
      <point x="161.2" y="-220.0"/>
      <point x="177.0" y="-181.6"/>
      <point x="177.0" y="-138.0" type="curve" smooth="yes"/>
      <point x="177.0" y="-97.6"/>
      <point x="159.4" y="-40.0"/>
      <point x="149.2" y="1.2000000000000002" type="curve"/>
      <point x="113.2" y="1.2000000000000002" type="line"/>
      <point x="129.2" y="-48.6"/>
      <point x="141.6" y="-96.2"/>
      <point x="141.6" y="-128.8" type="curve" smooth="yes"/>
      <point x="141.6" y="-162.4"/>
      <point x="128.2" y="-181.8"/>
      <point x="107.4" y="-181.8" type="curve" smooth="yes"/>
      <point x="98.0" y="-181.8"/>
      <point x="89.0" y="-179.2"/>
    </contour>
    <component base="T"/>
  </outline>
</glyph>
<glyph name="Tbar" format="2">
  <advance width="266.4"/>
  <unicode hex="0166"/>
  <outline>
    <contour>
      <point x="32.0" y="344.6" type="line"/>
      <point x="107.8" y="344.6" type="line"/>
      <point x="107.8" y="0.0" type="line"/>
      <point x="158.8" y="0.0" type="line"/>
      <point x="158.8" y="344.6" type="line"/>
      <point x="234.0" y="344.6" type="line"/>
      <point x="234.0" y="393.4" type="line"/>
      <point x="158.8" y="393.4" type="line"/>
      <point x="158.8" y="648.4" type="line"/>
      <point x="260.4" y="648.4" type="line"/>
      <point x="260.4" y="700.0" type="line"/>
      <point x="6.0" y="700.0" type="line"/>
      <point x="6.0" y="648.4" type="line"/>
      <point x="107.8" y="648.4" type="line"/>
      <point x="107.8" y="393.4" type="line"/>
      <point x="32.0" y="393.4" type="line"/>
    </contour>
  </outline>
</glyph>
<glyph name="tbar" format="2">
  <advance width="210.0"/>
  <unicode hex="0167"/>
  <outline>
    <contour>
      <point x="108.2" y="299.2" type="line"/>
      <point x="194.0" y="299.2" type="line"/>
      <point x="194.0" y="341.2" type="line"/>
      <point x="108.2" y="341.2" type="line"/>
      <point x="108.2" y="489.0" type="line"/>
      <point x="204.8" y="489.0" type="line"/>
      <point x="204.8" y="534.0" type="line"/>
      <point x="108.2" y="534.0" type="line"/>
      <point x="108.2" y="663.0" type="line"/>
      <point x="66.0" y="663.0" type="line"/>
      <point x="57.4" y="534.0" type="line"/>
      <point x="7.6" y="528.0" type="line"/>
      <point x="7.6" y="489.0" type="line"/>
      <point x="57.4" y="489.0" type="line"/>
      <point x="57.4" y="341.2" type="line"/>
      <point x="17.2" y="341.2" type="line"/>
      <point x="17.2" y="299.2" type="line"/>
      <point x="57.4" y="299.2" type="line"/>
      <point x="57.4" y="123.6" type="line" smooth="yes"/>
      <point x="57.4" y="45.0"/>
      <point x="75.8" y="-10.0"/>
      <point x="152.8" y="-10.0" type="curve" smooth="yes"/>
      <point x="169.8" y="-10.0"/>
      <point x="190.8" y="-8.0"/>
      <point x="213.0" y="0.6000000000000001" type="curve"/>
      <point x="204.2" y="44.6" type="line"/>
      <point x="189.2" y="40.0"/>
      <point x="177.4" y="39.0"/>
      <point x="166.8" y="39.0" type="curve" smooth="yes"/>
      <point x="125.0" y="39.0"/>
      <point x="108.2" y="63.6"/>
      <point x="108.2" y="128.0" type="curve" smooth="yes"/>
    </contour>
  </outline>
</glyph>
<glyph name="uogonek" format="2">
  <advance width="301.8"/>
  <unicode hex="0173"/>
  <outline>
    <contour>
      <point x="274.6" y="-217.8" type="curve" smooth="yes"/>
      <point x="289.0" y="-217.8"/>
      <point x="299.4" y="-214.6"/>
      <point x="309.4" y="-209.0" type="curve"/>
      <point x="303.0" y="-170.4" type="line"/>
      <point x="297.6" y="-173.8"/>
      <point x="292.6" y="-174.8"/>
      <point x="286.4" y="-174.8" type="curve" smooth="yes"/>
      <point x="272.6" y="-174.8"/>
      <point x="261.0" y="-165.8"/>
      <point x="261.0" y="-135.0" type="curve" smooth="yes"/>
      <point x="261.0" y="-92.0"/>
      <point x="273.4" y="-49.8"/>
      <point x="303.0" y="2.2" type="curve"/>
      <point x="295.2" y="48.0" type="line"/>
      <point x="286.6" y="43.800000000000004"/>
      <point x="278.2" y="42.0"/>
      <point x="270.2" y="42.0" type="curve" smooth="yes"/>
      <point x="258.4" y="42.0"/>
      <point x="253.0" y="49.2"/>
      <point x="253.0" y="67.0" type="curve" smooth="yes"/>
      <point x="253.0" y="534.0" type="line"/>
      <point x="202.0" y="534.0" type="line"/>
      <point x="202.0" y="61.2" type="line"/>
      <point x="186.6" y="48.2"/>
      <point x="159.0" y="39.0"/>
      <point x="141.8" y="39.0" type="curve" smooth="yes"/>
      <point x="107.4" y="39.0"/>
      <point x="89.8" y="61.0"/>
      <point x="89.8" y="103.0" type="curve" smooth="yes"/>
      <point x="89.8" y="534.0" type="line"/>
      <point x="38.6" y="534.0" type="line"/>
      <point x="38.6" y="97.0" type="line" smooth="yes"/>
      <point x="38.6" y="16.8"/>
      <point x="76.8" y="-10.0"/>
      <point x="121.8" y="-10.0" type="curve" smooth="yes"/>
      <point x="151.8" y="-10.0"/>
      <point x="183.8" y="1.2000000000000002"/>
      <point x="208.2" y="18.6" type="curve"/>
      <point x="214.8" y="1.8"/>
      <point x="232.4" y="-10.0"/>
      <point x="255.2" y="-10.0" type="curve" smooth="yes"/>
      <point x="262.8" y="-10.0"/>
      <point x="271.0" y="-9.0"/>
      <point x="279.6" y="-7.0" type="curve"/>
      <point x="272.2" y="6.2" type="line"/>
      <point x="235.6" y="-53.8"/>
      <point x="218.0" y="-105.4"/>
      <point x="218.0" y="-149.0" type="curve" smooth="yes"/>
      <point x="218.0" y="-197.6"/>
      <point x="240.4" y="-217.8"/>
    </contour>
  </outline>
</glyph>
<glyph name="longs" format="2">
  <advance width="177.2"/>
  <unicode hex="017F"/>
  <outline>
    <contour>
      <point x="117.0" y="494.6" type="line"/>
      <point x="117.0" y="671.0"/>
      <point x="149.0" y="701.4"/>
      <point x="195.8" y="701.4" type="curve" smooth="yes"/>
      <point x="207.2" y="701.4"/>
      <point x="222.4" y="699.8"/>
      <point x="236.2" y="695.0" type="curve"/>
      <point x="244.8" y="738.6" type="line"/>
      <point x="224.4" y="745.8"/>
      <point x="205.2" y="750.0"/>
      <point x="184.0" y="750.0" type="curve" smooth="yes"/>
      <point x="86.8" y="750.0"/>
      <point x="66.0" y="647.2"/>
      <point x="66.0" y="497.6" type="curve" smooth="yes"/>
      <point x="66.0" y="493.0" type="line"/>
      <point x="9.8" y="486.8" type="line"/>
      <point x="9.8" y="447.8" type="line"/>
      <point x="66.0" y="447.8" type="line"/>
      <point x="66.0" y="0.0" type="line"/>
      <point x="117.0" y="0.0" type="line"/>
    </contour>
  </outline>
</glyph>
<glyph name="uni018F" format="2">
  <advance width="291.0"/>
  <unicode hex="018F"/>
  <outline>
    <contour>
      <point x="41.6" y="641.4" type="line"/>
      <point x="72.0" y="652.6"/>
      <point x="99.2" y="659.6"/>
      <point x="116.6" y="659.6" type="curve" smooth="yes"/>
      <point x="185.0" y="659.6"/>
      <point x="211.8" y="580.6"/>
      <point x="214.2" y="374.6" type="curve" smooth="yes"/>
      <point x="214.2" y="365.0"/>
      <point x="214.2" y="355.8"/>
      <point x="214.2" y="346.2" type="curve"/>
      <point x="125.6" y="344.2"/>
      <point x="65.0" y="332.0"/>
      <point x="20.8" y="323.6" type="curve"/>
      <point x="20.4" y="312.2"/>
      <point x="19.4" y="297.0"/>
      <point x="19.4" y="281.6" type="curve" smooth="yes"/>
      <point x="19.4" y="86.6"/>
      <point x="59.8" y="-10.0"/>
      <point x="141.0" y="-10.0" type="curve" smooth="yes"/>
      <point x="230.0" y="-10.0"/>
      <point x="266.6" y="100.0"/>
      <point x="266.6" y="368.6" type="curve" smooth="yes"/>
      <point x="266.6" y="603.4"/>
      <point x="224.0" y="710.0"/>
      <point x="132.4" y="710.0" type="curve" smooth="yes"/>
      <point x="96.6" y="710.0"/>
      <point x="60.8" y="701.4"/>
      <point x="31.0" y="685.0" type="curve"/>
    </contour>
    <contour>
      <point x="215.4" y="300.2" type="curve"/>
      <point x="210.6" y="111.2"/>
      <point x="190.2" y="38.0"/>
      <point x="141.0" y="38.0" type="curve" smooth="yes"/>
      <point x="90.6" y="38.0"/>
      <point x="67.8" y="112.2"/>
      <point x="67.8" y="284.0" type="curve"/>
      <point x="111.4" y="295.0"/>
      <point x="152.2" y="299.2"/>
    </contour>
  </outline>
</glyph>
<glyph name="florin" format="2">
  <advance width="284.0"/>
  <unicode hex="0192"/>
  <outline>
    <contour>
      <point x="54.6" y="387.8" type="line"/>
      <point x="47.4" y="344.8" type="line"/>
      <point x="102.4" y="344.8" type="line"/>
      <point x="15.4" y="-210.0" type="line"/>
      <point x="62.400000000000006" y="-210.0" type="line"/>
      <point x="149.4" y="344.8" type="line"/>
      <point x="211.2" y="344.8" type="line"/>
      <point x="218.4" y="389.2" type="line"/>
      <point x="156.6" y="389.2" type="line"/>
      <point x="166.8" y="451.2" type="line" smooth="yes"/>
      <point x="192.8" y="608.8"/>
      <point x="215.4" y="659.2"/>
      <point x="256.2" y="659.2" type="curve" smooth="yes"/>
      <point x="264.2" y="659.2"/>
      <point x="272.0" y="657.4"/>
      <point x="284.6" y="653.0" type="curve"/>
      <point x="302.2" y="698.6" type="line"/>
      <point x="286.6" y="706.8"/>
      <point x="271.8" y="710.0"/>
      <point x="254.0" y="710.0" type="curve" smooth="yes"/>
      <point x="186.2" y="710.0"/>
      <point x="151.4" y="647.0"/>
      <point x="120.6" y="456.0" type="curve" smooth="yes"/>
      <point x="109.6" y="389.2" type="line"/>
    </contour>
  </outline>
</glyph>
<glyph name="uni0259" format="2">
  <advance width="273.6"/>
  <unicode hex="0259"/>
  <outline>
    <contour>
      <point x="15.8" y="246.2" type="curve"/>
      <point x="14.8" y="235.8"/>
      <point x="14.6" y="225.4"/>
      <point x="14.6" y="214.2" type="curve" smooth="yes"/>
      <point x="14.6" y="56.4"/>
      <point x="53.0" y="-10.0"/>
      <point x="129.6" y="-10.0" type="curve" smooth="yes"/>
      <point x="208.0" y="-10.0"/>
      <point x="248.4" y="55.6"/>
      <point x="248.4" y="280.6" type="curve" smooth="yes"/>
      <point x="248.4" y="473.4"/>
      <point x="206.6" y="544.0"/>
      <point x="123.4" y="544.0" type="curve" smooth="yes"/>
      <point x="90.2" y="544.0"/>
      <point x="57.0" y="538.8"/>
      <point x="24.0" y="523.6" type="curve"/>
      <point x="32.8" y="477.0" type="line"/>
      <point x="64.8" y="488.8"/>
      <point x="93.8" y="493.0"/>
      <point x="111.2" y="493.0" type="curve" smooth="yes"/>
      <point x="164.0" y="493.0"/>
      <point x="195.6" y="450.0"/>
      <point x="195.6" y="282.0" type="curve" smooth="yes"/>
      <point x="195.6" y="275.8"/>
      <point x="195.6" y="269.0"/>
      <point x="195.6" y="262.8" type="curve"/>
      <point x="115.8" y="261.8"/>
      <point x="50.4" y="252.0"/>
    </contour>
    <contour>
      <point x="196.0" y="226.4" type="curve"/>
      <point x="190.4" y="65.2"/>
      <point x="168.2" y="33.8"/>
      <point x="129.8" y="33.8" type="curve" smooth="yes"/>
      <point x="92.4" y="33.8"/>
      <point x="66.0" y="78.6"/>
      <point x="66.0" y="215.6" type="curve"/>
      <point x="85.0" y="220.6"/>
      <point x="146.0" y="226.4"/>
    </contour>
  </outline>
</glyph>
<glyph name="gravecomb" format="2">
  <unicode hex="0300"/>
  <anchor x="-189.8" y="725.8" name="top"/>
  <anchor x="-143.6" y="534.0" name="_top"/>
  <outline>
    <contour>
      <point x="-164.8" y="595.8" type="line"/>
      <point x="-121.4" y="595.8" type="line"/>
      <point x="-194.6" y="789.8" type="line"/>
      <point x="-249.6" y="789.8" type="line"/>
    </contour>
  </outline>
</glyph>
<glyph name="acutecomb" format="2">
  <unicode hex="0301"/>
  <anchor x="-101.8" y="725.8" name="top"/>
  <anchor x="-143.6" y="534.0" name="_top"/>
  <outline>
    <contour>
      <point x="-165.2" y="595.8" type="line"/>
      <point x="-123.6" y="595.8" type="line"/>
      <point x="-38.6" y="789.8" type="line"/>
      <point x="-91.2" y="789.8" type="line"/>
    </contour>
  </outline>
</glyph>
<glyph name="uni0302" format="2">
  <unicode hex="0302"/>
  <anchor x="-143.6" y="753.8" name="top"/>
  <anchor x="-143.6" y="534.0" name="_top"/>
  <anchor x="-34.0" y="667.8" name="top_viet"/>
  <outline>
    <contour>
      <point x="-235.6" y="595.8" type="line"/>
      <point x="-193.0" y="595.8" type="line"/>
      <point x="-143.6" y="749.8" type="line"/>
      <point x="-95.0" y="595.8" type="line"/>
      <point x="-51.6" y="595.8" type="line"/>
      <point x="-116.4" y="789.8" type="line"/>
      <point x="-170.0" y="789.8" type="line"/>
    </contour>
  </outline>
</glyph>
<glyph name="tildecomb" format="2">
  <unicode hex="0303"/>
  <anchor x="-143.6" y="645.6" name="top"/>
  <anchor x="-143.6" y="534.0" name="_top"/>
  <outline>
    <contour>
      <point x="-238.4" y="602.4" type="curve"/>
      <point x="-203.8" y="602.4" type="line"/>
      <point x="-207.0" y="610.8"/>
      <point x="-209.2" y="624.6"/>
      <point x="-209.2" y="638.8" type="curve" smooth="yes"/>
      <point x="-209.2" y="661.4"/>
      <point x="-203.2" y="681.8"/>
      <point x="-189.0" y="681.8" type="curve" smooth="yes"/>
      <point x="-163.6" y="681.8"/>
      <point x="-136.8" y="604.0"/>
      <point x="-93.4" y="604.0" type="curve" smooth="yes"/>
      <point x="-58.2" y="604.0"/>
      <point x="-43.6" y="636.0"/>
      <point x="-43.6" y="687.2" type="curve" smooth="yes"/>
      <point x="-43.6" y="701.6"/>
      <point x="-45.2" y="717.0"/>
      <point x="-48.2" y="732.4" type="curve"/>
      <point x="-81.2" y="732.4" type="line"/>
      <point x="-78.6" y="721.8"/>
      <point x="-77.0" y="709.6"/>
      <point x="-77.0" y="698.0" type="curve" smooth="yes"/>
      <point x="-77.0" y="679.2"/>
      <point x="-78.6" y="649.2"/>
      <point x="-97.8" y="649.2" type="curve" smooth="yes"/>
      <point x="-128.8" y="649.2"/>
      <point x="-144.6" y="725.4"/>
      <point x="-193.0" y="725.4" type="curve" smooth="yes"/>
      <point x="-227.4" y="725.4"/>
      <point x="-243.0" y="693.8"/>
      <point x="-243.0" y="647.6" type="curve" smooth="yes"/>
      <point x="-243.0" y="633.6"/>
      <point x="-241.4" y="617.2"/>
    </contour>
  </outline>
</glyph>
<glyph name="uni0304" format="2">
  <unicode hex="0304"/>
  <anchor x="-143.6" y="716.8" name="top"/>
  <anchor x="-143.6" y="534.0" name="_top"/>
  <outline>
    <contour>
      <point x="-227.0" y="668.0" type="line"/>
      <point x="-60.2" y="668.0" type="line"/>
      <point x="-60.2" y="712.8" type="line"/>
      <point x="-227.0" y="712.8" type="line"/>
    </contour>
  </outline>
</glyph>
<glyph name="uni0306" format="2">
  <unicode hex="0306"/>
  <anchor x="-143.6" y="709.2" name="top"/>
  <anchor x="-143.6" y="534.0" name="_top"/>
  <outline>
    <contour>
      <point x="-143.4" y="603.2" type="curve" smooth="yes"/>
      <point x="-79.4" y="603.2"/>
      <point x="-46.2" y="635.0"/>
      <point x="-46.2" y="718.6" type="curve" smooth="yes"/>
      <point x="-46.2" y="723.6"/>
      <point x="-46.2" y="728.0"/>
      <point x="-46.4" y="733.2" type="curve"/>
      <point x="-80.4" y="734.8" type="line"/>
      <point x="-80.4" y="731.2"/>
      <point x="-80.4" y="727.0"/>
      <point x="-80.4" y="724.2" type="curve" smooth="yes"/>
      <point x="-80.4" y="666.8"/>
      <point x="-102.0" y="642.6"/>
      <point x="-143.4" y="642.6" type="curve" smooth="yes"/>
      <point x="-185.0" y="642.6"/>
      <point x="-206.6" y="666.8"/>
      <point x="-206.6" y="724.2" type="curve" smooth="yes"/>
      <point x="-206.6" y="727.0"/>
      <point x="-206.6" y="731.2"/>
      <point x="-206.6" y="734.8" type="curve"/>
      <point x="-240.8" y="733.2" type="line"/>
      <point x="-241.0" y="728.0"/>
      <point x="-241.0" y="723.6"/>
      <point x="-241.0" y="718.6" type="curve" smooth="yes"/>
      <point x="-241.0" y="631.4"/>
      <point x="-203.0" y="603.2"/>
    </contour>
  </outline>
</glyph>
<glyph name="uni0307" format="2">
  <unicode hex="0307"/>
  <anchor x="-143.6" y="655.4" name="top"/>
  <anchor x="-143.6" y="534.0" name="_top"/>
  <outline>
    <contour>
      <point x="-143.6" y="658.6" type="curve" smooth="yes"/>
      <point x="-125.6" y="658.6"/>
      <point x="-118.0" y="668.4"/>
      <point x="-118.0" y="690.4" type="curve" smooth="yes"/>
      <point x="-118.0" y="712.4"/>
      <point x="-125.6" y="722.2"/>
      <point x="-143.6" y="722.2" type="curve" smooth="yes"/>
      <point x="-160.0" y="722.2"/>
      <point x="-169.2" y="712.4"/>
      <point x="-169.2" y="690.4" type="curve" smooth="yes"/>
      <point x="-169.2" y="668.4"/>
      <point x="-160.0" y="658.6"/>
    </contour>
  </outline>
</glyph>
<glyph name="uni0308" format="2">
  <unicode hex="0308"/>
  <anchor x="-143.6" y="655.4" name="top"/>
  <anchor x="-143.6" y="534.0" name="_top"/>
  <outline>
    <contour>
      <point x="-85.0" y="659.8" type="curve" smooth="yes"/>
      <point x="-67.8" y="659.8"/>
      <point x="-60.4" y="669.4"/>
      <point x="-60.4" y="691.4" type="curve" smooth="yes"/>
      <point x="-60.4" y="713.6"/>
      <point x="-67.8" y="723.4"/>
      <point x="-85.0" y="723.4" type="curve" smooth="yes"/>
      <point x="-102.2" y="723.4"/>
      <point x="-109.8" y="713.6"/>
      <point x="-109.8" y="691.4" type="curve" smooth="yes"/>
      <point x="-109.8" y="669.4"/>
      <point x="-102.2" y="659.8"/>
    </contour>
    <contour>
      <point x="-202.2" y="659.8" type="curve" smooth="yes"/>
      <point x="-185.0" y="659.8"/>
      <point x="-177.4" y="669.4"/>
      <point x="-177.4" y="691.4" type="curve" smooth="yes"/>
      <point x="-177.4" y="713.6"/>
      <point x="-185.0" y="723.4"/>
      <point x="-202.2" y="723.4" type="curve" smooth="yes"/>
      <point x="-219.4" y="723.4"/>
      <point x="-226.8" y="713.6"/>
      <point x="-226.8" y="691.4" type="curve" smooth="yes"/>
      <point x="-226.8" y="669.4"/>
      <point x="-219.4" y="659.8"/>
    </contour>
  </outline>
</glyph>
<glyph name="hookabovecomb" format="2">
  <unicode hex="0309"/>
  <anchor x="-140.4" y="794.0" name="top"/>
  <anchor x="-142.8" y="534.0" name="_top"/>
  <outline>
    <contour>
      <point x="-145.2" y="603.2" type="line"/>
      <point x="-98.0" y="637.0"/>
      <point x="-78.2" y="681.0"/>
      <point x="-78.2" y="724.2" type="curve" smooth="yes"/>
      <point x="-78.2" y="768.8"/>
      <point x="-103.8" y="794.0"/>
      <point x="-142.2" y="794.0" type="curve" smooth="yes"/>
      <point x="-164.6" y="794.0"/>
      <point x="-183.6" y="788.2"/>
      <point x="-198.2" y="771.6" type="curve"/>
      <point x="-184.6" y="737.4" type="line"/>
      <point x="-173.4" y="749.6"/>
      <point x="-163.0" y="753.8"/>
      <point x="-149.2" y="753.8" type="curve" smooth="yes"/>
      <point x="-129.2" y="753.8"/>
      <point x="-118.4" y="739.6"/>
      <point x="-118.4" y="718.4" type="curve" smooth="yes"/>
      <point x="-118.4" y="688.8"/>
      <point x="-128.8" y="664.8"/>
      <point x="-157.6" y="632.6" type="curve"/>
    </contour>
  </outline>
</glyph>
<glyph name="uni030A" format="2">
  <unicode hex="030A"/>
  <anchor x="-143.6" y="749.2" name="top"/>
  <anchor x="-143.6" y="534.0" name="_top"/>
  <outline>
    <contour>
      <point x="-143.6" y="610.8" type="curve" smooth="yes"/>
      <point x="-101.6" y="610.8"/>
      <point x="-77.4" y="641.4"/>
      <point x="-77.4" y="694.6" type="curve" smooth="yes"/>
      <point x="-77.4" y="747.8"/>
      <point x="-101.6" y="778.4"/>
      <point x="-143.6" y="778.4" type="curve" smooth="yes"/>
      <point x="-185.6" y="778.4"/>
      <point x="-209.8" y="747.8"/>
      <point x="-209.8" y="694.6" type="curve" smooth="yes"/>
      <point x="-209.8" y="641.4"/>
      <point x="-185.6" y="610.8"/>
    </contour>
    <contour>
      <point x="-143.6" y="641.6" type="curve" smooth="yes"/>
      <point x="-165.2" y="641.6"/>
      <point x="-176.8" y="659.6"/>
      <point x="-176.8" y="694.6" type="curve" smooth="yes"/>
      <point x="-176.8" y="730.4"/>
      <point x="-165.2" y="747.6"/>
      <point x="-143.6" y="747.6" type="curve" smooth="yes"/>
      <point x="-122.0" y="747.6"/>
      <point x="-110.4" y="730.4"/>
      <point x="-110.4" y="694.6" type="curve" smooth="yes"/>
      <point x="-110.4" y="659.6"/>
      <point x="-122.0" y="641.6"/>
    </contour>
  </outline>
</glyph>
<glyph name="uni030B" format="2">
  <unicode hex="030B"/>
  <anchor x="-102.2" y="789.8" name="top"/>
  <anchor x="-143.6" y="534.0" name="_top"/>
  <outline>
    <contour>
      <point x="-113.2" y="595.8" type="line"/>
      <point x="-76.2" y="595.8" type="line"/>
      <point x="1.3999999999999995" y="789.8" type="line"/>
      <point x="-45.0" y="789.8" type="line"/>
    </contour>
    <contour>
      <point x="-205.8" y="595.8" type="line"/>
      <point x="-168.8" y="595.8" type="line"/>
      <point x="-91.2" y="789.8" type="line"/>
      <point x="-137.6" y="789.8" type="line"/>
    </contour>
  </outline>
</glyph>
<glyph name="uni030F" format="2">
  <unicode hex="030F"/>
  <anchor x="-178.6" y="789.8" name="top"/>
  <anchor x="-143.6" y="534.0" name="_top"/>
  <outline>
    <contour>
      <point x="-204.6" y="595.8" type="line"/>
      <point x="-167.6" y="595.8" type="line"/>
      <point x="-235.8" y="789.8" type="line"/>
      <point x="-282.2" y="789.8" type="line"/>
    </contour>
    <contour>
      <point x="-112.0" y="595.8" type="line"/>
      <point x="-75.0" y="595.8" type="line"/>
      <point x="-143.2" y="789.8" type="line"/>
      <point x="-189.6" y="789.8" type="line"/>
    </contour>
  </outline>
</glyph>
<glyph name="uni0312" format="2">
  <unicode hex="0312"/>
  <anchor x="-143.6" y="534.0" name="_top"/>
  <outline>
    <contour>
      <point x="-121.6" y="594.4" type="line"/>
      <point x="-127.4" y="609.2"/>
      <point x="-130.8" y="636.2"/>
      <point x="-130.8" y="664.8" type="curve" smooth="yes"/>
      <point x="-130.8" y="700.4"/>
      <point x="-126.2" y="736.6"/>
      <point x="-107.6" y="779.8" type="curve"/>
      <point x="-149.0" y="779.8" type="line"/>
      <point x="-166.6" y="743.2"/>
      <point x="-175.6" y="707.6"/>
      <point x="-175.6" y="660.8" type="curve" smooth="yes"/>
      <point x="-175.6" y="629.6"/>
      <point x="-171.6" y="605.6"/>
      <point x="-167.6" y="594.4" type="curve"/>
    </contour>
  </outline>
</glyph>
<glyph name="uni031B" format="2">
  <unicode hex="031B"/>
  <anchor x="-89.4" y="534.0" name="_topright"/>
  <anchor x="13.8" y="679.0" name="topright"/>
  <outline>
    <contour>
      <point x="-111.4" y="496.2" type="line"/>
      <point x="-104.6" y="496.2" type="line" smooth="yes"/>
      <point x="-35.0" y="496.2"/>
      <point x="7.0" y="570.2"/>
      <point x="-28.0" y="678.4" type="curve"/>
      <point x="-69.6" y="672.0" type="line"/>
      <point x="-39.6" y="586.0"/>
      <point x="-67.8" y="534.0"/>
      <point x="-107.2" y="534.0" type="curve" smooth="yes"/>
      <point x="-111.4" y="534.0" type="line"/>
    </contour>
  </outline>
</glyph>
<glyph name="uni0326" format="2">
  <unicode hex="0326"/>
  <anchor x="-143.6" y="0.0" name="_bottom"/>
  <outline>
    <contour>
      <point x="-190.4" y="-217.2" type="curve"/>
      <point x="-150.8" y="-217.2" type="line"/>
      <point x="-129.8" y="-180.0"/>
      <point x="-120.0" y="-142.0"/>
      <point x="-120.0" y="-94.2" type="curve" smooth="yes"/>
      <point x="-120.0" y="-83.8"/>
      <point x="-120.8" y="-74.2"/>
      <point x="-121.6" y="-66.2" type="curve"/>
      <point x="-165.0" y="-66.2" type="line"/>
      <point x="-164.0" y="-76.2"/>
      <point x="-163.0" y="-87.2"/>
      <point x="-163.0" y="-98.2" type="curve" smooth="yes"/>
      <point x="-163.0" y="-134.6"/>
      <point x="-170.0" y="-173.0"/>
    </contour>
  </outline>
</glyph>
<glyph name="uni0327" format="2">
  <unicode hex="0327"/>
  <anchor x="-143.6" y="0.0" name="_bottom"/>
  <anchor x="-154.6" y="-220.0" name="bottom"/>
  <outline>
    <contour>
      <point x="-197.8" y="-174.6" type="curve"/>
      <point x="-203.2" y="-210.0" type="line"/>
      <point x="-188.2" y="-218.0"/>
      <point x="-172.6" y="-220.0"/>
      <point x="-160.2" y="-220.0" type="curve" smooth="yes"/>
      <point x="-115.8" y="-220.0"/>
      <point x="-100.0" y="-181.6"/>
      <point x="-100.0" y="-138.0" type="curve" smooth="yes"/>
      <point x="-100.0" y="-97.6"/>
      <point x="-117.6" y="-40.0"/>
      <point x="-135.6" y="1.2000000000000002" type="curve"/>
      <point x="-168.4" y="1.2000000000000002" type="line"/>
      <point x="-147.8" y="-48.8"/>
      <point x="-135.2" y="-96.2"/>
      <point x="-135.2" y="-128.8" type="curve" smooth="yes"/>
      <point x="-135.2" y="-162.4"/>
      <point x="-148.8" y="-181.8"/>
      <point x="-169.4" y="-181.8" type="curve" smooth="yes"/>
      <point x="-178.8" y="-181.8"/>
      <point x="-187.8" y="-179.2"/>
    </contour>
  </outline>
</glyph>
<glyph name="uni0328" format="2">
  <unicode hex="0328"/>
  <anchor x="-106.6" y="0.0" name="_ogonek"/>
  <outline>
    <contour>
      <point x="-135.2" y="-220.0" type="curve" smooth="yes"/>
      <point x="-120.8" y="-220.0"/>
      <point x="-110.4" y="-217.0"/>
      <point x="-100.4" y="-211.2" type="curve"/>
      <point x="-106.8" y="-172.8" type="line"/>
      <point x="-112.0" y="-176.0"/>
      <point x="-117.0" y="-177.0"/>
      <point x="-123.4" y="-177.0" type="curve" smooth="yes"/>
      <point x="-137.0" y="-177.0"/>
      <point x="-148.6" y="-168.0"/>
      <point x="-148.6" y="-137.4" type="curve" smooth="yes"/>
      <point x="-148.6" y="-94.4"/>
      <point x="-136.4" y="-52.0"/>
      <point x="-106.6" y="0.0" type="curve"/>
      <point x="-137.6" y="7.8" type="line"/>
      <point x="-174.0" y="-53.2"/>
      <point x="-191.8" y="-105.6"/>
      <point x="-191.8" y="-151.2" type="curve" smooth="yes"/>
      <point x="-191.8" y="-200.0"/>
      <point x="-169.2" y="-220.0"/>
    </contour>
  </outline>
</glyph>
<glyph name="uni0335" format="2">
  <unicode hex="0335"/>
  <anchor x="-64.2" y="350.0" name="_center"/>
  <outline>
    <contour>
      <point x="-174.0" y="325.6" type="line"/>
      <point x="45.4" y="325.6" type="line"/>
      <point x="45.4" y="374.4" type="line"/>
      <point x="-174.0" y="374.4" type="line"/>
    </contour>
  </outline>
</glyph>
<glyph name="pi" format="2">
  <advance width="337.4"/>
  <unicode hex="03C0"/>
  <outline>
    <contour>
      <point x="280.0" y="-10.0" type="curve" smooth="yes"/>
      <point x="297.2" y="-10.0"/>
      <point x="311.8" y="-6.0"/>
      <point x="327.8" y="2.2" type="curve"/>
      <point x="320.0" y="49.800000000000004" type="line"/>
      <point x="311.4" y="45.6"/>
      <point x="303.0" y="43.800000000000004"/>
      <point x="295.0" y="43.800000000000004" type="curve" smooth="yes"/>
      <point x="283.2" y="43.800000000000004"/>
      <point x="277.8" y="51.0"/>
      <point x="277.8" y="68.80000000000001" type="curve" smooth="yes"/>
      <point x="277.8" y="481.8" type="line"/>
      <point x="322.0" y="481.8" type="line"/>
      <point x="322.0" y="534.0" type="line"/>
      <point x="168.0" y="534.0" type="line" smooth="yes"/>
      <point x="98.6" y="534.0"/>
      <point x="60.2" y="527.6"/>
      <point x="24.0" y="495.6" type="curve"/>
      <point x="30.0" y="450.2" type="line"/>
      <point x="54.8" y="469.8"/>
      <point x="77.6" y="477.4"/>
      <point x="94.8" y="479.8" type="curve"/>
      <point x="82.2" y="349.0"/>
      <point x="68.6" y="107.6"/>
      <point x="45.6" y="0.0" type="curve"/>
      <point x="98.0" y="0.0" type="line"/>
      <point x="122.4" y="115.8"/>
      <point x="135.2" y="351.8"/>
      <point x="146.2" y="481.8" type="curve"/>
      <point x="226.8" y="481.8" type="line"/>
      <point x="226.8" y="56.400000000000006" type="line" smooth="yes"/>
      <point x="226.8" y="17.8"/>
      <point x="239.2" y="-10.0"/>
    </contour>
  </outline>
</glyph>
<glyph name="endash" format="2">
  <advance width="324.2"/>
  <unicode hex="2013"/>
  <outline>
    <contour>
      <point x="10.4" y="250.8" type="line"/>
      <point x="313.8" y="250.8" type="line"/>
      <point x="313.8" y="300.4" type="line"/>
      <point x="10.4" y="300.4" type="line"/>
    </contour>
  </outline>
</glyph>
<glyph name="emdash" format="2">
  <advance width="611.6"/>
  <unicode hex="2014"/>
  <outline>
    <contour>
      <point x="4.0" y="250.8" type="line"/>
      <point x="607.6" y="250.8" type="line"/>
      <point x="607.6" y="300.4" type="line"/>
      <point x="4.0" y="300.4" type="line"/>
    </contour>
  </outline>
</glyph>
<glyph name="quoteleft" format="2">
  <advance width="120.4"/>
  <unicode hex="2018"/>
  <outline>
    <contour>
      <point x="21.2" y="430.0" type="curve"/>
      <point x="69.0" y="430.0" type="line"/>
      <point x="68.6" y="444.6"/>
      <point x="68.4" y="459.0"/>
      <point x="68.4" y="473.6" type="curve" smooth="yes"/>
      <point x="68.4" y="563.6"/>
      <point x="82.2" y="627.0"/>
      <point x="112.0" y="695.6" type="curve"/>
      <point x="69.4" y="700.0" type="line"/>
      <point x="35.4" y="632.2"/>
      <point x="20.4" y="565.6"/>
      <point x="20.4" y="465.8" type="curve" smooth="yes"/>
      <point x="20.4" y="453.8"/>
      <point x="20.4" y="442.0"/>
    </contour>
  </outline>
</glyph>
<glyph name="quoteright" format="2">
  <advance width="120.4"/>
  <unicode hex="2019"/>
  <outline>
    <contour>
      <point x="56.400000000000006" y="430.0" type="line"/>
      <point x="90.6" y="497.8"/>
      <point x="105.6" y="564.4"/>
      <point x="105.6" y="664.2" type="curve" smooth="yes"/>
      <point x="105.6" y="676.0"/>
      <point x="105.6" y="688.0"/>
      <point x="104.6" y="700.0" type="curve"/>
      <point x="56.8" y="700.0" type="line"/>
      <point x="57.2" y="685.4"/>
      <point x="57.4" y="671.0"/>
      <point x="57.4" y="656.4" type="curve" smooth="yes"/>
      <point x="57.4" y="566.4"/>
      <point x="43.6" y="503.0"/>
      <point x="14.0" y="434.4" type="curve"/>
    </contour>
  </outline>
</glyph>
<glyph name="daggerdbl" format="2">
  <advance width="305.6"/>
  <unicode hex="2021"/>
  <outline>
    <contour>
      <point x="280.0" y="-2.0" type="line"/>
      <point x="280.0" y="49.6" type="line"/>
      <point x="179.0" y="49.6" type="line"/>
      <point x="179.0" y="482.4" type="line"/>
      <point x="280.0" y="482.4" type="line"/>
      <point x="280.0" y="534.0" type="line"/>
      <point x="179.0" y="534.0" type="line"/>
      <point x="179.0" y="740.0" type="line"/>
      <point x="126.6" y="740.0" type="line"/>
      <point x="126.6" y="534.0" type="line"/>
      <point x="25.6" y="534.0" type="line"/>
      <point x="25.6" y="482.4" type="line"/>
      <point x="126.6" y="482.4" type="line"/>
      <point x="126.6" y="49.6" type="line"/>
      <point x="25.6" y="49.6" type="line"/>
      <point x="25.6" y="-2.0" type="line"/>
      <point x="126.6" y="-2.0" type="line"/>
      <point x="126.6" y="-210.0" type="line"/>
      <point x="179.0" y="-210.0" type="line"/>
      <point x="179.0" y="-2.0" type="line"/>
    </contour>
  </outline>
</glyph>
<glyph name="bullet" format="2">
  <advance width="243.2"/>
  <unicode hex="2022"/>
  <outline>
    <contour>
      <point x="121.6" y="220.4" type="curve" smooth="yes"/>
      <point x="172.0" y="220.4"/>
      <point x="212.8" y="261.2"/>
      <point x="212.8" y="311.4" type="curve" smooth="yes"/>
      <point x="212.8" y="362.0"/>
      <point x="172.0" y="402.8"/>
      <point x="121.6" y="402.8" type="curve" smooth="yes"/>
      <point x="71.2" y="402.8"/>
      <point x="30.4" y="362.0"/>
      <point x="30.4" y="311.4" type="curve" smooth="yes"/>
      <point x="30.4" y="261.2"/>
      <point x="71.2" y="220.4"/>
    </contour>
  </outline>
</glyph>
<glyph name="minute" format="2">
  <advance width="159.4"/>
  <unicode hex="2032"/>
  <outline>
    <contour>
      <point x="34.4" y="428.6" type="line"/>
      <point x="72.4" y="428.6" type="line"/>
      <point x="125.0" y="700.0" type="line"/>
      <point x="74.4" y="700.0" type="line"/>
    </contour>
  </outline>
</glyph>
<glyph name="guilsinglleft" format="2">
  <advance width="143.8"/>
  <unicode hex="2039"/>
  <outline>
    <contour>
      <point x="16.2" y="241.4" type="line"/>
      <point x="114.6" y="47.6" type="line"/>
      <point x="128.0" y="103.4" type="line"/>
      <point x="52.4" y="270.0" type="line"/>
      <point x="128.0" y="439.0" type="line"/>
      <point x="114.6" y="492.0" type="line"/>
      <point x="16.2" y="297.4" type="line"/>
    </contour>
  </outline>
</glyph>
<glyph name="guilsinglright" format="2">
  <advance width="143.8"/>
  <unicode hex="203A"/>
  <outline>
    <contour>
      <point x="127.6" y="297.4" type="line"/>
      <point x="29.6" y="492.0" type="line"/>
      <point x="15.8" y="438.6" type="line"/>
      <point x="91.4" y="269.6" type="line"/>
      <point x="15.8" y="103.4" type="line"/>
      <point x="29.6" y="47.6" type="line"/>
      <point x="127.6" y="241.8" type="line"/>
    </contour>
  </outline>
</glyph>
<glyph name="fraction" format="2">
  <advance width="82.0"/>
  <unicode hex="2044"/>
  <outline>
    <contour>
      <point x="-78.6" y="-10.4" type="line"/>
      <point x="191.4" y="728.8" type="line"/>
      <point x="160.6" y="733.6" type="line"/>
      <point x="-109.4" y="-5.6" type="line"/>
    </contour>
  </outline>
</glyph>
<glyph name="uni2052" format="2">
  <advance width="284.0"/>
  <unicode hex="2052"/>
  <outline>
    <contour>
      <point x="5.4" y="1.6" type="line"/>
      <point x="47.2" y="-2.4" type="line"/>
      <point x="278.6" y="698.4" type="line"/>
      <point x="236.8" y="702.4" type="line"/>
    </contour>
    <component base="period" xOffset="-2.8" yOffset="628.4"/>
    <component base="period" xOffset="175.6"/>
  </outline>
</glyph>
